<svg width="16" height="13" viewBox="0 0 16 13" fill="none" xmlns="http://www.w3.org/2000/svg">
<path d="M15.3125 0.65625H0.6875C0.376367 0.65625 0.125 0.893652 0.125 1.1875V11.8125C0.125 12.1063 0.376367 12.3438 0.6875 12.3438H15.3125C15.6236 12.3438 15.875 12.1063 15.875 11.8125V1.1875C15.875 0.893652 15.6236 0.65625 15.3125 0.65625ZM14.6094 2.4957V11.1484H1.39062V2.4957L0.905469 2.13877L1.59629 1.30039L2.34863 1.85322H13.6531L14.4055 1.30039L15.0963 2.13877L14.6094 2.4957ZM13.6531 1.85156L8 6.00195L2.34687 1.85156L1.59453 1.29873L0.903711 2.13711L1.38887 2.49404L7.39355 6.90342C7.56624 7.03012 7.77869 7.0989 7.99736 7.0989C8.21604 7.0989 8.42849 7.03012 8.60117 6.90342L14.6094 2.4957L15.0945 2.13877L14.4037 1.30039L13.6531 1.85156Z" fill="#B66DF3"/>
</svg>
