<svg width="30" height="30" viewBox="0 0 30 30" fill="none" xmlns="http://www.w3.org/2000/svg">
<path d="M28.6562 0.15625H1.34375C0.686914 0.15625 0.15625 0.686914 0.15625 1.34375V28.6562C0.15625 29.3131 0.686914 29.8438 1.34375 29.8438H28.6562C29.3131 29.8438 29.8438 29.3131 29.8438 28.6562V1.34375C29.8438 0.686914 29.3131 0.15625 28.6562 0.15625ZM27.4688 27.4688H20.6369V18.3473H24.4963L25.0752 13.8682H20.6369V11.007C20.6369 9.7082 20.9969 8.825 22.8561 8.825H25.2273V4.81719C24.8154 4.76152 23.409 4.63906 21.7688 4.63906C18.3473 4.63906 16.0057 6.72832 16.0057 10.5617V13.8645H12.1389V18.3436H16.0094V27.4688H2.53125V2.53125H27.4688V27.4688Z" fill="#999999"/>
</svg>
