<svg width="45" height="45" viewBox="0 0 45 45" fill="none" xmlns="http://www.w3.org/2000/svg">
<path d="M22.5 45C34.9264 45 45 34.9264 45 22.5C45 10.0736 34.9264 0 22.5 0C10.0736 0 0 10.0736 0 22.5C0 34.9264 10.0736 45 22.5 45Z" fill="white"/>
<path d="M37 22.1268C37 29.3765 30.2838 35.2536 22 35.2536C20.5143 35.2556 19.0349 35.0627 17.5994 34.6798C16.5044 35.2349 13.99 36.3 9.76 36.9938C9.385 37.0539 9.1 36.6638 9.24813 36.315C9.91188 34.7473 10.5119 32.6582 10.6919 30.753C8.395 28.4464 7 25.4273 7 22.1268C7 14.8771 13.7162 9 22 9C30.2838 9 37 14.8771 37 22.1268ZM15.4375 16.501C15.1889 16.501 14.9504 16.5998 14.7746 16.7757C14.5988 16.9515 14.5 17.19 14.5 17.4387C14.5 17.6873 14.5988 17.9258 14.7746 18.1017C14.9504 18.2775 15.1889 18.3763 15.4375 18.3763H28.5625C28.8111 18.3763 29.0496 18.2775 29.2254 18.1017C29.4012 17.9258 29.5 17.6873 29.5 17.4387C29.5 17.19 29.4012 16.9515 29.2254 16.7757C29.0496 16.5998 28.8111 16.501 28.5625 16.501H15.4375ZM15.4375 21.1892C15.1889 21.1892 14.9504 21.288 14.7746 21.4638C14.5988 21.6396 14.5 21.8781 14.5 22.1268C14.5 22.3755 14.5988 22.614 14.7746 22.7898C14.9504 22.9656 15.1889 23.0644 15.4375 23.0644H28.5625C28.8111 23.0644 29.0496 22.9656 29.2254 22.7898C29.4012 22.614 29.5 22.3755 29.5 22.1268C29.5 21.8781 29.4012 21.6396 29.2254 21.4638C29.0496 21.288 28.8111 21.1892 28.5625 21.1892H15.4375ZM15.4375 25.8773C15.1889 25.8773 14.9504 25.9761 14.7746 26.1519C14.5988 26.3278 14.5 26.5663 14.5 26.8149C14.5 27.0636 14.5988 27.3021 14.7746 27.478C14.9504 27.6538 15.1889 27.7526 15.4375 27.7526H22.9375C23.1861 27.7526 23.4246 27.6538 23.6004 27.478C23.7762 27.3021 23.875 27.0636 23.875 26.8149C23.875 26.5663 23.7762 26.3278 23.6004 26.1519C23.4246 25.9761 23.1861 25.8773 22.9375 25.8773H15.4375Z" fill="#93278F"/>
</svg>
