<svg width="45" height="45" viewBox="0 0 45 45" fill="none" xmlns="http://www.w3.org/2000/svg">
<path d="M22.5 45C34.9264 45 45 34.9264 45 22.5C45 10.0736 34.9264 0 22.5 0C10.0736 0 0 10.0736 0 22.5C0 34.9264 10.0736 45 22.5 45Z" fill="white"/>
<path d="M20.0365 10.7573L34.2428 24.9636C34.5712 25.292 34.7355 25.7026 34.7355 26.1953V30.876C34.7355 31.2865 34.5712 31.7792 34.2428 32.1077L32.0256 34.2428C31.3687 34.8997 30.3011 34.8997 29.6442 34.2428L25.292 29.8906C24.6351 29.2336 24.6351 28.1661 25.292 27.5092L26.0311 26.7701C26.688 26.1132 26.688 25.0457 26.0311 24.3887L20.6114 18.969C19.9544 18.3121 18.8869 18.3121 18.23 18.969L17.4909 19.7081C16.834 20.365 15.7665 20.365 15.1095 19.7081L10.7573 15.3559C10.1004 14.699 10.1004 13.6314 10.7573 12.9745L12.9745 10.7573C13.303 10.4289 13.7136 10.2646 14.2063 10.2646H18.8869C19.2975 10.2646 19.7081 10.4289 20.0365 10.7573Z" fill="#93278F"/>
</svg>
