<svg width="45" height="45" viewBox="0 0 45 45" fill="none" xmlns="http://www.w3.org/2000/svg">
<path d="M22.5 45C34.9264 45 45 34.9264 45 22.5C45 10.0736 34.9264 0 22.5 0C10.0736 0 0 10.0736 0 22.5C0 34.9264 10.0736 45 22.5 45Z" fill="white"/>
<path d="M25.3741 23.7318L35.6387 13.4672C35.3102 12.9745 34.7354 12.564 34.0785 12.564H10.9215C10.2646 12.564 9.6898 12.8924 9.36133 13.4672L19.708 23.7318C21.1861 25.2921 23.8139 25.2921 25.3741 23.7318Z" fill="#93278F"/>
<path d="M26.6881 25.1278C25.5384 26.2775 24.0603 26.8523 22.5001 26.8523C20.9399 26.8523 19.4618 26.1953 18.3122 25.1278L9.03296 15.8486V30.6297C9.03296 31.6972 9.85413 32.5183 10.9216 32.5183H34.0786C35.1461 32.5183 35.9673 31.6972 35.9673 30.6297V15.8486L26.6881 25.1278Z" fill="#93278F"/>
</svg>
