<svg width="465" height="500" viewBox="0 0 465 500" fill="none" xmlns="http://www.w3.org/2000/svg">
<path d="M409.511 432.945C400.042 443.124 391.115 449.65 384.052 454.779C300.922 515.54 202.5 497.824 181.543 493.473C150.65 487.102 90.961 474.747 47.8046 423.077C-17.4733 344.911 -7.30519 221.678 43.3027 140.404C52.5394 125.563 101.517 42.9681 200.948 29.7591C261.18 21.756 331.348 37.9176 382.112 81.2743C488.838 172.261 481.232 356.099 409.511 432.945Z" fill="url(#paint0_linear_77_178)"/>
<path d="M245.346 432.945C335.669 432.945 408.89 358.395 408.89 266.434C408.89 174.472 335.669 99.9223 245.346 99.9223C155.023 99.9223 81.802 174.472 81.802 266.434C81.802 358.395 155.023 432.945 245.346 432.945Z" fill="white"/>
<path d="M245.346 408.547C322.423 408.547 384.906 344.921 384.906 266.434C384.906 187.946 322.423 124.32 245.346 124.32C168.269 124.32 105.786 187.946 105.786 266.434C105.786 344.921 168.269 408.547 245.346 408.547Z" fill="url(#paint1_linear_77_178)"/>
<path d="M245.346 411.5C207.313 411.5 171.53 396.426 144.596 368.998C117.662 341.57 102.837 305.128 102.837 266.356C102.837 227.584 117.662 191.142 144.596 163.714C171.53 136.286 207.313 121.212 245.346 121.212C283.38 121.212 319.162 136.286 346.096 163.714C373.03 191.142 387.856 227.584 387.856 266.356C387.856 305.128 373.03 341.57 346.096 368.998C319.162 396.426 283.38 411.5 245.346 411.5ZM245.346 127.273C170.055 127.273 108.736 189.666 108.736 266.356C108.736 343.046 169.978 405.439 245.346 405.439C320.715 405.439 381.956 343.046 381.956 266.356C381.956 189.666 320.637 127.273 245.346 127.273Z" fill="#BDD0FB"/>
<path d="M245.346 353.069C292.329 353.069 330.417 314.281 330.417 266.434C330.417 218.586 292.329 179.798 245.346 179.798C198.363 179.798 160.275 218.586 160.275 266.434C160.275 314.281 198.363 353.069 245.346 353.069Z" fill="url(#paint2_linear_77_178)"/>
<path d="M245.346 356.022C196.834 356.022 157.326 315.773 157.326 266.356C157.326 216.939 196.834 176.69 245.346 176.69C293.858 176.69 333.367 216.939 333.367 266.356C333.367 315.773 293.858 356.022 245.346 356.022ZM245.346 182.751C200.094 182.751 163.225 220.28 163.225 266.356C163.225 312.432 200.094 349.961 245.346 349.961C290.598 349.961 327.468 312.432 327.468 266.356C327.468 220.28 290.598 182.751 245.346 182.751Z" fill="#BDD0FB"/>
<path d="M245.346 300C263.565 300 278.334 284.972 278.334 266.434C278.334 247.895 263.565 232.867 245.346 232.867C227.127 232.867 212.358 247.895 212.358 266.434C212.358 284.972 227.127 300 245.346 300Z" fill="url(#paint3_linear_77_178)"/>
<path d="M245.346 302.953C225.553 302.953 209.408 286.558 209.408 266.356C209.408 246.154 225.553 229.759 245.346 229.759C265.139 229.759 281.284 246.154 281.284 266.356C281.206 286.558 265.139 302.953 245.346 302.953ZM245.346 235.82C228.813 235.82 215.308 249.495 215.308 266.356C215.308 283.217 228.736 296.892 245.346 296.892C261.957 296.892 275.385 283.217 275.385 266.356C275.307 249.573 261.879 235.82 245.346 235.82Z" fill="#BDD0FB"/>
<path d="M284.854 452.059L376.29 276.923H357.584C354.168 276.923 352.228 272.883 354.401 270.241L451.814 151.515C456.005 146.387 464.388 149.65 464 156.255L457.169 272.339C456.781 279.021 450.882 283.916 444.285 283.217L431.245 281.741L340.43 478.166C338.101 483.295 332.978 486.558 327.312 486.558H295.876L284.854 452.059Z" fill="url(#paint4_linear_77_178)"/>
<path d="M209.253 329.215L273.755 472.572C277.558 481.041 286.019 486.558 295.333 486.558H328.632C333.056 486.558 337.092 484.149 339.266 480.342L340.43 478.244C336.859 478.244 333.599 476.224 331.969 473.038L245.967 304.507L209.253 329.215Z" fill="url(#paint5_linear_77_178)"/>
<path d="M254.66 321.523C248.218 316.395 238.748 317.949 234.169 324.786L139.318 467.288C131.711 478.71 118.904 485.548 105.165 485.548H91.8147L80.948 454.235C80.948 454.235 169.124 318.959 191.866 298.524C191.866 298.524 214.531 278.089 236.808 293.551C242.707 297.591 247.209 303.419 249.926 310.101L254.66 321.523Z" fill="url(#paint6_linear_77_178)"/>
<path d="M1.85381 357.809C0.767134 356.566 -3.3467 350.039 24.2082 347.242C24.3634 347.242 24.5963 347.242 24.7515 347.319C26.8473 348.252 41.3621 356.177 68.2184 404.351C96.0062 454.079 114.868 478.011 136.213 468.92C137.145 468.531 138.076 469.542 137.533 470.396C131.323 480.653 120.223 486.946 108.192 486.946H95.6181C81.8018 486.946 68.8394 480.342 60.767 469.075C38.1797 437.762 16.2134 363.636 2.2419 358.12C2.08666 358.042 1.93143 357.964 1.85381 357.809Z" fill="url(#paint7_linear_77_178)"/>
<path opacity="0.72" d="M452.978 193.007H452.9C452.435 192.929 452.047 192.463 452.124 191.997L452.745 186.325C452.823 185.859 453.211 185.47 453.754 185.548C454.22 185.625 454.608 186.092 454.53 186.558L453.909 192.23C453.754 192.618 453.444 193.007 452.978 193.007Z" fill="white"/>
<path opacity="0.72" d="M371.633 264.569C371.478 264.569 371.245 264.491 371.089 264.413C370.701 264.103 370.624 263.559 370.934 263.17L451.348 158.664C452.279 157.42 453.909 157.032 455.307 157.576C456.704 158.197 457.558 159.518 457.325 161.072L455.928 173.582C455.85 174.048 455.462 174.437 454.918 174.359C454.453 174.281 454.065 173.815 454.142 173.349L455.539 160.839C455.617 159.984 455.074 159.441 454.608 159.207C454.065 158.974 453.288 158.974 452.745 159.674L372.331 264.18C372.176 264.413 371.866 264.569 371.633 264.569Z" fill="white"/>
<path opacity="0.72" d="M189.15 374.126C188.994 374.126 188.839 374.048 188.684 373.97C188.296 373.66 188.141 373.116 188.451 372.727L230.055 311.033C231.53 308.858 234.014 307.615 236.653 307.848C239.292 308.081 241.543 309.635 242.707 312.044C242.94 312.51 242.707 313.054 242.319 313.287C241.853 313.52 241.31 313.287 241.155 312.898C240.301 311.111 238.593 309.868 236.575 309.712C234.557 309.557 232.694 310.49 231.53 312.121L189.848 373.737C189.693 373.97 189.382 374.126 189.15 374.126Z" fill="white"/>
<path opacity="0.72" d="M178.283 390.132C178.127 390.132 177.972 390.054 177.817 389.977C177.429 389.666 177.274 389.122 177.584 388.734L180.223 384.771C180.534 384.382 181.077 384.227 181.465 384.538C181.853 384.849 182.008 385.392 181.698 385.781L179.059 389.744C178.904 390.054 178.593 390.132 178.283 390.132Z" fill="white"/>
<path d="M418.903 379.565C439.909 379.565 456.937 362.206 456.937 340.793C456.937 319.379 439.909 302.02 418.903 302.02C397.898 302.02 380.87 319.379 380.87 340.793C380.87 362.206 397.898 379.565 418.903 379.565Z" fill="#91B3FA"/>
<path d="M418.826 332.012C419.757 333.178 426.976 337.529 418.826 344.6C418.438 345.377 419.524 347.319 420.3 347.086C432.099 338.85 420.999 328.671 419.835 329.604C418.593 330.614 417.661 330.692 418.826 332.012Z" fill="white"/>
<path d="M423.716 352.059C423.871 353.613 424.958 355.012 426.199 354.623C427.519 354.235 444.285 339.549 425.346 323.31C425.113 323.077 424.802 322.999 424.492 323.077C424.181 323.077 423.871 323.232 423.716 323.465C423.095 324.242 422.707 324.864 422.784 325.641C439.472 340.482 423.483 350.505 423.716 352.059Z" fill="white"/>
<path d="M428.683 359.674C428.451 360.761 429.304 363.015 431.012 362.393C458.489 336.674 429.692 313.753 428.528 314.53C427.364 315.385 427.286 317.094 427.752 317.793C453.599 338.306 428.916 358.586 428.683 359.674Z" fill="white"/>
<path d="M412.228 319.037C411.995 318.959 411.762 319.037 411.607 319.192L402.06 329.138C401.982 329.215 401.827 329.293 401.672 329.293L393.755 329.681C392.978 329.759 392.357 330.381 392.28 331.158L391.271 345.688C391.193 346.542 391.814 347.242 392.668 347.319L401.672 348.329C401.827 348.329 401.905 348.407 401.982 348.485L411.529 357.809C411.685 357.964 411.918 358.042 412.15 357.964C412.383 357.887 412.461 357.653 412.461 357.42V319.58C412.538 319.347 412.383 319.114 412.228 319.037Z" fill="white"/>
<path d="M397.791 252.448H331.659C326.614 252.448 322.5 248.252 322.5 243.124V175.524C322.5 170.629 326.148 166.589 330.96 166.2L401.439 160.373C407.027 159.907 411.684 164.569 411.296 170.241L406.95 243.59C406.717 248.563 402.681 252.448 397.791 252.448Z" fill="#91B3FA"/>
<path d="M330.417 234.732H394.375C396.394 234.732 397.636 232.556 396.626 230.769L371.323 186.946C370.236 185.082 367.597 185.237 366.743 187.179L354.557 214.452C353.858 216.084 351.762 216.472 350.443 215.307L345.475 210.723C344.311 209.635 342.526 209.868 341.594 211.189L328.321 230.692C327.157 232.323 328.399 234.732 330.417 234.732Z" fill="white"/>
<path d="M387.157 194.406C391.915 194.406 395.773 190.475 395.773 185.625C395.773 180.776 391.915 176.845 387.157 176.845C382.398 176.845 378.541 180.776 378.541 185.625C378.541 190.475 382.398 194.406 387.157 194.406Z" fill="white"/>
<path d="M439.239 135.276L372.564 134.188C367.752 134.11 364.026 129.992 364.337 125.097L368.761 54.3124C368.994 50.2719 372.021 46.9308 376.057 46.3869L434.194 41.6472C439.783 40.8702 451.503 48.0186 450.572 53.613L447.7 128.05C447.001 132.323 443.353 135.354 439.239 135.276Z" fill="#91B3FA"/>
<g opacity="0.9">
<path opacity="0.9" d="M409.356 115.851C394.919 115.851 383.121 103.885 383.121 89.122C383.121 74.359 394.919 62.3932 409.356 62.3932C423.793 62.3932 435.591 74.359 435.591 89.122C435.514 103.885 423.793 115.851 409.356 115.851ZM409.356 66.8998C397.325 66.8998 387.545 76.8454 387.545 89.122C387.545 101.399 397.325 111.344 409.356 111.344C421.387 111.344 431.167 101.399 431.167 89.122C431.167 76.9231 421.387 66.8998 409.356 66.8998Z" fill="white"/>
<path opacity="0.9" fill-rule="evenodd" clip-rule="evenodd" d="M401.128 99.4561V80.2642C401.128 78.244 403.302 76.9231 405.087 78.0109L420.999 87.6457C422.707 88.6558 422.707 91.1422 420.999 92.23L405.087 101.865C403.302 102.72 401.128 101.476 401.128 99.4561Z" fill="white"/>
</g>
<path d="M342.681 94.3279C368.273 94.3279 389.02 73.2119 389.02 47.1639C389.02 21.116 368.273 0 342.681 0C317.089 0 296.342 21.116 296.342 47.1639C296.342 73.2119 317.089 94.3279 342.681 94.3279Z" fill="#7D97F4"/>
<path d="M364.57 28.2828C358.67 22.3776 349.511 24.1647 343.224 29.6037C342.293 30.3807 340.973 30.3807 340.119 29.6037C333.755 24.3201 324.518 22.6884 318.774 28.6713C312.487 35.1981 312.565 45.6099 319.007 51.9814L340.352 73.3489C341.361 74.359 342.914 74.2813 343.845 73.3489L364.88 51.5929C371.012 45.1437 370.934 34.6542 364.57 28.2828Z" fill="white"/>
<path d="M159.344 486.402C153.445 486.946 143.199 487.801 135.049 488.112C130.159 488.345 127.365 487.879 125.812 487.179C125.812 487.335 125.812 487.568 125.812 487.723C125.812 488.578 126.511 489.277 127.365 489.355C142.656 490.21 154.842 489.666 159.111 489.355C160.042 489.277 160.508 488.345 160.12 487.568C159.965 487.179 159.654 486.791 159.344 486.402Z" fill="url(#paint8_linear_77_178)"/>
<path d="M135.049 488.112C143.121 487.723 153.367 486.869 159.344 486.402C153.522 479.176 135.049 474.281 135.049 474.281H129.848C126.278 479.565 125.735 484.538 125.812 487.257C127.442 487.879 130.236 488.345 135.049 488.112Z" fill="url(#paint9_linear_77_178)"/>
<path d="M128.995 465.579L129.46 475.369C129.538 476.457 130.314 477.312 131.323 477.467C132.332 477.622 133.729 477.622 135.204 477.156C136.136 476.845 136.757 476.068 136.989 475.136L138.697 465.579H128.995Z" fill="url(#paint10_linear_77_178)"/>
<path d="M68.529 497.747C65.9676 497.28 64.8033 495.493 64.3375 493.629C64.3375 493.629 64.3375 493.629 64.3375 493.706C63.9494 495.649 64.8033 497.747 66.5885 498.679C68.6842 499.845 71.0128 500.078 72.7981 499.922C74.7385 499.845 76.5238 498.757 77.4552 497.125C75.5147 498.368 72.7981 498.524 68.529 497.747Z" fill="url(#paint11_linear_77_178)"/>
<path d="M80.6377 468.609H76.291C69.771 468.454 65.6572 486.636 64.26 493.629C64.7257 495.493 65.89 497.28 68.4515 497.747C72.7205 498.524 75.4372 498.368 77.3777 497.125C80.9482 490.987 82.6558 482.051 83.5096 476.768C84.5187 470.862 80.6377 468.609 80.6377 468.609Z" fill="url(#paint12_linear_77_178)"/>
<path d="M76.8342 459.518L74.4279 469.153C74.1175 470.319 74.6608 471.562 75.7475 472.106C77.067 472.805 78.9299 473.504 80.7151 473.349C81.4913 473.271 82.1899 472.65 82.5004 471.873L85.9932 461.694L76.8342 459.518Z" fill="url(#paint13_linear_77_178)"/>
<path d="M160.819 332.246C160.819 332.246 139.473 467.988 139.861 468.687C139.861 468.687 133.962 471.406 127.52 468.998C127.52 468.998 129.46 396.426 133.962 368.609C133.962 368.609 97.5587 433.489 85.9934 465.812C85.9934 465.812 79.9391 465.113 74.9714 461.772C74.9714 461.772 114.169 345.066 124.57 329.526L160.819 332.246Z" fill="url(#paint14_linear_77_178)"/>
<path d="M134.816 367.988C134.738 367.988 134.583 367.988 134.506 367.91C134.195 367.754 134.117 367.288 134.273 367.055L142.267 354.079C142.345 353.924 142.5 353.846 142.656 353.768L148.555 352.603C148.865 352.525 149.253 352.758 149.331 353.069C149.408 353.38 149.176 353.768 148.865 353.846L143.277 355.012L135.437 367.754C135.204 367.832 135.049 367.988 134.816 367.988Z" fill="url(#paint15_linear_77_178)"/>
<path d="M258.619 199.301C258.619 199.301 244.26 202.564 235.489 206.682C233.781 207.537 232.384 208.936 231.608 210.723C228.969 216.55 221.129 231.235 205.993 238.151C208.167 241.103 211.737 247.242 213.212 257.576C222.371 250.66 230.21 239.083 234.014 220.202C234.014 220.202 236.886 221.834 240.456 220.047C242.319 219.114 244.57 217.793 246.2 216.706C247.83 215.695 249.072 214.064 249.538 212.121C250.159 209.635 249.771 207.459 249.771 205.051L257.144 202.72C257.144 202.72 259.395 201.865 258.619 199.301Z" fill="url(#paint16_linear_77_178)"/>
<path d="M213.212 257.576C211.659 247.242 208.166 241.103 205.993 238.151C196.524 242.502 184.26 243.901 168.658 238.384C167.183 237.84 165.709 237.607 164.156 237.451C155.851 236.985 128.451 236.053 105.709 243.667C100.896 245.299 97.093 248.873 95.0749 253.535C88.943 267.91 79.0077 300.544 106.563 317.016C108.658 311.655 111.142 307.381 113.238 304.196C108.814 296.581 107.494 286.169 115.334 272.572C121.077 288.345 123.794 311.422 124.337 321.601C124.493 324.942 123.949 328.283 122.63 331.391L122.475 331.702C122.164 332.401 122.552 333.1 123.251 333.256C138.775 336.83 154.92 335.82 159.732 335.431C160.586 335.354 161.284 334.732 161.517 333.877C169.046 301.476 169.046 279.409 167.261 265.423C174.402 267.133 196.058 270.552 213.212 257.576Z" fill="url(#paint17_linear_77_178)"/>
<path opacity="0.5" d="M167.416 266.434C167.106 266.434 166.873 266.2 166.795 265.89C165.01 252.214 161.439 246.309 161.362 246.232C161.207 245.921 161.284 245.532 161.595 245.377C161.905 245.221 162.293 245.299 162.448 245.61C162.604 245.843 166.252 251.826 168.037 265.812C168.115 266.2 167.804 266.511 167.494 266.511C167.494 266.434 167.416 266.434 167.416 266.434Z" fill="url(#paint18_linear_77_178)"/>
<path d="M129.072 218.57C129.072 218.57 127.52 235.509 126.123 240.482C125.89 241.259 126.2 242.036 126.899 242.424C129.227 243.823 134.894 245.998 142.578 242.191C143.82 241.57 144.596 240.249 144.518 238.85L143.82 222.533L129.072 218.57Z" fill="url(#paint19_linear_77_178)"/>
<path d="M144.208 196.97C144.208 196.97 149.253 208.702 149.564 214.918C149.874 221.057 151.194 225.097 144.208 226.34C137.222 227.584 131.323 224.009 128.141 217.871C128.141 217.871 123.096 208.392 124.26 204.507C125.347 200.622 144.208 196.97 144.208 196.97Z" fill="url(#paint20_linear_77_178)"/>
<path d="M130.469 213.364L130.858 213.209C131.401 212.976 131.556 212.354 131.323 211.888C130.314 209.946 128.374 205.517 130.935 204.429C134.118 203.108 146.847 200.466 149.564 195.882C152.203 191.453 149.874 185.781 146.381 184.149C146.149 184.071 145.838 184.149 145.76 184.382L145.45 184.926C145.217 185.315 144.674 185.237 144.596 184.848C144.519 184.46 143.975 184.382 143.742 184.693C142.889 186.092 140.638 188.267 134.583 189.433C125.967 191.064 120.224 194.639 120.068 200.699C120.068 201.088 119.68 201.321 119.37 201.088C118.749 200.699 117.74 200.544 116.343 201.709C113.936 203.73 114.946 209.013 120.146 213.364C120.379 213.598 120.379 213.986 120.146 214.141C119.215 214.763 117.817 216.239 121.466 218.26C125.269 220.28 128.063 220.124 129.15 219.969C129.383 219.891 129.616 219.658 129.538 219.425L128.374 214.064C128.296 213.753 128.529 213.442 128.839 213.442H130.469V213.364Z" fill="url(#paint21_linear_77_178)"/>
<path d="M130.702 214.53C130.702 214.53 128.762 206.993 125.502 209.091C122.164 211.189 127.209 217.483 129.848 217.793L130.702 214.53Z" fill="url(#paint22_linear_77_178)"/>
<path d="M237.817 218.415C237.662 218.415 237.506 218.337 237.429 218.26C237.196 218.026 237.118 217.638 237.351 217.327C237.895 216.628 242.707 210.645 244.57 209.557C245.268 209.169 245.656 208.78 245.734 208.392C245.812 208.236 245.734 208.003 245.657 207.77L239.99 208.935L236.808 211.733C236.575 211.966 236.109 211.966 235.954 211.655C235.721 211.422 235.721 210.956 236.032 210.723L239.369 207.77C239.447 207.692 239.525 207.615 239.68 207.615L245.967 206.371C246.2 206.294 246.433 206.449 246.588 206.604C247.054 207.304 247.209 207.925 247.054 208.547C246.898 209.324 246.277 209.946 245.268 210.567C243.871 211.344 239.835 216.239 238.36 218.026C238.205 218.337 237.972 218.415 237.817 218.415Z" fill="#F8A570"/>
<path d="M130.469 325.175L152.668 325.486L144.907 318.026C142.966 316.162 140.016 315.851 137.766 317.327C136.446 318.182 135.049 319.347 133.807 320.901C133.807 320.901 119.991 315.773 113.238 304.196C111.142 307.382 108.736 311.655 106.562 317.016C112.617 320.591 120.456 323.465 130.469 325.175Z" fill="url(#paint23_linear_77_178)"/>
<path d="M132.875 328.05C132.953 328.05 132.953 328.05 133.031 328.05L189.382 327.972C190.78 327.972 191.866 326.807 191.866 325.408C191.866 324.009 190.702 322.844 189.305 322.844L132.953 322.922C131.556 322.922 130.469 324.087 130.469 325.486C130.469 326.884 131.556 327.972 132.875 328.05Z" fill="url(#paint24_linear_77_178)"/>
<path d="M240.068 276.535H193.108C189.615 276.535 186.51 278.555 185.036 281.74L163.302 328.127H221.672C223.923 328.127 225.941 326.729 226.717 324.631L243.561 281.74C244.492 279.176 242.707 276.535 240.068 276.535Z" fill="url(#paint25_linear_77_178)"/>
<path d="M214.027 302.511C215.038 299.32 214.268 296.229 212.307 295.606C210.345 294.983 207.935 297.064 206.924 300.255C205.913 303.446 206.683 306.537 208.645 307.16C210.606 307.783 213.016 305.701 214.027 302.511Z" fill="#91B3FA"/>
<defs>
<linearGradient id="paint0_linear_77_178" x1="2.04431" y1="263.534" x2="462.924" y2="263.534" gradientUnits="userSpaceOnUse">
<stop offset="0.5615" stop-color="#3D1387"/>
<stop offset="0.9218" stop-color="#22056D"/>
</linearGradient>
<linearGradient id="paint1_linear_77_178" x1="368.248" y1="103.037" x2="50.1313" y2="524.95" gradientUnits="userSpaceOnUse">
<stop offset="0.00505051" stop-color="#B4F759"/>
<stop offset="0.0493414" stop-color="#90ED6F"/>
<stop offset="0.1471" stop-color="#35D5A5"/>
<stop offset="0.202" stop-color="#00C7C5"/>
<stop offset="0.408" stop-color="#2D9BE0"/>
<stop offset="0.596" stop-color="#5277F7"/>
<stop offset="0.6617" stop-color="#5B76F7"/>
<stop offset="0.7684" stop-color="#7374F6"/>
<stop offset="0.902" stop-color="#9A70F4"/>
<stop offset="1" stop-color="#BB6DF3"/>
</linearGradient>
<linearGradient id="paint2_linear_77_178" x1="368.248" y1="103.037" x2="50.1317" y2="524.95" gradientUnits="userSpaceOnUse">
<stop stop-color="#4F52FF"/>
<stop offset="1" stop-color="#4042E2"/>
</linearGradient>
<linearGradient id="paint3_linear_77_178" x1="368.248" y1="103.037" x2="50.132" y2="524.949" gradientUnits="userSpaceOnUse">
<stop stop-color="#4F52FF"/>
<stop offset="1" stop-color="#4042E2"/>
</linearGradient>
<linearGradient id="paint4_linear_77_178" x1="494.905" y1="166.442" x2="324.682" y2="405.944" gradientUnits="userSpaceOnUse">
<stop stop-color="#FF928E"/>
<stop offset="1" stop-color="#FE7062"/>
</linearGradient>
<linearGradient id="paint5_linear_77_178" x1="353.136" y1="551.619" x2="277.55" y2="419.78" gradientUnits="userSpaceOnUse">
<stop stop-color="#FF928E"/>
<stop offset="1" stop-color="#FE7062"/>
</linearGradient>
<linearGradient id="paint6_linear_77_178" x1="220.209" y1="311.91" x2="114.889" y2="458.966" gradientUnits="userSpaceOnUse">
<stop stop-color="#FF928E"/>
<stop offset="1" stop-color="#FE7062"/>
</linearGradient>
<linearGradient id="paint7_linear_77_178" x1="69.7911" y1="394.671" x2="73.4061" y2="262.256" gradientUnits="userSpaceOnUse">
<stop stop-color="#FF928E"/>
<stop offset="0.4046" stop-color="#FF847C"/>
<stop offset="1" stop-color="#FE7062"/>
</linearGradient>
<linearGradient id="paint8_linear_77_178" x1="125.813" y1="488.11" x2="160.322" y2="488.11" gradientUnits="userSpaceOnUse">
<stop stop-color="#4F52FF"/>
<stop offset="1" stop-color="#4042E2"/>
</linearGradient>
<linearGradient id="paint9_linear_77_178" x1="125.811" y1="481.222" x2="159.348" y2="481.222" gradientUnits="userSpaceOnUse">
<stop stop-color="#09005D"/>
<stop offset="1" stop-color="#1A0F91"/>
</linearGradient>
<linearGradient id="paint10_linear_77_178" x1="128.999" y1="471.607" x2="138.72" y2="471.607" gradientUnits="userSpaceOnUse">
<stop stop-color="#FEBBBA"/>
<stop offset="1" stop-color="#FF928E"/>
</linearGradient>
<linearGradient id="paint11_linear_77_178" x1="64.2196" y1="496.824" x2="77.444" y2="496.824" gradientUnits="userSpaceOnUse">
<stop stop-color="#4F52FF"/>
<stop offset="1" stop-color="#4042E2"/>
</linearGradient>
<linearGradient id="paint12_linear_77_178" x1="64.3159" y1="483.422" x2="83.7267" y2="483.422" gradientUnits="userSpaceOnUse">
<stop stop-color="#09005D"/>
<stop offset="1" stop-color="#1A0F91"/>
</linearGradient>
<linearGradient id="paint13_linear_77_178" x1="74.4051" y1="466.445" x2="86.022" y2="466.445" gradientUnits="userSpaceOnUse">
<stop stop-color="#FEBBBA"/>
<stop offset="1" stop-color="#FF928E"/>
</linearGradient>
<linearGradient id="paint14_linear_77_178" x1="168.867" y1="339.001" x2="68.3156" y2="503.543" gradientUnits="userSpaceOnUse">
<stop stop-color="#09005D"/>
<stop offset="1" stop-color="#1A0F91"/>
</linearGradient>
<linearGradient id="paint15_linear_77_178" x1="132.998" y1="277.53" x2="137.424" y2="319.333" gradientUnits="userSpaceOnUse">
<stop stop-color="#09005D"/>
<stop offset="1" stop-color="#1A0F91"/>
</linearGradient>
<linearGradient id="paint16_linear_77_178" x1="234.171" y1="217.332" x2="187.607" y2="277.848" gradientUnits="userSpaceOnUse">
<stop stop-color="#FEBBBA"/>
<stop offset="1" stop-color="#FF928E"/>
</linearGradient>
<linearGradient id="paint17_linear_77_178" x1="330.09" y1="-46.491" x2="263.039" y2="68.3347" gradientUnits="userSpaceOnUse">
<stop stop-color="#E1473D"/>
<stop offset="1" stop-color="#A331A4"/>
</linearGradient>
<linearGradient id="paint18_linear_77_178" x1="216.888" y1="128.712" x2="158.056" y2="271.57" gradientUnits="userSpaceOnUse">
<stop stop-color="#00B0D0"/>
<stop offset="1" stop-color="#E1473D"/>
</linearGradient>
<linearGradient id="paint19_linear_77_178" x1="131.55" y1="256.643" x2="136.682" y2="229.726" gradientUnits="userSpaceOnUse">
<stop stop-color="#FEBBBA"/>
<stop offset="1" stop-color="#FF928E"/>
</linearGradient>
<linearGradient id="paint20_linear_77_178" x1="145.355" y1="207.322" x2="116.34" y2="229.5" gradientUnits="userSpaceOnUse">
<stop stop-color="#FEBBBA"/>
<stop offset="1" stop-color="#FF928E"/>
</linearGradient>
<linearGradient id="paint21_linear_77_178" x1="124.954" y1="189.658" x2="152.133" y2="224.615" gradientUnits="userSpaceOnUse">
<stop stop-color="#09005D"/>
<stop offset="1" stop-color="#1A0F91"/>
</linearGradient>
<linearGradient id="paint22_linear_77_178" x1="141.838" y1="202.62" x2="112.814" y2="224.805" gradientUnits="userSpaceOnUse">
<stop stop-color="#FEBBBA"/>
<stop offset="1" stop-color="#FF928E"/>
</linearGradient>
<linearGradient id="paint23_linear_77_178" x1="134.244" y1="307.008" x2="164.109" y2="214.793" gradientUnits="userSpaceOnUse">
<stop stop-color="#FEBBBA"/>
<stop offset="1" stop-color="#FF928E"/>
</linearGradient>
<linearGradient id="paint24_linear_77_178" x1="123.297" y1="313.053" x2="168.055" y2="327.717" gradientUnits="userSpaceOnUse">
<stop stop-color="#09005D"/>
<stop offset="1" stop-color="#1A0F91"/>
</linearGradient>
<linearGradient id="paint25_linear_77_178" x1="184.694" y1="283.46" x2="217.073" y2="317.647" gradientUnits="userSpaceOnUse">
<stop stop-color="#09005D"/>
<stop offset="1" stop-color="#1A0F91"/>
</linearGradient>
</defs>
</svg>
