<svg width="35" height="36" viewBox="0 0 35 36" fill="none" xmlns="http://www.w3.org/2000/svg">
<path fill-rule="evenodd" clip-rule="evenodd" d="M10.2363 0.687508C12.0935 0.602008 12.6857 0.583008 17.4167 0.583008C22.1477 0.583008 22.7398 0.603591 24.5955 0.687508C26.4512 0.771424 27.7178 1.06751 28.8262 1.49659C29.9868 1.93517 31.0397 2.62076 31.9105 3.50742C32.7972 4.37667 33.4812 5.42801 33.9182 6.59018C34.3488 7.69851 34.6433 8.96518 34.7288 10.8177C34.8143 12.6781 34.8333 13.2703 34.8333 17.9997C34.8333 22.7307 34.8128 23.3228 34.7288 25.1801C34.6449 27.0326 34.3488 28.2993 33.9182 29.4076C33.4812 30.5699 32.796 31.623 31.9105 32.4935C31.0397 33.3802 29.9868 34.0642 28.8262 34.5012C27.7178 34.9318 26.4512 35.2263 24.5987 35.3118C22.7398 35.3973 22.1477 35.4163 17.4167 35.4163C12.6857 35.4163 12.0935 35.3958 10.2363 35.3118C8.38375 35.2279 7.11708 34.9318 6.00875 34.5012C4.84646 34.0641 3.79338 33.379 2.92283 32.4935C2.03677 31.6237 1.35108 30.5712 0.913583 29.4092C0.4845 28.3008 0.19 27.0342 0.1045 25.1817C0.019 23.3213 0 22.7291 0 17.9997C0 13.2687 0.0205833 12.6765 0.1045 10.8208C0.188417 8.96518 0.4845 7.69851 0.913583 6.59018C1.35173 5.42814 2.03794 4.37559 2.92442 3.50584C3.79373 2.61997 4.84575 1.93429 6.00717 1.49659C7.1155 1.06751 8.38217 0.773008 10.2347 0.687508H10.2363ZM24.4546 3.82251C22.6179 3.73859 22.0669 3.72117 17.4167 3.72117C12.7664 3.72117 12.2154 3.73859 10.3788 3.82251C8.67983 3.90009 7.75833 4.18351 7.144 4.42259C6.33175 4.73926 5.75067 5.11451 5.14108 5.72409C4.56324 6.28626 4.11854 6.97062 3.83958 7.72701C3.6005 8.34134 3.31708 9.26284 3.2395 10.9618C3.15558 12.7984 3.13817 13.3494 3.13817 17.9997C3.13817 22.6499 3.15558 23.2009 3.2395 25.0376C3.31708 26.7365 3.6005 27.658 3.83958 28.2723C4.11825 29.0276 4.56317 29.7132 5.14108 30.2753C5.70317 30.8532 6.38875 31.2981 7.144 31.5768C7.75833 31.8158 8.67983 32.0993 10.3788 32.1768C12.2154 32.2608 12.7648 32.2782 17.4167 32.2782C22.0685 32.2782 22.6179 32.2608 24.4546 32.1768C26.1535 32.0993 27.075 31.8158 27.6893 31.5768C28.5016 31.2601 29.0827 30.8848 29.6923 30.2753C30.2702 29.7132 30.7151 29.0276 30.9938 28.2723C31.2328 27.658 31.5163 26.7365 31.5938 25.0376C31.6778 23.2009 31.6952 22.6499 31.6952 17.9997C31.6952 13.3494 31.6778 12.7984 31.5938 10.9618C31.5163 9.26284 31.2328 8.34134 30.9938 7.72701C30.6771 6.91476 30.3018 6.33368 29.6923 5.72409C29.1301 5.14629 28.4457 4.70159 27.6893 4.42259C27.075 4.18351 26.1535 3.90009 24.4546 3.82251ZM15.1921 23.3688C16.4345 23.8859 17.8179 23.9557 19.106 23.5662C20.3941 23.1767 21.507 22.3521 22.2547 21.2332C23.0024 20.1143 23.3384 18.7706 23.2054 17.4314C23.0724 16.0923 22.4786 14.8409 21.5254 13.8909C20.9178 13.2837 20.1831 12.8187 19.3742 12.5295C18.5653 12.2403 17.7023 12.134 16.8475 12.2183C15.9926 12.3026 15.167 12.5755 14.4302 13.0171C13.6934 13.4588 13.0637 14.0584 12.5864 14.7726C12.1091 15.4869 11.7961 16.298 11.67 17.1478C11.5438 17.9975 11.6077 18.8646 11.8569 19.6867C12.1061 20.5088 12.5344 21.2655 13.1111 21.9022C13.6879 22.5388 14.3986 23.0397 15.1921 23.3688ZM11.0865 11.6695C11.9178 10.8382 12.9047 10.1788 13.9908 9.72891C15.0769 9.27902 16.241 9.04747 17.4167 9.04747C18.5923 9.04747 19.7564 9.27902 20.8425 9.72891C21.9287 10.1788 22.9155 10.8382 23.7468 11.6695C24.5781 12.5008 25.2375 13.4877 25.6874 14.5738C26.1373 15.6599 26.3689 16.8241 26.3689 17.9997C26.3689 19.1753 26.1373 20.3394 25.6874 21.4255C25.2375 22.5117 24.5781 23.4986 23.7468 24.3298C22.068 26.0087 19.7909 26.9519 17.4167 26.9519C15.0424 26.9519 12.7654 26.0087 11.0865 24.3298C9.40764 22.651 8.46446 20.3739 8.46446 17.9997C8.46446 15.6254 9.40764 13.3484 11.0865 11.6695ZM28.3543 10.3807C28.5603 10.1864 28.7253 9.95267 28.8393 9.69347C28.9534 9.43427 29.0143 9.15481 29.0184 8.87165C29.0225 8.58849 28.9698 8.30738 28.8633 8.04496C28.7569 7.78254 28.5989 7.54415 28.3986 7.3439C28.1984 7.14366 27.96 6.98562 27.6976 6.87916C27.4351 6.7727 27.154 6.71997 26.8709 6.7241C26.5877 6.72823 26.3082 6.78913 26.049 6.90319C25.7898 7.01726 25.5562 7.18218 25.3618 7.38818C24.9839 7.78881 24.777 8.32095 24.785 8.87165C24.7931 9.42235 25.0154 9.94823 25.4048 10.3377C25.7943 10.7271 26.3202 10.9495 26.8709 10.9575C27.4216 10.9655 27.9537 10.7586 28.3543 10.3807Z" fill="#999999"/>
</svg>
