<svg id="Layer_1" data-name="Layer 1" xmlns="http://www.w3.org/2000/svg" viewBox="0 0 126.14 119.84"><defs><style>.cls-1{fill:#fff;}</style></defs><title>Logo_polygon</title><path class="cls-1" d="M60.1,52.19l.26-.25c.11.18.24.16.41.07,2.06-1.15,4.15-2.24,6.12-3.56.5-.35,1-1,1.76-.6.22.11.23.69.63.33s0-.53,0-.81a2.61,2.61,0,0,1,.11-.71h0a1.36,1.36,0,0,0,1-.13c1.72-.88,3.31-2,5-2.91s3.32-1.69,4.88-2.74c1.37-.93,2.8,0,4.18.27.14.26.43.22.65.31.64,1.09,1.83,1.59,2.77,2.24a5,5,0,0,0,3.07,1.2v0a.47.47,0,0,0,.19.55c2.08,1.19,4.11,2.5,6.26,3.54a5.72,5.72,0,0,1,3.54,5.43q0,7.11,0,14.21c-.86,0-1.79-.27-2.51.48a.47.47,0,0,0-.5.5c-.57,0-.77.46-.91.89a4.11,4.11,0,0,0-.1,2.89c-.58.67-.4,1.21.52,1.51l.27.38-.5.15c-.11,0-.25-.12-.31-.08-1.88,1.26-4.07,1.92-5.89,3.34-1.47,1.14-3.29,1.74-4.87,2.76a25.87,25.87,0,0,1-3.25,1.74,2,2,0,0,1-1.19.11c-1.33-.16-2.29-1.05-3.44-1.55-2-.88-3.72-2.27-5.7-3.16-1-.46-1.78-1.54-3.08-1.38v0c-.08-.19-.17-.37-.25-.56-.06-.75,1-.39,1-1h.23a.45.45,0,0,0,.52-.49c.9-.82.6-2.05,1-3l1.8-.26h0c.07.91,1,.89,1.48,1.29a.51.51,0,0,0,.26.5h0c0,.54.09,1,.76,1h0l.25.26h0c.26,1.15,1.28.76,2,1,.58,0,1.15.13,1.72.17,1.39.1,2.87.48,4.15-.21.63-.33,1.07-.56,1.69-.21,1.58,0,1.72-.2,1.51-2,.78-.1,1.21-.9,2-1,0,.54,0,1.08,0,1.62,0,.75.18,1.37,1,1.39s.93-.76,1-1.42,0-1.56,0-2.34a1.41,1.41,0,0,1,1.27-1,13.07,13.07,0,0,1,.49,4c0,.45.07.86.6,1a.79.79,0,0,0,1-.71c.12-1.79.71-3.65-.58-5.29V69.6c1-.77.3-1.84.5-2.76v-9a2.77,2.77,0,0,0-.27-1.58,1.45,1.45,0,0,0-1-1.7c-.56-.36-.69-1.23-1.51-1.29-.12-.6-.54-.72-1.07-.68h0a4.33,4.33,0,0,0-3.23-1.83h0a1.22,1.22,0,0,0-.75-1.08,29.68,29.68,0,0,0-3.5-1.79c-1.09-.32-2.56-.74-3.55.57a.51.51,0,0,1-.2,0l-.3.25h0a2.41,2.41,0,0,0-1.08.2c-2.7,1.25-5.12,3-7.72,4.4-.45.25-1.3.34-1.26,1.21h0c-.57,0-1.21-.11-1.27.75h0a2.44,2.44,0,0,0-2,1.08h0a8.89,8.89,0,0,0-4.84,2.85c-.41.14-.86.2-1.13.6-.25,0-.54-.05-.58.33h0a1.94,1.94,0,0,0-1.31.34c-2.38,1.33-4.75,2.67-7.1,4.07a6.61,6.61,0,0,1-1.86.59C48,65.47,46.8,64.57,45.8,64c-2.36-1.42-4.84-2.63-7.11-4.19a4.47,4.47,0,0,0-2.5-.92h0a1,1,0,0,0-1.29-.75h0c-.12-.64-.66-.82-1.15-1-2.55-1.1-4-2.81-3.87-5.81C30.08,46.19,30,41.1,30,36c0-1.2.05-2.42,1.15-3.27a.85.85,0,0,0,.27-.92h0a3.22,3.22,0,0,0,2.42-1c1.1-.88,2.64-1.13,3.43-2.44h0c.68.05,1.29,0,1.48-.83h0a1.54,1.54,0,0,0,1.77-1h0a2,2,0,0,0,2-1.22h0a2.92,2.92,0,0,0,1.83-.63,24.32,24.32,0,0,1,4.42-2.28l.32-.09c1.72.77,3.38,1.67,5,2.54,1,.52,1.61,1.93,3.06,1.4h0a8,8,0,0,0,4.19,2.37h0c1,1.39,2.58,1.87,4.07,2.47h0c0,.57.37.56.78.45h0a2.08,2.08,0,0,0,.26.54,5.75,5.75,0,0,1,1.68,4.34c0,1.25,0,2.5,0,3.74,0,.69-.06,1.19-.92,1.34a1.49,1.49,0,0,0-1.07,1.23h0c-.46-.07-.87,0-1,.53h0c-.24,0-.45,0-.49.29v0l-.3.24h0c-.23,0-.44,0-.52.27h0a6,6,0,0,0-.85.12c-.64.21-1,0-1-.68a21.1,21.1,0,0,1,.08-4.36c.33-1.49-.6-1.93-1.42-2.6v0c.16-.58-.27-.87-.62-1.12a25.29,25.29,0,0,0-2.34-1.44c-1.2-.65-2.68-.9-3.35-2.33a.34.34,0,0,0-.31-.09c-.76.33-1.2-.26-1.66-.61a5.1,5.1,0,0,0-6-.37c-2.07,1.16-4.24,2.15-6.22,3.44-.74.49-2,.57-2.15,1.78h0A3,3,0,0,0,36,38.6a35.32,35.32,0,0,1,.14,7.62,18.24,18.24,0,0,0,.07,3.84A3.5,3.5,0,0,0,39,52.76h0c.14.75.71.74,1.28.75h0a4.9,4.9,0,0,0,3.32,2h0c.23,1.08,1.39.92,2,1.49,1.4,1.3,3.08,1.28,4.82.94s2.79-1.94,4.52-2.26c.22,0,.14-.44.07-.68h0C57.05,54.63,58.47,53.2,60.1,52.19Z"/><path class="cls-1" d="M85.07,108.85a6.69,6.69,0,0,1-4.31,5.42,10,10,0,0,1-10.13-1c-.68-.48-.91-.94-.16-1.54a4.58,4.58,0,0,0,.42-.46c.44-.51.78-1.2,1.33-1.48.72-.38,1,.63,1.56.88a5.63,5.63,0,0,0,3.28.6c2.16-.38,4-1,3.28-4.31-2.41,2.07-5.12,2-7.88,1.06s-4.39-3.65-4.2-7a7.15,7.15,0,0,1,5.44-6.74,6.68,6.68,0,0,1,6.08,1c.42.31.85.69,1-.24.07-.4.46-.28.73-.28,1.09,0,2.18,0,3.26,0q0,6.41,0,12.8C84.79,108,84.61,108.5,85.07,108.85Zm-4.59-7.61c0-2.65-1-3.73-3.57-3.74S73,98.85,73,101.21A3.64,3.64,0,0,0,76.9,105C79.62,105.07,80.48,104.16,80.48,101.24Z"/><path class="cls-1" d="M13.66,113.62c.24.71.12,1.1-.76,1a21.18,21.18,0,0,0-2.76,0c-.7,0-.83-.23-.82-.86,0-6.19,0-12.38,0-18.57,0-.73.22-1,.93-.89.41,0,.83,0,1.25,0,1,0,2.41-.38,1.79,1.71,3.42-2.69,7.79-2.64,10.46,0,2.45,2.37,2.69,6.83.59,9.7a7.87,7.87,0,0,1-10.39,1.65c-.42.24,0,.71-.27,1A10.06,10.06,0,0,0,13.66,113.62Zm3.84-15.9c-2.49,0-3.58,1.06-3.57,3.49a12.51,12.51,0,0,1,0,1.5,2,2,0,0,0,1.48,2.17,5,5,0,0,0,2.32.37,3.58,3.58,0,0,0,3.48-4C21.12,99,19.79,97.73,17.5,97.72Z"/><path class="cls-1" d="M35.19,94c7.25,0,9,6.4,7.07,10.7a6.44,6.44,0,0,1-1.21,1.75c-2.6,2.71-8.2,3-11.24.54a7.7,7.7,0,0,1-1.35-9.81C30.06,94.79,32.46,94,35.19,94Zm3.36,7.18a3.59,3.59,0,0,0-3.43-3.73,3.82,3.82,0,0,0,0,7.6A3.63,3.63,0,0,0,38.55,101.18Z"/><path class="cls-1" d="M95.34,94c5.76,0,8.89,3.83,7.79,9.24a6.78,6.78,0,0,1-5.76,5.21,9.68,9.68,0,0,1-4.72-.23c-3.59-1.11-5.38-4.11-4.88-8.13a6.85,6.85,0,0,1,6.64-6Zm3.58,7.23a3.6,3.6,0,0,0-3.36-3.81,3.66,3.66,0,0,0-3.48,3.72A3.77,3.77,0,0,0,95.54,105,3.68,3.68,0,0,0,98.92,101.2Z"/><path class="cls-1" d="M109.93,108.15a5.88,5.88,0,0,1-2.29,0c-.08-.23-.16-.18-.25,0a.77.77,0,0,1-.71,0c-.1-.22-.2-.21-.3,0-.3,0-.3-.21-.3-.42L106.14,95l.26-.23a17,17,0,0,0,1.75-.06c1.33-.18,2.31,0,2,2.11,2-2.65,4.25-3.35,7-2.58a4.24,4.24,0,0,1,3.3,4.22c.06,3,0,6,0,8.92,0,.67-.2.89-.86.86-1,0-1.93,0-2.89,0-.71,0-.81-.28-.81-.89,0-2.35,0-4.69,0-7,0-1,0-2.15-1.19-2.51A2.86,2.86,0,0,0,111.6,99a5.21,5.21,0,0,0-1.19,3.36c0,1.76,0,3.51,0,5.27C110,107.59,109.92,107.83,109.93,108.15Z"/><path class="cls-1" d="M60.74,102.63c1.08-2.37,2.16-4.7,3.19-7.06a1.14,1.14,0,0,1,1.3-.85c1,.07,1.91,0,3,0l-3,6.84c-1.82,4.09-3.67,8.17-5.44,12.27a1.38,1.38,0,0,1-1.57,1c-1-.08-2.09,0-3.34,0,.83-1.77,1.5-3.52,2.44-5.11a3.93,3.93,0,0,0,0-4.37c-1.74-3.1-3.24-6.33-4.83-9.51a1.63,1.63,0,0,1-.33-1.11c1.41,0,2.82,0,4.24,0,.69,0,.82.42,1,.87.91,2.06,1.83,4.13,2.76,6.19C60.28,102.06,60.31,102.42,60.74,102.63Z"/><path class="cls-1" d="M45.67,95.9c0-3.73,0-7.45,0-11.18,0-.83.23-1.12,1.05-1,1.15.14,2.64-.5,3.36.26s.19,2.16.2,3.28c0,6.53,0,13.06,0,19.59,0,1-.13,1.49-1.26,1.34s-2.48.43-3.15-.22-.2-2.06-.21-3.13c0-3,0-5.95,0-8.92Z"/><path class="cls-1" d="M69.4,77.2c1.3-.16,2,.92,3.08,1.38,2,.89,3.69,2.28,5.7,3.16,1.15.5,2.11,1.39,3.44,1.55a2,2,0,0,0,1.19-.11,25.87,25.87,0,0,0,3.25-1.74c1.58-1,3.4-1.62,4.87-2.76,1.82-1.42,4-2.08,5.89-3.34.06,0,.2,0,.31.08-.39.67-1.13.84-1.72,1.19C91.66,78.8,87.9,81,84.14,83.12a4,4,0,0,1-4.06.29C76.46,81.45,72.84,79.48,69.4,77.2Z"/><path class="cls-1" d="M82,75.64a3.21,3.21,0,0,0,2.54-.85l1-.61,7.25-4,0,.68a1.41,1.41,0,0,0-1.27,1c-.3-.17-.51-.16-.51.26l-1,0a.8.8,0,0,0-.5.47c-.78.11-1.21.91-2,1-.1.12-.3.24-.3.36,0,1.21-.39,1.53-1.4.39l.19,1.26c-.62-.35-1.06-.12-1.69.21-1.28.69-2.76.31-4.15.21-.57,0-1.14-.14-1.72-.17.08-.22.48-.25.38-.55s-.34-.18-.53-.11c-.69.26-1.22-.31-1.85-.34h0l-.25-.26h0c-.2-.38-.31-.82-.76-1h0a.46.46,0,0,0-.26-.5c-.52-.4-1.41-.38-1.48-1.29L79,74.78c.47.25,1,.46,1.45.69A2.53,2.53,0,0,0,82,75.64Z"/><path class="cls-1" d="M36.19,58.86a4.47,4.47,0,0,1,2.5.92C41,61.34,43.44,62.55,45.8,64c1,.6,2.16,1.5,3.64,1.16a6.61,6.61,0,0,0,1.86-.59c2.35-1.4,4.72-2.74,7.1-4.07a1.94,1.94,0,0,1,1.31-.34c-2.23,1.63-4.79,2.71-7.07,4.26a5.79,5.79,0,0,1-7.09,0c-2.8-1.82-5.78-3.37-8.68-5A5.66,5.66,0,0,1,36.19,58.86Z"/><path class="cls-1" d="M69.78,68.6c.32,1,1.42,1.4,2,2.24l-.28,0a1.66,1.66,0,0,0-1-.29c-.2-.81-.35.1-.53,0-.07-.24-.12-.47-.19-.71-.4-1.38-1.28-2.59-1.12-4.17a5.48,5.48,0,0,0-.21-3.07c-.51-1.05-.82-1.17-1.63-.3a2,2,0,0,1-.94.51c-2.6.94-3.22,1.84-3.22,4.59,0,.46,0,.92,0,1.38v.29l0,1.5a1.57,1.57,0,0,0,.49,1.47,3.59,3.59,0,0,1,.48,1.6c-.52-.16-.52-.77-.91-1-.6-1.3-.22-2.7-.41-4V67.07c0-.82,0-1.65,0-2.47.49-.8,1.39-1,2.12-1.47,1.52-.92,3.08-1.76,4.84-2.76v5.81A4.51,4.51,0,0,0,69.78,68.6Z"/><path class="cls-1" d="M31.4,31.81a.85.85,0,0,1-.27.92C30,33.58,30,34.8,30,36c0,5.1.1,10.19-.05,15.28-.09,3,1.32,4.71,3.87,5.81.49.21,1,.39,1.15,1a14.7,14.7,0,0,1-3.7-2,4.12,4.12,0,0,1-1.65-3.49c0-5.8,0-11.61,0-17.41A3.63,3.63,0,0,1,31.4,31.81Z"/><path class="cls-1" d="M38.12,35.76c.19-1.21,1.41-1.29,2.15-1.78,2-1.29,4.15-2.28,6.22-3.44a5.1,5.1,0,0,1,6,.37c.46.35.9.94,1.66.61a.34.34,0,0,1,.31.09c.67,1.43,2.15,1.68,3.35,2.33a25.29,25.29,0,0,1,2.34,1.44c.35.25.78.54.62,1.12A106.14,106.14,0,0,0,51,30.65a4,4,0,0,0-4.19.16C43.94,32.47,41,34.11,38.12,35.76Z"/><path class="cls-1" d="M100.86,68.62q0-7.11,0-14.21A5.72,5.72,0,0,0,97.33,49c-2.15-1-4.18-2.35-6.26-3.54a.47.47,0,0,1-.19-.55c3,1.46,5.81,3.19,8.63,4.93a3.73,3.73,0,0,1,1.66,2.68l0,.27V67.38c0,.5,0,1-.06,1.49Z"/><path class="cls-1" d="M84.39,41.16c-1.38-.3-2.81-1.2-4.18-.27-1.56,1-3.27,1.81-4.88,2.74s-3.26,2-5,2.91a1.36,1.36,0,0,1-1,.13c2.29-1.69,4.88-2.86,7.28-4.37.85-.53,1.73-1,2.61-1.5A4.38,4.38,0,0,1,84.39,41.16Z"/><path class="cls-1" d="M39,52.76a3.5,3.5,0,0,1-2.78-2.7,18.24,18.24,0,0,1-.07-3.84A35.32,35.32,0,0,0,36,38.6a3,3,0,0,1,2.06-2.83,6.34,6.34,0,0,0-1.61,4.93c.09,2.25.11,4.51,0,6.75A5.39,5.39,0,0,0,39,52.76Z"/><path class="cls-1" d="M55,54.94c.07.24.15.64-.07.68-1.73.32-2.81,1.92-4.52,2.26s-3.42.36-4.82-.94c-.62-.57-1.78-.41-2-1.49a11.45,11.45,0,0,1,2.64,1.38,4.67,4.67,0,0,0,5.28,0C52.65,56.13,53.85,55.56,55,54.94Z"/><path class="cls-1" d="M100.6,73.12c-.71.56-1.15,1.51-2.21,1.55l0,0c0-.7.47-1.45-.34-2-.24-.18,0-.46.1-.68.69-.17.61-.8.76-1.28h0c.38.17.76-.33,1.16,0,0,.41-.49.62-.41,1h0c-.55,0-.52.44-.49.82s.39.46.74.44h0c.13.24.19.12.25,0l.25-1.49c0-.46.65-.67.48-1.21l0-1,.27,0,.07,0-.12,2.77A3,3,0,0,0,100.6,73.12Z"/><path class="cls-1" d="M69.45,54.55c0-.87.81-1,1.26-1.21,2.6-1.42,5-3.15,7.72-4.4a2.41,2.41,0,0,1,1.08-.2C76.23,50.81,72.9,52.77,69.45,54.55Z"/><path class="cls-1" d="M69.4,46.66a2.61,2.61,0,0,0-.11.71c0,.28.26.58,0,.81s-.41-.22-.63-.33c-.8-.38-1.26.25-1.76.6-2,1.32-4.06,2.41-6.12,3.56-.17.09-.3.11-.41-.07A15,15,0,0,1,64,49.62,42.38,42.38,0,0,1,69.4,46.66Z"/><path class="cls-1" d="M60.81,36.48c.82.67,1.75,1.11,1.42,2.6a21.1,21.1,0,0,0-.08,4.36c0,.7.31.89,1,.68A6,6,0,0,1,64,44c-.63.52-1.43,1.36-2.07,1.09s-.18-1.42-.22-2.18a24.87,24.87,0,0,1,0-3.23A6.82,6.82,0,0,0,60.81,36.48Z"/><path class="cls-1" d="M63.64,73.71a3.59,3.59,0,0,0-.48-1.6c0-1.59.2-1.76,1.51-1.5h0l.25.25h0v2.35c0,.41.07.86-.53.94Z"/><path class="cls-1" d="M66.2,42.74a1.49,1.49,0,0,1,1.07-1.23c.86-.15.93-.65.92-1.34,0-1.24,0-2.49,0-3.74a5.75,5.75,0,0,0-1.68-4.34,2.08,2.08,0,0,1-.26-.54A3.47,3.47,0,0,1,68.46,35c.06,1.76-.06,3.53,0,5.28a1.67,1.67,0,0,1-1.18,1.92A11.53,11.53,0,0,0,66.2,42.74Z"/><path class="cls-1" d="M57.19,26.29c-1.45.53-2.08-.88-3.06-1.4-1.66-.87-3.32-1.77-5-2.54a1.56,1.56,0,0,1,1.64.17A54.15,54.15,0,0,1,57.19,26.29Z"/><path class="cls-1" d="M80,48.46c1-1.31,2.46-.89,3.55-.57a29.68,29.68,0,0,1,3.5,1.79,1.22,1.22,0,0,1,.75,1.08,26.37,26.37,0,0,1-2.72-1.48A5.87,5.87,0,0,0,80,48.46Z"/><path class="cls-1" d="M90.88,44.91a5,5,0,0,1-3.07-1.2c-.94-.65-2.13-1.15-2.77-2.24A45.62,45.62,0,0,1,90.88,44.91Z"/><path class="cls-1" d="M48.77,22.44a24.32,24.32,0,0,0-4.42,2.28,2.92,2.92,0,0,1-1.83.63,31.14,31.14,0,0,1,4.93-2.86C47.82,22.32,48.32,21.89,48.77,22.44Z"/><path class="cls-1" d="M85.07,108.85c-.46-.35-.28-.85-.28-1.28q0-6.41,0-12.8c.38,0,.35.28.35.53C85.12,99.81,85.09,104.33,85.07,108.85Z"/><path class="cls-1" d="M37.26,28.36c-.79,1.31-2.33,1.56-3.43,2.44a3.22,3.22,0,0,1-2.42,1A40,40,0,0,1,37.26,28.36Z"/><path class="cls-1" d="M94.57,56.25a2.77,2.77,0,0,1,.27,1.58v9l-.25,0c-.1-2.66.18-5.33-.15-8,0-.85,0-1.7-.08-2.56Z"/><path class="cls-1" d="M61.4,59.21a8.89,8.89,0,0,1,4.84-2.85A29.7,29.7,0,0,1,61.4,59.21Z"/><path class="cls-1" d="M60.1,52.19c-1.63,1-3.05,2.44-5.06,2.75A16.07,16.07,0,0,1,60.1,52.19Z"/><path class="cls-1" d="M65.45,31.12C64,30.52,62.4,30,61.38,28.65A19.39,19.39,0,0,1,65.45,31.12Z"/><path class="cls-1" d="M61.36,28.65a8,8,0,0,1-4.19-2.37A23.38,23.38,0,0,1,61.36,28.65Z"/><path class="cls-1" d="M94.44,58.83c.33,2.66,0,5.33.15,8a.29.29,0,0,1-.16,0C94.32,64.16,94.31,61.5,94.44,58.83Z"/><path class="cls-1" d="M43.61,55.45a4.9,4.9,0,0,1-3.32-2A13.7,13.7,0,0,1,43.61,55.45Z"/><path class="cls-1" d="M64.39,74.15c.6-.08.53-.53.53-.94V70.86c.61.09.48.56.49,1,0,.86,0,1.71,0,2.57h-.76Z"/><path class="cls-1" d="M94.43,66.83a.29.29,0,0,0,.16,0l.25,0c-.2.92.46,2-.5,2.76a.7.7,0,0,0-.63-.26l.3-1,.07-.25a1.09,1.09,0,0,0,.24-1Z"/><path class="cls-1" d="M87.79,50.76A4.33,4.33,0,0,1,91,52.59,13.73,13.73,0,0,1,87.79,50.76Z"/><path class="cls-1" d="M68.11,76.48a9.79,9.79,0,0,1-2.71-1.57l0,0,.73,0,.5.27c.21.77,1.21.58,1.51,1.24Z"/><path class="cls-1" d="M13.66,113.62a10.06,10.06,0,0,1,0-5.28A42.28,42.28,0,0,1,13.66,113.62Z"/><path class="cls-1" d="M101.14,69.09l-.27,0-2.49,0,0,0c.72-.75,1.65-.44,2.51-.48l.28.25A.28.28,0,0,1,101.14,69.09Z"/><path class="cls-1" d="M42.53,25.34a2,2,0,0,1-2,1.22A4.79,4.79,0,0,1,42.53,25.34Z"/><path class="cls-1" d="M40.49,26.55a1.54,1.54,0,0,1-1.77,1A3.69,3.69,0,0,1,40.49,26.55Z"/><path class="cls-1" d="M94.57,56.25l-.21,0-.78-1.72A1.45,1.45,0,0,1,94.57,56.25Z"/><path class="cls-1" d="M66.22,56.36a2.44,2.44,0,0,1,2-1.08A4.75,4.75,0,0,1,66.22,56.36Z"/><path class="cls-1" d="M68.19,55.29c.06-.86.7-.76,1.27-.75A2.43,2.43,0,0,1,68.19,55.29Z"/><path class="cls-1" d="M38.72,27.54c-.19.81-.8.88-1.48.83A3.57,3.57,0,0,1,38.72,27.54Z"/><path class="cls-1" d="M34.93,58.12a1,1,0,0,1,1.29.75A1.9,1.9,0,0,1,34.93,58.12Z"/><path class="cls-1" d="M40.3,53.5c-.57,0-1.14,0-1.28-.75A2.78,2.78,0,0,1,40.3,53.5Z"/><path class="cls-1" d="M91,52.58c.53,0,1,.08,1.07.68A1.81,1.81,0,0,1,91,52.58Z"/><path class="cls-1" d="M64.66,74.39h.76l0,.48,0,0C65.08,74.84,64.77,74.75,64.66,74.39Z"/><path class="cls-1" d="M65.19,43.26c.14-.54.55-.6,1-.53A1.26,1.26,0,0,1,65.19,43.26Z"/><path class="cls-1" d="M109.93,108.15c0-.32.06-.56.44-.57C110.43,107.93,110.48,108.27,109.93,108.15Z"/><path class="cls-1" d="M98.39,74.67c-.11.26-.53.25-.53.6h-.23l-.27-.38.24-.25h.74Z"/><path class="cls-1" d="M69.16,76.66c.08.19.17.37.25.56a1.33,1.33,0,0,1-.84-.44l.12-.13Z"/><path class="cls-1" d="M66.22,31.56c-.41.11-.77.12-.78-.45A.9.9,0,0,1,66.22,31.56Z"/><path class="cls-1" d="M59.69,60.14c0-.38.33-.33.58-.33A.6.6,0,0,1,59.69,60.14Z"/><path class="cls-1" d="M64.72,43.54c0-.3.25-.32.49-.29A.47.47,0,0,1,64.72,43.54Z"/><path class="cls-1" d="M63.93,44c.08-.27.29-.29.52-.27C64.35,44,64.15,44,63.93,44Z"/><path class="cls-1" d="M68.57,76.78l-.46-.3.08-.09a.53.53,0,0,1,.5.26Z"/><path class="cls-1" d="M64.43,43.75l.3-.24Z"/><path class="cls-1" d="M79.5,48.75l.3-.25Z"/><path class="cls-1" d="M106.4,94.78l-.26.23C106.11,94.79,106.22,94.75,106.4,94.78Z"/><path class="cls-1" d="M106.38,108.15c.1-.21.2-.22.3,0Z"/><path class="cls-1" d="M107.39,108.14c.09-.18.17-.23.25,0Z"/><path class="cls-1" d="M68.69,76.65a.53.53,0,0,0-.5-.26c-.3-.66-1.3-.47-1.51-1.24V70.62c.59,0,.78.41.75.93a10,10,0,0,0,.26,2.84c.12,1.85,1.55,1.08,2.51,1.25-.06.63-1.1.27-1,1Z"/><path class="cls-1" d="M92.83,70.86l0-.68.24-.11c.91,1.31.43,2.81.55,4.23,0,.4-.08,1,.49,1s.5-.56.5-1a19,19,0,0,0-.26-4.45h0c1.29,1.64.7,3.5.58,5.29a.79.79,0,0,1-1,.71c-.53-.11-.6-.52-.6-1A13.07,13.07,0,0,0,92.83,70.86Z"/><path class="cls-1" d="M70.2,75.64c-1-.17-2.39.6-2.51-1.25A2.8,2.8,0,0,1,70,73.64c-.06.69-.72.4-1.06.64s-.67.06-.57.49.42.35.72.38a1.86,1.86,0,0,0,2.16-1.43,10,10,0,0,0,.27-2.83l.28,0h0A2.25,2.25,0,0,1,72,72.11c-.4,1-.1,2.22-1,3a.48.48,0,0,0-.52.49H70.2Z"/><path class="cls-1" d="M89.55,72.61a.8.8,0,0,1,.5-.47c0,.74,0,1.49,0,2.24,0,.3.09.63.44.66s.53-.34.54-.68c0-.75,0-1.5,0-2.24,0-.42.21-.43.51-.26,0,.78,0,1.56,0,2.34s0,1.45-1,1.42-1.07-.64-1-1.39C89.57,73.69,89.56,73.15,89.55,72.61Z"/><path class="cls-1" d="M98.1,74.63h-.5a1.94,1.94,0,0,1-.76-1.26,4.11,4.11,0,0,1,.1-2.89c.14-.43.34-.87.91-.89l0,0C97.05,71.33,96.73,73,98.1,74.63Z"/><path class="cls-1" d="M86.05,75.63l-.19-1.26c1,1.14,1.39.82,1.4-.39,0-.12.2-.24.3-.36C87.77,75.43,87.63,75.62,86.05,75.63Z"/><path class="cls-1" d="M76.49,74.88c.63,0,1.16.6,1.85.34.19-.07.44-.13.53.11s-.3.33-.38.55C77.77,75.64,76.75,76,76.49,74.88Z"/><path class="cls-1" d="M72,72.11a2.25,2.25,0,0,0-.24-1.27,3.4,3.4,0,0,1,2,1Z"/><path class="cls-1" d="M96.84,73.38a1.94,1.94,0,0,0,.76,1.26l-.24.25C96.44,74.59,96.26,74.05,96.84,73.38Z"/><path class="cls-1" d="M75.48,73.63c.45.18.56.62.76,1C75.57,74.61,75.45,74.17,75.48,73.63Z"/><path class="cls-1" d="M93.71,69.34a.7.7,0,0,1,.63.26v.26h0l-.77-.29Z"/><path class="cls-1" d="M97.85,69.6a.47.47,0,0,1,.5-.5l0,0a.47.47,0,0,1-.51.49Z"/><path class="cls-1" d="M70.43,75.64a.48.48,0,0,1,.52-.49A.45.45,0,0,1,70.43,75.64Z"/><path class="cls-1" d="M75.22,73.13a.46.46,0,0,1,.26.5A.51.51,0,0,1,75.22,73.13Z"/><path class="cls-1" d="M76.24,74.63l.25.26Z"/><path class="cls-1" d="M93.55,69.58l.77.29a19,19,0,0,1,.26,4.45c0,.39.07,1-.5,1s-.46-.57-.49-1c-.12-1.42.36-2.92-.55-4.23Z"/><path class="cls-1" d="M91.05,72.12c0,.74,0,1.49,0,2.24,0,.34-.09.71-.54.68s-.43-.36-.44-.66c0-.75,0-1.5,0-2.24Z"/><path class="cls-1" d="M70,73.64a2.8,2.8,0,0,0-2.26.75,10,10,0,0,1-.26-2.84c0-.52-.16-.89-.75-.93-.36-.48-.32-1.36-1.26-1.26h0c-.72-1.28-1.77-.74-2.76-.51,0-.46,0-.92,0-1.38,0-2.75.62-3.65,3.22-4.59a2,2,0,0,0,.94-.51c.81-.87,1.12-.75,1.63.3a5.48,5.48,0,0,1,.21,3.07c-.16,1.58.72,2.79,1.12,4.17.07.24.12.47.19.71,0,1,0,2,0,3Z"/><path class="cls-1" d="M65.45,74.86l0-.48c0-.86,0-1.71,0-2.57,0-.39.12-.86-.49-1h0l-.25-.25h0c-.69-1.48-1.34-.13-2,0,0-.5,0-1,0-1.5a5.91,5.91,0,0,1,2.77.22h0a5.23,5.23,0,0,1,.78,3.17,23,23,0,0,0,0,2.35Z"/><path class="cls-1" d="M71.47,70.89a10,10,0,0,1-.27,2.83A1.86,1.86,0,0,1,69,75.15c-.3,0-.64-.05-.72-.38s.36-.34.57-.49,1,0,1.06-.64h0c.61-.08.48-.55.5-.94,0-.7,0-1.39,0-2.09A1.66,1.66,0,0,1,71.47,70.89Z"/><path class="cls-1" d="M70.49,70.6c0,.7,0,1.39,0,2.09,0,.39.11.86-.5.94,0-1,0-2,0-3C70.14,70.7,70.29,69.79,70.49,70.6Z"/><path class="cls-1" d="M62.67,70.64c.66-.16,1.31-1.51,2,0-1.31-.26-1.48-.09-1.51,1.5A1.57,1.57,0,0,1,62.67,70.64Z"/><path class="cls-1" d="M65.42,69.36a5.91,5.91,0,0,0-2.77-.22v-.29C63.65,68.62,64.7,68.08,65.42,69.36Z"/><path class="cls-1" d="M97.87,69.62a.47.47,0,0,0,.51-.49l2.49,0c0,.34,0,.69,0,1-.68.06-1.49-.38-2,.48h0c-.73.14-.72.72-.76,1.28-.08.22-.34.5-.1.68.81.59.37,1.34.34,2H98.1C96.73,73,97.05,71.33,97.87,69.62Z"/><path class="cls-1" d="M98.86,70.62c.5-.86,1.31-.42,2-.48.17.54-.45.75-.48,1.21l-.76.27c-.08-.42.38-.63.41-1C99.62,70.29,99.24,70.79,98.86,70.62Z"/><path class="cls-1" d="M99.61,71.62l.76-.27c-.09.5-.17,1-.25,1.49l-.25,0h0a2.29,2.29,0,0,1-.25-1.26Z"/><path class="cls-1" d="M99.61,71.62a2.29,2.29,0,0,0,.25,1.26c-.35,0-.69,0-.74-.44S99.06,71.66,99.61,71.62Z"/><path class="cls-1" d="M98.1,71.9c0-.56,0-1.14.76-1.28C98.71,71.1,98.79,71.73,98.1,71.9Z"/><path class="cls-1" d="M99.87,72.88l.25,0C100.06,73,100,73.12,99.87,72.88Z"/><path class="cls-1" d="M64.67,70.61l.25.25Z"/><path class="cls-1" d="M66.18,74.88a23,23,0,0,1,0-2.35,5.23,5.23,0,0,0-.78-3.17c.94-.1.9.78,1.26,1.26v4.53Z"/></svg>