<svg width="783" height="104" viewBox="0 0 783 104" fill="none" xmlns="http://www.w3.org/2000/svg">
<path d="M324 75.0701C324.1 75.1798 324.3 75.0701 324.4 75.0701C327.6 75.0701 330.9 75.0701 334.1 75.0701C335 75.0701 336 75.1798 336.9 75.3993C338.2 75.7286 339.4 76.2773 340.3 77.3748C341.1 78.2528 341.6 79.3504 341.7 80.6674C341.8 81.5454 341.8 82.3136 341.6 83.1916C341.3 84.6184 340.5 85.7159 339.4 86.4842C339.2 86.5939 339.1 86.7037 338.9 86.8134C339 86.9232 339.1 86.9232 339.3 87.0329C339.9 87.2524 340.4 87.5817 341 88.0207C342.2 89.0084 342.9 90.3254 343.1 91.9717C343.2 92.74 343.2 93.618 343 94.3862C342.7 96.0325 341.8 97.3495 340.5 98.2275C339.5 98.886 338.3 99.2153 337.1 99.4348C336.3 99.5445 335.5 99.6543 334.7 99.6543C331.2 99.6543 327.7 99.6543 324.2 99.6543C324 91.423 324 83.1916 324 75.0701ZM332.2 94.8252C333.1 94.8252 334 94.8252 335 94.8252C335.5 94.8252 336.1 94.7155 336.6 94.496C338.1 93.9472 338.4 92.5205 338.1 91.3132C337.9 90.5449 337.4 90.1059 336.8 89.7767C336.2 89.5572 335.6 89.4474 335 89.4474C333.1 89.4474 331.2 89.4474 329.2 89.4474C328.9 89.4474 328.9 89.4474 328.9 89.7767C328.9 91.3132 328.9 92.9595 328.9 94.496C328.9 94.8252 328.9 94.8252 329.2 94.8252C330.2 94.8252 331.2 94.8252 332.2 94.8252ZM331.6 79.7894C330.8 79.7894 330.1 79.7894 329.3 79.7894C328.8 79.7894 328.9 79.6796 328.9 80.2284C328.9 81.6551 328.9 83.0819 328.9 84.5087C328.9 84.6184 328.9 84.6184 328.9 84.7281C328.9 84.8379 328.9 84.9476 329.1 84.9476C329.2 84.9476 329.2 84.9476 329.3 84.9476C330.6 84.9476 332 84.9476 333.3 84.9476C333.7 84.9476 334.1 84.9476 334.5 84.8379C335 84.7281 335.5 84.6184 336 84.3989C336.4 84.1794 336.7 83.8501 336.9 83.4111C337.3 82.3136 337.2 80.7771 335.7 80.1186C335.2 79.8991 334.6 79.7894 334.1 79.7894C333.1 79.7894 332.3 79.7894 331.6 79.7894Z" fill="white"/>
<path d="M400.4 9C400.4 9.2195 400.6 9.2195 400.7 9.32925C405.6 14.707 410.5 20.0848 415.4 25.4626C415.5 25.5724 415.6 25.6821 415.7 25.9016C415.7 26.0114 415.5 26.1211 415.5 26.2309C413.8 28.0967 412.1 29.9624 410.4 31.8282C410.3 31.9379 410.3 31.9379 410.2 32.0477C410.1 32.1574 410.1 32.1574 410 32.0477C409.9 31.9379 409.9 31.9379 409.8 31.8282C406.8 28.5357 403.8 25.2431 400.8 21.9506C400.7 21.8409 400.7 21.8409 400.6 21.7311C400.4 21.5116 400.4 21.5116 400.2 21.7311C399.3 22.7189 398.3 23.8164 397.4 24.8041C395.2 27.2187 393.1 29.5234 390.9 31.9379C390.7 32.1574 390.7 32.1574 390.5 31.9379C388.7 29.9624 387 28.0967 385.2 26.1211C385 25.9016 385 25.9016 385.2 25.6821C386.6 24.1456 388.1 22.4994 389.5 20.9629C393 17.1216 396.5 13.1705 400 9.32925C400.1 9.2195 400.2 9.10975 400.4 9C400.3 9 400.3 9 400.4 9Z" fill="white"/>
<path d="M476.6 94.8252C476.7 96.3617 476.7 98.008 476.7 99.5445H476.6C476.6 98.008 476.6 96.4715 476.6 94.8252Z" fill="white"/>
<path d="M445.4 99.9836C446.2 99.8738 447.1 99.8738 447.9 99.8738C447.9 99.8738 447.9 99.8738 447.9 99.9836C447.1 99.9836 446.3 99.9836 445.4 99.9836Z" fill="white"/>
<path d="M425.5 90.1059C425.5 89.9962 425.5 89.7767 425.5 89.6669C425.5 84.9477 425.5 80.3381 425.5 75.6188C425.5 75.0701 425.4 75.0701 426 75.0701C427.3 75.0701 428.6 75.0701 429.9 75.0701C430 75.0701 430.1 75.0701 430.2 75.0701C430.3 75.0701 430.4 75.1798 430.4 75.2896C430.4 75.3993 430.4 75.5091 430.4 75.6188C430.4 83.4111 430.4 91.3132 430.4 99.1055V99.2153C430.4 99.6543 430.4 99.6543 430 99.6543C428.8 99.6543 427.7 99.6543 426.5 99.6543C426.2 99.6543 426.1 99.5445 425.9 99.325C423.4 95.7032 421 92.1912 418.5 88.6792C417.5 87.2524 416.5 85.8257 415.6 84.5087C415.5 84.3989 415.5 84.2891 415.4 84.2891C415.3 84.3989 415.4 84.5086 415.4 84.6184C415.4 89.4474 415.4 94.2765 415.4 99.1055C415.4 99.6543 415.5 99.6543 414.9 99.6543C413.6 99.6543 412.3 99.6543 411 99.6543C410.9 99.6543 410.9 99.6543 410.8 99.6543C410.6 99.6543 410.5 99.5445 410.6 99.325V99.2153C410.6 91.3132 410.6 83.5209 410.6 75.6188C410.6 75.1798 410.5 75.1798 411 75.1798C412.3 75.1798 413.5 75.1798 414.8 75.1798C415 75.1798 415.2 75.2896 415.4 75.5091C418.6 80.1186 421.8 84.7281 424.9 89.3377C425 89.4474 425.2 89.7767 425.5 90.1059C425.4 90.1059 425.5 90.1059 425.5 90.1059Z" fill="white"/>
<path d="M364.7 84.1794C364.7 84.2891 364.7 84.5086 364.7 84.6184C364.7 89.4474 364.7 94.1667 364.7 98.9958C364.7 99.1055 364.7 99.2153 364.7 99.325C364.7 99.5445 364.6 99.5445 364.4 99.5445C363 99.5445 361.5 99.5445 360.1 99.5445C359.8 99.5445 359.8 99.5445 359.8 99.2153C359.8 99.1055 359.8 99.1055 359.8 98.9958C359.8 91.2035 359.8 83.4111 359.8 75.6188C359.8 75.0701 359.7 75.0701 360.3 75.0701C361.5 75.0701 362.8 75.0701 364 75.0701C364.2 75.0701 364.4 75.1798 364.5 75.3993C367.6 80.0089 370.8 84.5086 374 89.1182C374.2 89.4474 374.5 89.7767 374.7 90.2157C374.8 89.9962 374.8 89.8864 374.8 89.7767C374.8 85.0574 374.8 80.4479 374.8 75.7286C374.8 75.1798 374.7 75.1798 375.3 75.1798C376.7 75.1798 378 75.1798 379.4 75.1798C379.7 75.1798 379.7 75.1798 379.7 75.5091C379.7 75.6188 379.7 75.6188 379.7 75.7286C379.7 83.5209 379.7 91.423 379.7 99.2153C379.7 99.764 379.8 99.764 379.2 99.764C378.1 99.764 377 99.764 376 99.764C375.7 99.764 375.5 99.6543 375.3 99.325C371.9 94.496 368.6 89.5572 365.2 84.7281C365 84.5086 364.9 84.2891 364.7 84.1794C364.8 84.1794 364.8 84.1794 364.7 84.1794Z" fill="white"/>
<path d="M400.3 51.6931C400.5 51.5834 400.6 51.4736 400.7 51.2541C403.7 47.9616 406.7 44.6691 409.7 41.2668C410.1 40.8278 410 40.8278 410.3 41.2668C412 43.1325 413.7 44.9983 415.4 46.8641C415.5 46.9738 415.5 46.9738 415.6 47.0836C415.7 47.1933 415.7 47.3031 415.6 47.4128C415.5 47.5226 415.5 47.5226 415.4 47.6323C410.5 53.0101 405.5 58.3879 400.6 63.8755C400.5 63.9852 400.4 64.095 400.3 64.095C400.2 63.9852 400.1 63.8755 400 63.8755C395.1 58.4977 390.1 53.0101 385.2 47.6323C384.8 47.1933 384.8 47.3031 385.2 46.9738C386.9 45.1081 388.6 43.2423 390.3 41.3765C390.6 41.0473 390.5 41.0473 390.8 41.3765C393.3 44.1203 395.8 46.8641 398.3 49.6079C398.9 50.2664 399.5 50.9249 400.1 51.5834C400.2 51.5834 400.3 51.5834 400.3 51.6931Z" fill="white"/>
<path d="M476.6 94.8252C476.6 96.3617 476.6 98.008 476.6 99.5445C476.5 99.5445 476.4 99.5445 476.2 99.5445C470.8 99.5445 465.5 99.5445 460.1 99.5445C459.6 99.5445 459.7 99.6543 459.7 99.1055C459.7 91.3132 459.7 83.4111 459.7 75.6188C459.7 75.5091 459.7 75.3993 459.7 75.2896C459.7 75.1798 459.8 75.0701 459.9 75.0701C460 75.0701 460.1 75.0701 460.2 75.0701C465.5 75.0701 470.8 75.0701 476.1 75.0701C476.6 75.0701 476.6 75.0701 476.6 75.6188C476.6 76.9358 476.6 78.1431 476.6 79.4601C476.6 79.5699 476.6 79.6796 476.6 79.7894C476.6 79.8991 476.5 80.0089 476.4 80.0089C476.3 80.0089 476.2 80.0089 476.1 80.0089C472.5 80.0089 468.8 80.0089 465.2 80.0089C465.1 80.0089 465 80.0089 464.9 80.0089C464.6 80.0089 464.6 80.0089 464.6 80.3381C464.6 81.7649 464.6 83.1916 464.6 84.6184C464.6 85.0574 464.6 85.0574 465 85.0574C468.2 85.0574 471.4 85.0574 474.6 85.0574C474.7 85.0574 474.8 85.0574 474.9 85.0574C475.1 85.0574 475.2 85.1672 475.2 85.3867C475.2 86.8134 475.2 88.2402 475.2 89.6669C475.2 89.8864 475.2 89.9962 475 89.9962C474.9 89.9962 474.8 89.9962 474.7 89.9962C471.5 89.9962 468.3 89.9962 465.2 89.9962C464.6 89.9962 464.7 89.8864 464.7 90.545C464.7 91.862 464.7 93.2887 464.7 94.6057C464.7 94.7155 464.7 94.7155 464.7 94.8252C464.7 95.0447 464.7 95.1545 464.9 95.0447C465 95.0447 465.1 95.0447 465.2 95.0447C468.9 95.0447 472.6 95.0447 476.3 95.0447C476.3 94.8252 476.4 94.8252 476.6 94.8252Z" fill="white"/>
<path d="M406.9 99.5445C406.8 99.6543 406.6 99.6543 406.5 99.6543C405 99.6543 403.6 99.6543 402.1 99.6543C401.8 99.6543 401.8 99.6543 401.6 99.325C401 97.7885 400.4 96.1422 399.8 94.6057C399.6 94.1667 399.7 94.2765 399.3 94.2765C396.4 94.2765 393.5 94.2765 390.7 94.2765C390.3 94.2765 390.3 94.1667 390.1 94.7155C389.5 96.252 388.9 97.8983 388.4 99.4348C388.3 99.764 388.3 99.764 387.9 99.764C386.5 99.764 385.1 99.764 383.7 99.764C383.6 99.764 383.6 99.764 383.5 99.764C383.3 99.764 383.3 99.764 383.4 99.5445C383.6 99.1055 383.8 98.6665 383.9 98.1178C386.8 90.5449 389.8 82.9721 392.7 75.3993C392.8 75.1798 392.9 75.0701 393.2 75.0701C394.5 75.0701 395.8 75.0701 397.1 75.0701C397.3 75.0701 397.5 75.1798 397.6 75.3993C399.5 80.2284 401.4 85.1672 403.3 89.9962C404.5 93.0692 405.7 96.0325 406.8 99.1055C406.7 99.2153 406.8 99.325 406.9 99.5445ZM398 89.3377C397 86.7037 396 84.1794 395 81.4356C394 84.1794 393 86.7037 392 89.3377C394 89.3377 396 89.3377 398 89.3377Z" fill="white"/>
<path d="M448 99.8738C447.2 99.8738 446.3 99.8738 445.5 99.8738C443.1 99.6543 440.9 98.6665 439 96.9105C436.9 94.935 435.6 92.3009 435.3 89.2279C434.9 85.8256 435.4 82.6429 437.2 79.8991C438.9 77.1553 441.3 75.5091 444.3 74.8506C446.8 74.3018 449.3 74.5213 451.7 75.5091C453.1 76.0578 454.3 77.0456 455.4 78.2528C455.5 78.3626 455.5 78.4723 455.4 78.5821C454.5 79.7893 453.5 80.9966 452.6 82.2039C452.5 82.3136 452.4 82.4234 452.2 82.2039C451.6 81.6551 451 81.2161 450.4 80.7771C449.2 80.0089 447.9 79.5698 446.5 79.6796C444.1 79.7893 442.4 80.9966 441.2 83.1916C440.4 84.7281 440.1 86.3744 440.2 88.0207C440.3 89.5572 440.7 90.9839 441.6 92.1912C443.1 94.3862 445.1 95.2642 447.5 95.0447C449.3 94.8252 450.7 93.9472 452.1 92.74C452.3 92.6302 452.4 92.301 452.6 92.301C452.8 92.301 452.9 92.6302 453.1 92.74C453.9 93.618 454.8 94.496 455.6 95.4837C455.7 95.5935 455.8 95.7032 455.6 95.9227C454.2 97.569 452.5 98.886 450.5 99.5445C449.6 99.6543 448.8 99.8738 448 99.8738Z" fill="white"/>
<path d="M353.3 87.3622C353.3 91.3132 353.3 95.2642 353.3 99.1055C353.3 99.6543 353.3 99.5445 352.9 99.5445C351.5 99.5445 350.2 99.5445 348.8 99.5445C348.7 99.5445 348.7 99.5445 348.6 99.5445C348.5 99.5445 348.4 99.4348 348.4 99.325C348.4 99.2153 348.4 99.1055 348.4 98.9958C348.4 91.2034 348.4 83.3014 348.4 75.5091C348.4 74.9603 348.3 74.9603 348.9 74.9603C350.3 74.9603 351.6 74.9603 353 74.9603C353.1 74.9603 353.1 74.9603 353.2 74.9603C353.4 74.9603 353.4 75.07 353.4 75.1798C353.4 75.2896 353.4 75.3993 353.4 75.5091C353.3 79.5698 353.3 83.4111 353.3 87.3622Z" fill="white"/>
<path d="M425.5 36.6572C425.4 36.767 425.3 36.767 425.2 36.8767C423.5 38.7425 421.8 40.6083 420.1 42.474C420 42.5838 420 42.5838 419.9 42.6935C419.8 42.8033 419.8 42.8033 419.7 42.6935C419.6 42.5838 419.6 42.5838 419.5 42.474C417.8 40.6083 416.1 38.7425 414.4 36.8767C414.3 36.767 414.3 36.767 414.2 36.6572C414.1 36.5475 414.1 36.4377 414.2 36.4377C414.3 36.4377 414.3 36.328 414.4 36.2182C416.1 34.3525 417.8 32.4867 419.5 30.6209C419.8 30.2917 419.8 30.2917 420.1 30.6209C421.8 32.4867 423.5 34.3525 425.2 36.2182C425.3 36.328 425.3 36.4377 425.5 36.6572Z" fill="white"/>
<path d="M406 36.5475C406 36.5475 405.9 36.5475 406 36.5475C405.9 36.767 405.8 36.767 405.8 36.8767C404.1 38.7425 402.4 40.6083 400.7 42.474L400.6 42.5838C400.4 42.8033 400.4 42.8033 400.1 42.5838C398.7 41.0473 397.3 39.5108 395.8 37.9743C395.5 37.645 395.1 37.206 394.8 36.8767C394.7 36.767 394.7 36.6572 394.8 36.5475C395.1 36.2182 395.3 35.9987 395.6 35.6695C397.1 34.0232 398.5 32.4867 400 30.8404C400.1 30.7307 400.1 30.7307 400.2 30.6209C400.3 30.5112 400.4 30.5112 400.5 30.6209L400.6 30.7307C402.3 32.5965 404.1 34.4622 405.8 36.328C405.8 36.328 405.9 36.4377 406 36.5475Z" fill="white"/>
<path d="M386.5 36.5475C386.5 36.6572 386.5 36.6572 386.5 36.5475C386.4 36.6572 386.3 36.767 386.3 36.8767C384.6 38.7425 382.9 40.6083 381.2 42.474L381.1 42.5838C380.9 42.8033 380.9 42.8033 380.7 42.5838C378.9 40.718 377.2 38.7425 375.4 36.8767C375.2 36.6572 375.2 36.6572 375.4 36.4377C377.2 34.4622 378.9 32.5964 380.7 30.6209C380.9 30.4014 380.9 30.4014 381.1 30.6209C382.9 32.5964 384.6 34.4622 386.4 36.4377C386.4 36.4377 386.5 36.4377 386.5 36.5475Z" fill="white"/>
<path d="M539.5 46.3C539.5 45.9 539.5 45.5 539.4 45C539.4 42.8 539.5 40.5 539.6 38.3C539.6 38.2 539.6 38 539.6 37.9C540 36.2 540.4 34.5 540.8 32.8C540.8 32.7 540.9 32.5 540.9 32.4C541.3 31.4 541.7 30.5 542 29.5C543.3 26.7 544.7 24.1 546.6 21.7C552.8 13.9 560.7 9.40002 570.6 8.30002C579.9 7.30002 588.3 9.50002 595.7 15.2C605.6 22.9 610.2 33.1 609.5 45.6C608.6 61.2 596.7 74.8 581.3 77.5C566.9 80 555.1 75.2 546 63.5C545.9 63.4 545.8 63.2 545.7 63.1C545.4 62.5 545.1 61.9 544.6 61.4C544.2 60.5 543.7 59.6 543.2 58.8C543.2 58.7 543.2 58.7 543.1 58.7C542.7 57.8 542.4 56.9 542 56C542.4 55.5 543.1 55.4 543.1 54.7C543.8 54.4 543.9 53.7 543.9 53.1C543.9 51.6 543.9 50.1 543.9 48.6C543.9 48.1 544 47.4 543.2 47.4C542.4 47.4 542.4 48 542.4 48.6C542.4 50 542.4 51.4 542.4 52.8C542.4 53.6 542.1 54.2 541.2 54.1C541 53.5 540.7 52.9 540.7 52.3C540.7 51.8 540.9 51.5 541.4 51.3C541.8 51.2 542 50.8 541.9 50.4C541.8 49.9 541.4 49.9 541 49.9C540.7 49.9 540.4 49.9 540.1 49.9C539.8 48.8 539.9 47.5 539.5 46.3ZM583.2 49.5C583 49.5 582.9 49.7 582.9 49.9C582.4 50 582.3 50.5 582 50.7C581.9 50.3 581.9 49.9 581.4 49.9C580.8 49.5 580.2 50.1 579.6 49.9C579.2 49.8 578.9 49.8 578.9 49.3C578.9 48.8 578.6 48.4 578 48.5C577.4 48.6 577.4 49.1 577.4 49.5C577.4 50.6 577.4 51.7 577.4 52.7C577.4 54.1 577.6 55.3 579.1 55.8C579.2 55.8 579.2 56 579.3 56.2C578.1 58.4 578.8 59.5 581.3 59.5C585.8 59.5 590.2 59.5 594.7 59.5C595.5 59.5 596.2 59.4 596.7 58.6C597.1 57.8 596.9 57.1 596.4 56.4C596.1 55.8 595.8 55.2 595.4 54.7C595.3 54.3 595.1 54 594.8 53.7C593.9 51.9 592.9 50.2 591.9 48.6C591.9 48.5 591.8 48.5 591.8 48.4C591.7 48.3 591.7 48.2 591.6 48.1C591.4 47.7 591.1 47.3 590.9 46.9C590.8 46.8 590.8 46.7 590.7 46.6C590.7 46.5 590.7 46.5 590.6 46.4C590.5 46.3 590.5 46.3 590.4 46.2C590.2 45.7 590 45.2 589.6 44.7C589.5 44.4 589.4 44.1 589.1 43.9L589 43.8C589 43.7 588.9 43.7 588.8 43.7C588.6 43.5 588.4 43.3 588.1 43.4C588 43.4 587.8 43.4 587.7 43.4C586.9 43.3 586.5 43.8 586.1 44.5C585.7 44.4 585.4 44.3 585 44.1C583.9 43.8 583 44.1 582.3 44.9C581.6 45.7 581.4 46.7 581.8 47.7C582.1 48.4 582.8 48.8 583.3 49.3C583.3 49.4 583.3 49.4 583.3 49.5H583.2ZM550.3 54.8C550.3 55.2 550.5 55.4 550.9 55.4C551 56.1 551.6 55.7 552 55.8C552.2 56.3 552.6 56.4 553.1 56.3C553.5 56.2 553.7 56.3 553.8 56.7C553.5 56.7 553.3 56.7 553.2 57C553 57.6 553.3 58.3 553.3 58.9C553.3 58.9 553.6 58.9 553.8 59C554.1 59.9 554.7 60.3 555.8 60C556.5 59.8 557.1 59.8 557.8 59.8C560.3 59.8 562.8 59.9 565.3 59.8C567.8 59.7 570 58.9 571 56.3C571.1 56 571.3 55.9 571.6 55.8C572 55.8 572.4 55.8 572.7 55.8C573.7 55.7 574.3 55.1 574.5 54.2C574.7 53.3 574.7 52.3 574.7 51.4C574.8 51.4 574.8 51.4 574.9 51.4C575.4 51.8 575.8 51.5 576.2 51.3C576.5 51.1 576.5 50.7 576.2 50.3C576.1 49.8 575.7 49.9 575.4 49.9C575 49.9 574.6 50 574.3 49.7C574.3 49.6 574.3 49.5 574.3 49.5C574.4 49.4 574.5 49.2 574.5 49.1C575 48.4 575.5 47.6 575.9 46.8C577.9 43.3 579.9 39.9 581.9 36.4C583 34.5 583 32.6 581.9 30.7C580.3 27.8 578.6 24.9 576.9 22.1C575.9 20.3 574.4 20.4 573.4 22.1C571.1 26.2 568.7 30.3 566.4 34.4C564.8 37.2 563.2 40.1 561.6 42.9C561.1 43.5 560.8 44.1 560.5 44.8C560.4 44.9 560.4 45 560.3 45.1C560.2 45.2 560.2 45.4 560.1 45.5C559.8 45.7 559.7 46 559.6 46.3C559.4 46.4 559.4 46.5 559.4 46.6C557.9 49.2 556.4 51.8 554.9 54.3C554.5 54.3 554.1 54.2 553.8 54.2C553.6 53.6 552.9 53.7 552.6 53.4C552.6 53.3 552.6 53.1 552.6 53C552.7 52.9 552.7 52.9 552.8 52.8C554 52.3 554.6 51.4 554.1 50.7C553.5 49.8 551.8 49.6 550.9 50.3C550.2 50.3 549.8 50.6 549.8 51.4C549.1 52.4 549.1 53.4 549.8 54.3C549.9 54.6 550 54.8 550.3 54.8ZM596.1 54.6C596.1 54.8 596.1 54.9 596.3 55C596.7 56 597.6 55.9 598.4 55.9C599.8 56 599.9 55.7 599.5 54.3V54.2V54.3C599.4 54.3 599.4 54.3 599.3 54.3C599.2 54 599 53.6 598.9 53.3C599.1 53.2 599.3 53 599.5 52.9C600.5 52.4 600.9 51.6 600.6 50.7C600.3 49.8 599.5 49.6 598.5 49.9C596.8 49.9 596.2 50.3 596 51.4C595 52.5 595.1 53.8 596.1 54.6ZM545.9 51.2C545.8 51.2 545.6 51.2 545.6 51.3C545.1 52.6 545.2 54 545.3 55.3C545.3 55.6 545.6 55.8 546 55.8C546.4 55.8 546.6 55.6 546.7 55.3C547 54.6 546.9 53.9 546.9 53.1C546.9 52.3 546.9 51.6 547.9 51.3C548.3 51.2 548.4 50.8 548.4 50.5C548.4 50.2 548.2 50 548 49.9C547.1 49.6 546.1 50.2 545.9 51.2ZM603.3 55C603.2 54.4 602.9 53.7 602.2 53.6C601.6 53.6 601.2 54.3 601.2 54.9C601.2 55.5 601.4 56.2 602.2 56.2C602.9 56.2 603.2 55.8 603.3 55Z" fill="white"/>
<path d="M591.5 91.8C591.5 89.5 591.5 87.1 591.5 84.8C591.5 84 591.6 83.6 592.6 83.6C593.6 83.6 593.6 84 593.6 84.8C593.6 88.1 593.6 91.4 593.6 94.7C593.6 95.1 593.9 95.8 593.3 95.8C592.6 95.9 591.7 96.2 591.1 95.3C589.4 92.7 587.7 90.1 586.1 87.4C586 87.2 585.8 87 585.7 86.8C585.3 87 585.5 87.3 585.5 87.5C585.5 90 585.5 92.5 585.5 95C585.5 95.6 585.4 96 584.7 95.8C584.2 95.7 583.4 96.1 583.4 95C583.4 91.5 583.4 87.9 583.4 84.4C583.4 83.7 583.6 83.6 584.2 83.5C585.6 83.3 586.5 83.8 587.3 85.1C588.5 87.4 590 89.6 591.4 91.8C591.4 91.8 591.4 91.8 591.5 91.8Z" fill="white"/>
<path d="M545.3 83.6C546.3 83.3 546.7 83.8 547.1 84.7C548.5 88.1 550 91.4 551.4 94.7C551.5 95 552 95.4 551.6 95.8C551.2 96.1 549.7 95.8 549.5 95.4C549.1 94.6 548.7 93.9 548.4 93.1C548.2 92.6 547.9 92.5 547.4 92.5C546 92.5 544.5 92.5 543.1 92.5C542.6 92.5 542.3 92.7 542.1 93.2C541.8 93.9 541.5 94.6 541.2 95.2C541.1 95.4 541 95.8 540.7 95.8C540.1 95.8 539.5 96 539.1 95.7C538.8 95.4 539.3 94.9 539.4 94.5C540.7 91.3 542.1 88 543.4 84.8C543.8 83.8 544.3 83.3 545.3 83.6ZM543 91.1C544.4 91.1 545.8 91.1 547.1 91.1C547.4 91.1 547.7 91 547.5 90.6C546.8 88.8 546 87 545.2 85C544.4 87.2 543.7 89.1 543 91.1Z" fill="white"/>
<path d="M624.1 89.8C624.1 91.6 624.1 93.3 624.1 95.1C624.1 95.9 623.7 95.9 623.1 95.9C622.6 95.9 622 96 622 95.1C622.1 93.7 622 92.4 622 91C622 90.4 621.8 90.1 621.2 90.2C620 90.2 618.7 90.2 617.5 90.2C616.9 90.2 616.6 90.4 616.7 91C616.7 92.4 616.7 93.7 616.7 95.1C616.7 96 616.2 95.9 615.6 95.9C615.1 95.9 614.5 96.1 614.5 95.1C614.5 91.5 614.5 88 614.5 84.4C614.5 83.5 615.1 83.7 615.5 83.7C616 83.7 616.6 83.5 616.6 84.4C616.6 85.5 616.6 86.6 616.6 87.8C616.6 88.6 616.8 88.8 617.6 88.7C618.8 88.6 620 88.7 621.2 88.7C621.8 88.7 622.1 88.5 622 87.9C622 86.8 622 85.7 622 84.5C622 83.6 622.6 83.7 623.1 83.7C623.7 83.7 624.1 83.8 624.1 84.5C624.1 86.2 624.1 88 624.1 89.8Z" fill="white"/>
<path d="M630.6 89.8C630.6 88 630.6 86.3 630.6 84.5C630.6 83.9 630.7 83.6 631.5 83.6C633.5 83.6 635.4 83.6 637.4 83.6C638.2 83.6 638.2 83.9 638.2 84.6C638.2 85.2 638.2 85.6 637.4 85.6C636.1 85.5 634.8 85.6 633.5 85.6C632.9 85.6 632.7 85.8 632.7 86.4C632.6 88.9 632.6 88.9 635.1 88.9C635.9 88.9 636.6 88.9 637.4 88.9C638.1 88.9 638.2 89.2 638.2 89.8C638.2 90.4 637.9 90.6 637.4 90.6C636.1 90.6 634.8 90.6 633.5 90.6C632.9 90.6 632.7 90.8 632.7 91.4C632.6 94.1 632.6 94.1 635.3 94.1C635.9 94.1 636.6 94.1 637.2 94.1C638 94 638.2 94.3 638.2 95.1C638.2 96 637.8 96.1 637.1 96.1C635.2 96.1 633.3 96.1 631.4 96.1C630.8 96.1 630.5 95.9 630.6 95.3C630.7 93.3 630.6 91.5 630.6 89.8Z" fill="white"/>
<path d="M569.6 92.8C569.2 93.7 568.9 94.5 568.5 95.4C568.3 95.7 566.7 96 566.4 95.7C566.2 95.5 566.4 95.3 566.5 95.1C568 91.4 569.6 87.7 571.1 84C571.3 83.6 571.5 83.4 571.9 83.6C572.6 84.2 573.5 84.1 574.2 84.4C575.8 88 577.3 91.5 578.9 95.1C579.1 95.6 579.1 95.8 578.4 95.9C577.4 96 576.6 95.8 576.4 94.7C576.2 94.1 575.9 93.5 575.6 92.9L575.7 92.8C575.6 92.8 575.6 92.8 575.5 92.8C575.4 92.8 575.4 92.8 575.4 92.7C575.2 92.6 575.1 92.4 574.9 92.4C573.3 92.2 571.6 92.4 569.9 92.4C569.9 92.3 569.3 92.3 569.6 92.8ZM572.6 85.1C571.9 87 571.2 88.8 570.5 90.7C570.4 91.1 570.5 91.2 570.9 91.2C572.1 91.2 573.2 91.2 574.4 91.2C574.9 91.2 575 91 574.8 90.6C574.1 88.7 573.4 87 572.6 85.1Z" fill="white"/>
<path d="M605.1 83.3C606.6 83.3 607.9 83.6 609 84.7C609.4 85.1 609.6 85.5 609 85.9C608.6 86.2 608.4 86.9 607.6 86.2C605.4 84.1 602.3 85 601.5 87.9C601.1 89.2 601.2 90.5 601.7 91.7C602.8 94.1 605.9 94.7 607.7 92.8C608.1 92.3 608.4 92.2 608.8 92.8C609.2 93.2 609.8 93.5 609.1 94.2C607.4 96 605.3 96.2 603.1 95.7C601.1 95.3 599.9 94 599.4 92C599.1 90.7 599 89.4 599.2 88.1C599.8 85 601.9 83.2 605.1 83.3Z" fill="white"/>
<path d="M531.4 93.2C531.9 91.9 532.3 90.7 532.8 89.5C533.5 87.8 534.1 86 534.8 84.3C535 83.7 536.4 83.3 536.9 83.7C537.2 84 536.9 84.3 536.9 84.5C535.7 87.7 534.5 91 533.3 94.2C532.7 95.8 532.2 96.1 530.4 95.8C530 95.7 529.9 95.5 529.8 95.2C528.5 91.5 527.2 87.9 525.9 84.2C525.7 83.7 525.9 83.6 526.4 83.5C527.4 83.4 528 83.7 528.3 84.7C529.1 87.2 530 89.6 530.9 92C530.9 92.4 531 92.8 531.4 93.2Z" fill="white"/>
<path d="M514.3 92.8C514.2 93 514.1 93.1 514 93.3C513.5 93.7 513.3 94.2 513.1 94.8C512.9 95.5 512.3 95.4 511.8 95.5C511.4 95.6 511.3 95.2 511.2 94.9C511.2 94.8 511.2 94.8 511.3 94.7C511.8 94.5 511.9 94.1 511.8 93.6C512 93.6 512.1 93.4 512.1 93.3C512.9 91.5 513.7 89.7 514.4 87.9C514.8 86.7 515.6 85.6 515.6 84.3C515.8 84.3 515.9 84.2 516.1 84.2C517.8 83.7 518.3 84 519 85.5C519.5 86.5 519.7 87.7 520.5 88.5C520.9 90.7 522.1 92.6 522.9 94.6C523 94.9 523.3 95.2 523 95.5C522.7 95.8 522.4 95.6 522 95.5C521.7 95.4 521.5 95.2 521.4 94.9C521.1 94.3 520.6 93.7 520.4 93.1C520.2 92.4 519.8 92.3 519.2 92.3C517.7 92.3 516.2 92.3 514.6 92.3C514.5 92.2 514.3 92.4 514.3 92.8ZM515 91.1C516.4 91.1 517.7 91.1 519 91.1C519.3 91.1 519.7 91.1 519.5 90.6C518.7 88.8 518 87 517.2 85.1C516.5 87.2 515.7 89.1 515 91.1Z" fill="white"/>
<path d="M555.7 89.6C555.7 87.8 555.7 86.1 555.7 84.3C555.7 83.4 556.2 83.5 556.7 83.5C557.2 83.5 557.8 83.3 557.8 84.3C557.8 87 557.9 89.7 557.8 92.4C557.8 93.4 558 93.8 559 93.7C560.1 93.6 561.2 93.7 562.4 93.7C563.4 93.6 563.1 94.4 563.2 94.9C563.3 95.5 563.2 95.9 562.4 95.8C560.5 95.7 558.5 95.8 556.6 95.8C555.9 95.8 555.7 95.6 555.7 94.9C555.7 93.2 555.7 91.4 555.7 89.6Z" fill="white"/>
<path d="M514.3 92.8C514.3 92.4 514.5 92.2 514.9 92.2C516.4 92.2 517.9 92.2 519.5 92.2C520.1 92.2 520.5 92.3 520.7 93C520.9 93.7 521.3 94.2 521.7 94.8C521.8 95.1 522 95.2 522.3 95.4C522.6 95.5 523 95.7 523.3 95.4C523.6 95.1 523.3 94.8 523.2 94.5C522.4 92.5 521.2 90.6 520.8 88.4C522 90.7 522.9 93.1 523.9 95.4C524 95.5 524.1 95.7 523.9 95.9C523.5 96.2 521.7 95.9 521.6 95.4C521 92.9 519.3 92.3 517 92.6C516 92.7 515.1 92.4 514.3 92.8Z" fill="white"/>
<path d="M515.8 84.2C515.7 85.5 515 86.6 514.6 87.8C513.9 89.6 513 91.4 512.3 93.2C512.2 93.4 512.2 93.5 512 93.5C513.1 90.4 514.3 87.3 515.8 84.2Z" fill="white"/>
<path d="M520.7 88.4C519.8 87.6 519.6 86.4 519.2 85.4C518.5 83.8 518 83.5 516.3 84.1C516.1 84.2 516 84.2 515.8 84.2C515.8 83.7 516 83.5 516.5 83.5C519 83.6 518.5 82.9 519.5 85.4C519.9 86.4 520.4 87.3 520.7 88.4Z" fill="white"/>
<path d="M569.6 92.8C569.2 92.3 569.8 92.2 570 92.2C571.7 92.2 573.3 92 575 92.2C575.2 92.2 575.4 92.4 575.5 92.5C573.9 92.5 572.3 92.5 570.7 92.5C570.3 92.6 569.9 92.5 569.6 92.8Z" fill="white"/>
<path d="M511.3 94.9C511.4 95.2 511.4 95.6 511.9 95.5C512.4 95.4 513 95.4 513.2 94.8C513.4 94.2 513.5 93.7 514.1 93.3C514.1 94.2 513.5 94.8 513.2 95.6C513.1 95.9 511.4 96.1 511.2 95.9C510.8 95.5 511.2 95.2 511.3 94.9Z" fill="white"/>
<path d="M574.3 84.4C573.5 84.1 572.6 84.2 572 83.6C572.7 83.7 573.5 83.3 574.1 83.9V84C574.1 84.1 574.2 84.2 574.3 84.4Z" fill="white"/>
<path d="M511.9 93.6C512 94.1 512 94.5 511.4 94.7C511.5 94.3 511.6 93.9 511.9 93.6Z" fill="white"/>
<path d="M575.6 92.7C575.7 92.7 575.7 92.7 575.8 92.7L575.7 92.8C575.6 92.8 575.6 92.7 575.6 92.7Z" fill="white"/>
<path d="M553.7 58.9C554.1 59.1 554.4 59.5 554.9 59.5C555.1 59.5 555.3 59.5 555.5 59.5C558.8 59.5 562.1 59.5 565.4 59.5C566.3 59.5 567.2 59.3 568 58.8C568.1 58.7 568.2 58.7 568.3 58.6C568.8 58.4 569.3 58.1 569.5 57.6C570.3 57 570.5 55.9 571.2 55.2C571.5 55.2 571.6 55 571.5 54.7C571.5 54.6 571.5 54.6 571.6 54.6C571.8 54.6 572.1 54.6 572.3 54.6C572.8 54.6 573.3 54.5 573.4 54C573.5 53.4 573.9 52.6 573.1 52.1C573.5 51.5 573.8 50.8 574.2 50.2C574.2 50.5 574.4 50.6 574.7 50.5C575.2 50.2 575.8 50.4 576.3 50.4C576.3 51.2 575.5 51.1 575 51.5C574.9 51.5 574.9 51.5 574.8 51.5C574.2 51.8 574.4 52.3 574.4 52.8C574.4 55 573.9 55.5 571.7 55.5C571.5 55.6 571.6 55.6 571.7 55.7C571.7 55.8 571.7 55.8 571.7 55.9C571.4 55.9 571.2 56.1 571.1 56.4C570.1 59.1 567.9 59.8 565.4 59.9C562.9 60 560.4 59.9 557.9 59.9C557.2 59.9 556.6 59.9 555.9 60.1C554.6 60.2 553.9 59.8 553.7 58.9Z" fill="white"/>
<path d="M552.8 52.9C552.7 53 552.7 53 552.6 53.1C552.4 53.2 552.1 53.4 551.9 53.1C551.7 52.7 552.1 52.6 552.2 52.3C552.4 52 553 51.6 552.6 51.3C552.3 51 551.7 51.1 551.2 51.4C551 51.6 550.9 51.8 550.9 52C550.2 52.4 550.5 53 550.7 53.6C551 54.3 551.5 54.7 552.3 54.8C553 54.8 553.6 54.8 554.3 54.8C554.3 55.2 554 55.3 553.9 55.6C552.9 55.7 551.9 55.5 551 55.4C551 55 550.8 54.8 550.4 54.8C550.4 54.5 550.3 54.4 550 54.4C550 53.4 550 52.4 550 51.5C550.6 51.4 550.9 51 551.1 50.4C551.7 50.4 552.3 50.4 552.9 50.4C553.4 50.4 553.8 50.7 554 51.1C554.2 51.6 553.8 51.9 553.5 52.2C553.1 52.4 552.8 52.5 552.8 52.9Z" fill="white"/>
<path d="M541.5 54.5C541.4 54.4 541.4 54.2 541.3 54.1C542.3 54.2 542.5 53.6 542.5 52.8C542.5 51.4 542.5 50 542.5 48.6C542.5 48 542.6 47.4 543.3 47.4C544 47.4 544 48 544 48.6C544 50.1 544 51.6 544 53.1C544 53.8 543.9 54.4 543.2 54.7C543.3 54.1 543.7 53.6 543.6 53C543.5 51.6 543.6 50.1 543.6 48.7C543.6 48.4 543.8 47.9 543.4 47.9C542.9 47.9 543 48.4 543 48.7C543 50 543 51.4 543 52.7C542.9 53.7 542.5 54.4 541.5 54.5Z" fill="white"/>
<path d="M583.3 49.3C582.8 48.8 582.1 48.4 581.8 47.7C581.3 46.7 581.5 45.6 582.3 44.9C583 44.1 584 43.8 585 44.1C585.4 44.2 585.7 44.3 586.1 44.5C586 44.7 585.8 44.9 585.7 45.1C585.3 44.9 584.9 44.9 584.5 44.9C583.1 44.7 582.2 45.7 582.5 47.2C582.6 47.9 583.2 48.3 583.7 48.7C583.6 48.9 583.6 49.1 583.5 49.3C583.4 49.3 583.4 49.3 583.3 49.3Z" fill="white"/>
<path d="M545.9 51.2C546.1 50.2 547.1 49.6 548 50C548.3 50.1 548.4 50.3 548.4 50.6C548.4 51 548.3 51.4 547.9 51.4C546.9 51.6 546.9 52.4 546.9 53.2C546.9 53.9 547 54.7 546.7 55.4C546.6 55.7 546.4 55.9 546 55.9C545.6 55.9 545.3 55.7 545.3 55.4C545.2 54.1 545 52.7 545.6 51.4C545.6 51.2 545.8 51.2 545.9 51.2C545.7 52 545.6 52.9 545.7 53.7C545.8 54.3 545.3 55.3 546.1 55.3C546.8 55.3 546.4 54.3 546.5 53.8C546.6 52.7 546.2 51.5 547.7 51.1C547.9 51.1 548 50.9 547.9 50.7C547.8 50.5 547.6 50.5 547.5 50.5C546.7 50.2 546.4 50.9 545.9 51.2Z" fill="white"/>
<path d="M579.7 55.9C579.6 56 579.5 56.1 579.4 56.2C579.3 56.1 579.3 55.9 579.2 55.8C577.7 55.3 577.4 54.1 577.5 52.7C577.5 51.6 577.5 50.5 577.5 49.5C577.5 49 577.5 48.5 578.1 48.5C578.7 48.4 578.9 48.8 579 49.3C579 49.8 579.3 49.8 579.7 49.9C580.3 50 580.9 49.5 581.5 49.9C581.5 50 581.5 50.2 581.5 50.3C580.9 50.3 580.2 50.3 579.6 50.3C579 50.3 578.5 50.2 578.5 49.4C578.5 49.2 578.5 48.9 578.2 48.9C577.9 48.9 577.9 49.2 577.9 49.5C577.9 50.8 577.9 52.1 577.9 53.4C577.9 54.8 578.4 55.3 579.8 55.5C579.7 55.6 579.7 55.7 579.7 55.9Z" fill="white"/>
<path d="M599.3 54.3C599.4 54.3 599.4 54.3 599.5 54.3C600 55.6 599.8 55.9 598.4 55.9C597.6 55.9 596.7 56 596.3 55C597 55.2 597.7 55.6 598.5 55.6C598.8 55.6 599.2 55.6 599.2 55.1C599.2 54.7 598.9 54.7 598.6 54.7C598.2 54.7 597.8 54.6 597.4 54.5C596.5 54.1 596.5 53.2 596.6 52.3C596.7 51.6 597.2 51.2 597.9 51.1C598.2 51.1 598.7 50.9 598.8 51.3C598.9 51.6 598.5 51.9 598.1 51.9C598 51.5 597.9 51.3 597.6 51.6C597.2 52 597 52.5 597.1 53.1C597.2 53.6 597.5 53.8 598 54C598.3 54.3 598.8 54.3 599.3 54.3Z" fill="white"/>
<path d="M603.3 55C603.2 55.8 602.9 56.2 602.2 56.2C601.4 56.2 601.1 55.5 601.2 54.9C601.2 54.3 601.6 53.6 602.2 53.6C602.9 53.7 603.2 54.4 603.3 55Z" fill="white"/>
<path d="M554.3 54.8C553.6 54.8 553 54.8 552.3 54.8C551.5 54.8 551 54.4 550.7 53.6C550.5 53.1 550.2 52.5 550.9 52C550.9 52.9 550.7 53.8 551.9 54.1C552.5 54.2 553.2 54.4 553.8 54.3C554.2 54.3 554.6 54.4 554.9 54.4C554.8 54.5 554.7 54.6 554.7 54.8C554.6 54.8 554.4 54.8 554.3 54.8Z" fill="white"/>
<path d="M595.9 51.4C596.2 50.3 596.8 49.9 598.4 49.9C599.2 50 599.9 50.3 600.2 51.1C600.4 51.7 599.9 52.1 599.5 52.5C600 51.1 599.7 50.6 598.4 50.4C597.3 50.2 596.6 50.8 595.9 51.4Z" fill="white"/>
<path d="M552.8 52.9C552.8 52.5 553.1 52.4 553.3 52.1C553.6 51.8 554 51.5 553.8 51C553.6 50.6 553.2 50.3 552.7 50.3C552.1 50.2 551.5 50.3 550.9 50.3C551.8 49.6 553.6 49.8 554.1 50.7C554.6 51.5 554 52.4 552.8 52.9Z" fill="white"/>
<path d="M581.4 50.3C581.4 50.2 581.4 50 581.4 49.9C581.9 50 582 50.4 582 50.7C581.9 50.9 581.7 51.1 581.6 51.3C581.3 51.3 581 51.3 580.8 51.3C578.9 51.3 578.9 51.3 578.9 53.2C578.9 53.4 578.9 53.6 578.9 53.8C578.8 53.8 578.6 53.7 578.6 53.7C578.3 52.9 578.3 52.1 578.6 51.4C578.8 50.8 579.6 51.2 580.1 51.1C580.4 51.1 580.7 51.1 581 51.1C581.5 51.1 581.8 50.9 581.4 50.3Z" fill="white"/>
<path d="M599.3 54.3C598.8 54.3 598.3 54.3 597.9 54.2C597.4 54 597 53.8 597 53.3C596.9 52.7 597.1 52.2 597.5 51.8C597.8 51.5 598 51.7 598 52.1C597.8 52.2 597.8 52.3 597.8 52.5C597.1 52.7 597.3 53.2 597.6 53.5C597.9 53.8 598.3 54 598.5 53.3C598.6 53.3 598.8 53.3 598.9 53.3C599 53.6 599.2 54 599.3 54.3Z" fill="white"/>
<path d="M550.9 52C550.9 51.7 551 51.5 551.2 51.4C551.6 51.1 552.2 51 552.6 51.3C553 51.6 552.5 52 552.2 52.3C552 52.5 551.6 52.7 551.9 53.1C552.1 53.4 552.4 53.2 552.6 53.1C552.6 53.2 552.6 53.4 552.6 53.5C552.3 53.8 551.9 53.7 551.6 53.5C551 53 551.6 52.5 551.5 52.1C551.7 52.1 551.8 52.1 551.8 51.8C551.8 51.8 551.8 51.7 551.7 51.7C551.5 51.7 551.5 51.9 551.4 52C551.3 52 551.1 52 550.9 52Z" fill="white"/>
<path d="M571.5 55.8C571.5 55.7 571.5 55.7 571.5 55.6C571.5 55.5 571.5 55.5 571.5 55.4C573.7 55.4 574.2 54.9 574.2 52.7C574.2 52.2 574 51.7 574.6 51.4C574.5 52.3 574.5 53.3 574.4 54.2C574.2 55.1 573.6 55.7 572.6 55.8C572.3 55.8 571.9 55.8 571.5 55.8Z" fill="white"/>
<path d="M550.9 52C551.1 52 551.3 52 551.5 52C551.6 52.5 551 53 551.6 53.4C551.9 53.7 552.2 53.8 552.6 53.4C553 53.7 553.6 53.7 553.8 54.2C553.1 54.3 552.5 54.1 551.9 54C550.7 53.8 550.9 52.9 550.9 52Z" fill="white"/>
<path d="M599.5 52.4C599.9 52 600.4 51.6 600.2 51C599.9 50.2 599.2 49.9 598.4 49.8C599.4 49.4 600.2 49.7 600.5 50.6C600.9 51.5 600.5 52.3 599.4 52.8C599.5 52.7 599.5 52.6 599.5 52.4Z" fill="white"/>
<path d="M540.8 52.3C540.5 52 540.6 51.5 540.5 51.2C541 51.2 541.6 51.2 541.6 50.7C541.6 50.1 540.9 50.5 540.6 50.4C540.5 50.4 540.5 50.4 540.4 50.4C540.4 50.3 540.3 50.1 540.3 50C540.6 50 540.9 50 541.2 50C541.6 50 542 50 542.1 50.5C542.2 50.9 541.9 51.3 541.6 51.4C540.9 51.5 540.8 51.8 540.8 52.3Z" fill="white"/>
<path d="M554.3 54.8C554.5 54.8 554.6 54.8 554.8 54.8C554.5 55.5 554.2 56.1 553.7 56.7C553.6 56.3 553.4 56.2 553 56.3C552.6 56.4 552.1 56.4 551.9 55.8C552.5 55.5 553.3 56.5 553.8 55.6C554 55.3 554.3 55.1 554.3 54.8Z" fill="white"/>
<path d="M596.1 54.6C595.1 53.9 595 52.6 595.9 51.4C595.8 52.5 595.5 53.5 596.1 54.6Z" fill="white"/>
<path d="M553.7 56.7C553.4 57.4 553.4 58.2 553.7 58.9C553.5 58.9 553.2 58.9 553.2 58.8C553.2 58.2 552.9 57.5 553.1 56.9C553.2 56.7 553.4 56.7 553.7 56.7Z" fill="white"/>
<path d="M549.9 51.4C549.9 52.4 549.9 53.4 549.9 54.3C549.2 53.4 549.2 52.4 549.9 51.4Z" fill="white"/>
<path d="M581.6 51.4C581.7 51.2 581.9 51 582 50.8C582.3 50.5 582.4 50.1 582.9 50C582.8 50.3 582.7 50.5 582.6 50.8C582.5 51 582.4 51.2 582.2 51.4C582.2 51.5 582.1 51.5 582.1 51.6C582 51.6 582 51.7 582 51.8C581.8 52 581.6 52.3 581.4 52.5C581.5 52.1 581.6 51.8 581.6 51.4Z" fill="white"/>
<path d="M553.9 55.6C553.4 56.5 552.6 55.5 552 55.8C551.6 55.7 551.1 56 550.9 55.4C551.9 55.5 552.9 55.7 553.9 55.6Z" fill="white"/>
<path d="M574.1 50.1C574.1 49.9 574.2 49.8 574.3 49.7C574.6 50 575 49.8 575.4 49.9C575.7 49.9 576.1 49.8 576.2 50.3C575.7 50.2 575.1 50.1 574.6 50.4C574.2 50.6 574.1 50.5 574.1 50.1Z" fill="white"/>
<path d="M574.9 51.4C575.3 51.1 576.2 51.2 576.2 50.3C576.5 50.6 576.5 51.1 576.2 51.3C575.8 51.5 575.3 51.8 574.9 51.4Z" fill="white"/>
<path d="M542 56.1C541.9 55.9 541.9 55.7 541.8 55.5C542.3 55.3 542.6 54.9 543.1 54.8C543.1 55.5 542.4 55.6 542 56.1Z" fill="white"/>
<path d="M550.9 50.3C550.8 50.9 550.4 51.2 549.8 51.4C549.8 50.7 550.2 50.3 550.9 50.3Z" fill="white"/>
<path d="M599.5 52.4C599.5 52.5 599.5 52.7 599.5 52.8C599.3 52.9 599.1 53.1 598.9 53.2C598.8 53.2 598.6 53.2 598.5 53.2C598.7 52.9 599 52.5 599.5 52.4Z" fill="white"/>
<path d="M550.3 54.8C550.7 54.8 550.9 55 550.9 55.4C550.5 55.4 550.3 55.2 550.3 54.8Z" fill="white"/>
<path d="M549.9 54.3C550.2 54.3 550.3 54.5 550.3 54.7C550 54.8 549.9 54.6 549.9 54.3Z" fill="white"/>
<path d="M583.2 49.7C583.1 49.8 583 49.9 582.9 49.9C582.9 49.7 582.9 49.5 583.2 49.5C583.2 49.6 583.2 49.6 583.2 49.7Z" fill="white"/>
<path d="M596.3 55C596.1 54.9 596.1 54.8 596.1 54.6C596.3 54.6 596.3 54.8 596.3 55Z" fill="white"/>
<path d="M590.9 47C590.8 46.9 590.8 46.8 590.7 46.7C590.7 46.8 590.8 46.9 590.9 47Z" fill="white"/>
<path d="M560.6 44.8C560.5 44.9 560.5 45 560.4 45.1C560.4 45 560.5 44.9 560.6 44.8Z" fill="white"/>
<path d="M590.6 46.5C590.5 46.4 590.5 46.4 590.4 46.3C590.5 46.4 590.6 46.5 590.6 46.5Z" fill="white"/>
<path d="M591.7 48.4C591.6 48.3 591.6 48.2 591.5 48.1C591.6 48.2 591.6 48.3 591.7 48.4Z" fill="white"/>
<path d="M583.2 49.7C583.2 49.6 583.2 49.6 583.2 49.5H583.3C583.3 49.6 583.2 49.6 583.2 49.7Z" fill="white"/>
<path d="M543.1 54.7C542.6 54.8 542.2 55.2 541.8 55.4C541.6 55.1 541.4 54.8 541.4 54.5C542.5 54.4 542.8 53.6 542.9 52.7C542.9 51.4 542.9 50 542.9 48.7C542.9 48.4 542.8 47.9 543.3 47.9C543.7 47.9 543.5 48.4 543.5 48.7C543.5 50.1 543.5 51.6 543.5 53C543.6 53.7 543.2 54.2 543.1 54.7Z" fill="white"/>
<path d="M540.3 50.3C540.4 50.3 540.4 50.3 540.5 50.3C540.9 50.4 541.5 50 541.5 50.6C541.5 51.1 540.9 51.2 540.4 51.1C540.4 50.9 540.3 50.6 540.3 50.3Z" fill="white"/>
<path d="M571.7 53.9C572.1 53.3 572.5 52.6 572.9 52C572.9 53.9 572.9 53.9 571.5 54.3C571.7 54.2 571.7 54.1 571.7 53.9Z" fill="white"/>
<path d="M571.6 54.3C573 53.9 573 53.9 573 52C573.8 52.5 573.4 53.3 573.3 53.9C573.3 54.4 572.7 54.5 572.2 54.5C572 54.5 571.7 54.5 571.5 54.5C571.6 54.5 571.6 54.4 571.6 54.3Z" fill="white"/>
<path d="M571.1 55.2C571.1 55.1 571.1 55 571.1 54.9C571.2 54.8 571.3 54.8 571.4 54.7C571.5 55 571.5 55.1 571.1 55.2Z" fill="white"/>
<path d="M585.4 45.7C585.4 45.8 585.4 45.8 585.4 45.9C585.3 46 585.2 46.1 585.2 46.3C585.2 46.3 585.1 46.4 585.1 46.5H585C584.8 45.9 584.3 46.1 584.1 46.2C583.4 46.5 584 47.2 583.8 47.8C583.1 47.4 582.9 46.6 583.2 46C583.6 45.3 584.5 45.1 585.4 45.7Z" fill="white"/>
<path d="M584.1 49.3C584.2 49.3 584.2 49.2 584.1 49.3C584.2 49.2 584.2 49.3 584.1 49.3Z" fill="white"/>
<path d="M571.5 55.4C571.5 55.5 571.5 55.5 571.5 55.6C571.4 55.5 571.4 55.5 571.5 55.4Z" fill="white"/>
<path d="M585 46.5C584.6 47.2 584.1 47.9 583.7 48.7C583.2 48.3 582.6 47.9 582.5 47.2C582.3 45.7 583.1 44.7 584.5 44.9C584.9 44.9 585.3 45 585.7 45.1C585.6 45.3 585.6 45.6 585.3 45.7C584.5 45.2 583.6 45.3 583.1 46C582.8 46.5 583 47.3 583.7 47.8C583.9 47.3 583.2 46.6 584 46.2C584.3 46 584.8 45.9 585 46.5Z" fill="white"/>
<path d="M545.9 51.2C546.4 50.9 546.7 50.2 547.5 50.4C547.7 50.4 547.9 50.4 547.9 50.6C548 50.8 547.9 51 547.7 51C546.2 51.4 546.5 52.6 546.5 53.7C546.5 54.2 546.8 55.2 546.1 55.2C545.2 55.2 545.7 54.2 545.7 53.6C545.6 52.8 545.7 52 545.9 51.2Z" fill="white"/>
<path d="M580.2 54.8C580.1 55 579.9 55.2 579.8 55.5C578.4 55.3 577.9 54.8 577.9 53.4C577.9 52.1 577.9 50.8 577.9 49.5C577.9 49.3 577.9 49 578.2 48.9C578.5 48.9 578.6 49.2 578.5 49.4C578.5 50.2 578.9 50.3 579.6 50.3C580.2 50.3 580.9 50.3 581.5 50.3C581.9 50.8 581.6 51.1 581.1 51.1C580.8 51.2 580.5 51.1 580.2 51.1C579.7 51.2 578.9 50.8 578.7 51.4C578.4 52.1 578.5 53 578.7 53.7C578.7 53.8 578.9 53.8 579 53.8C578.8 55 579.9 54.3 580.2 54.8Z" fill="white"/>
<path d="M596.4 55C596.4 54.8 596.4 54.7 596.2 54.6C595.6 53.6 595.8 52.5 596 51.5C596.7 50.9 597.4 50.3 598.5 50.4C599.8 50.6 600.1 51.1 599.6 52.5C599.1 52.6 598.8 53 598.6 53.3C597.9 53.4 598 52.9 598 52.5C598 52.4 598 52.2 598 52C598.4 52 598.8 51.7 598.7 51.4C598.6 50.9 598.1 51.2 597.8 51.2C597.1 51.2 596.6 51.6 596.5 52.4C596.4 53.2 596.4 54.1 597.3 54.6C597.7 54.8 598.1 54.9 598.5 54.8C598.8 54.8 599.1 54.7 599.1 55.2C599.1 55.6 598.7 55.7 598.4 55.7C597.8 55.5 597.1 55.2 596.4 55Z" fill="white"/>
<path d="M581.6 51.4C581.5 51.8 581.5 52.1 581.4 52.5C581.3 52.5 581.2 52.5 581.2 52.5C580.8 52.5 580.7 52.8 580.5 53.2C580.1 54.5 580.1 54.5 578.8 54C578.8 53.8 578.8 53.6 578.8 53.4C578.8 51.5 578.8 51.5 580.7 51.5C581.1 51.4 581.3 51.4 581.6 51.4Z" fill="white"/>
<path d="M597.8 52.4C597.8 52.9 597.8 53.3 598.4 53.2C598.2 53.8 597.8 53.7 597.5 53.4C597.3 53.1 597.1 52.6 597.8 52.4Z" fill="white"/>
<path d="M598 52C598 52.2 598 52.3 597.8 52.4C597.8 52.3 597.9 52.1 598 52Z" fill="white"/>
<path d="M551.5 52C551.5 51.8 551.5 51.7 551.8 51.7C551.8 51.7 551.9 51.7 551.9 51.8C551.9 52 551.7 52 551.5 52C551.6 52 551.5 52 551.5 52Z" fill="white"/>
<path d="M578.9 53.9C580.2 54.4 580.2 54.4 580.6 53.1C580.7 52.7 580.8 52.5 581.3 52.4C581.3 52.6 581.3 52.8 581.3 53C581 53.6 580.7 54.2 580.3 54.7C579.9 54.3 578.8 55 578.9 53.9Z" fill="white"/>
<path d="M581.2 53C581.2 52.8 581.2 52.6 581.2 52.4C581.3 52.4 581.4 52.4 581.4 52.4C581.4 52.7 581.4 52.9 581.2 53Z" fill="white"/>
<path d="M731.3 51.6L741.1 66.9L750.1 61.7L737.3 41.5L731.3 51.6Z" fill="white"/>
<path d="M758.3 55.5V51.3L744.3 29.5L739.1 38.3L752.6 60.1L757.5 57.3C758 56.9 758.3 56.3 758.3 55.7V55.5Z" fill="white"/>
<path d="M699.6 59.5L706.5 63.5L729.4 26.7L725.5 26.6C722.2 26.6 718.6 27.4 717 30.1L704 50.3L699.6 57V59.5Z" fill="white"/>
<path d="M742.7 26.7H732.5L709.2 65L717.4 69.7L719.6 65.9L742.7 26.7Z" fill="white"/>
<path d="M762.6 26.6C762.5 24.5 761.4 22.5 759.5 21.3L734 6.69999C732.2 5.79999 729.9 5.79999 728.1 6.69999C727.9 6.79999 703.3 21.1 703.3 21.1C703 21.3 702.6 21.5 702.3 21.7C700.7 22.9 699.7 24.7 699.6 26.7V57L704 50.3V26.9C704 26.8 704 26.7 704 26.6C704.1 26 704.4 25.6 704.9 25.2C705 25.1 730 10.6 730.1 10.6C730.7 10.3 731.4 10.3 732 10.6L757.2 25C757.8 25.4 758.2 26 758.2 26.7V55.7C758.2 56.3 757.9 56.9 757.4 57.3L752.5 60.1L750 61.6L741 66.8L731.9 72.1C731.4 72.3 730.8 72.3 730.3 72.1L719.5 65.9L717.3 69.6L727 75.2C727.3 75.4 727.6 75.5 727.8 75.7C728.2 75.9 728.4 76 728.5 76.1C729.2 76.4 730.2 76.6 731.1 76.6C731.9 76.6 732.7 76.4 733.5 76.2L760 60.8C761.5 59.6 762.4 57.8 762.5 55.9V26.6H762.6Z" fill="white"/>
<path d="M680.5 88.5C680.8 88.5 681 88.6 681.2 88.7C681.4 88.8 681.6 89 681.8 89.4L685.5 96.1C685.5 96.2 685.5 96.2 685.5 96.3C685.5 96.3 685.4 96.4 685.3 96.4H683.9C683.8 96.4 683.7 96.4 683.6 96.3L682.8 94.9H677.6L676.8 96.3C676.7 96.4 676.7 96.4 676.5 96.4H675.2C675.1 96.4 675 96.4 675 96.3C675 96.3 675 96.2 675 96.1L678.6 89.4C678.9 89 679 88.8 679.2 88.7C679.4 88.6 679.6 88.5 679.8 88.5H680.5ZM678.3 93.4H682.1L680.3 90.2C680.3 90.1 680.2 90.1 680.2 90.1C680.1 90.1 680.1 90.1 680.1 90.2L678.3 93.4Z" fill="white"/>
<path d="M697.1 88.5C697.9 88.5 698.6 88.7 698.9 89.1C699.3 89.5 699.5 90.1 699.5 90.8V91.4C699.5 92 699.4 92.5 699.1 92.9C698.8 93.3 698.4 93.5 697.8 93.6L699.7 95.9C699.7 95.9 699.7 96 699.7 96.1C699.7 96.2 699.6 96.2 699.5 96.2H698.1C698 96.2 697.9 96.2 697.9 96.2L697.8 96.1L696 93.8H692.4V96C692.4 96.2 692.3 96.2 692.2 96.2H691C690.8 96.2 690.7 96.1 690.7 96V88.8C690.7 88.6 690.8 88.5 691 88.5H697.1ZM692.5 92.4H696.7C697.1 92.4 697.3 92.3 697.5 92.2C697.7 92 697.7 91.8 697.7 91.5V91C697.7 90.7 697.6 90.4 697.5 90.3C697.3 90.1 697.1 90.1 696.7 90.1H692.6C692.5 90.1 692.5 90.1 692.5 90.2V92.4Z" fill="white"/>
<path d="M711.8 88.5C712.6 88.5 713.1 88.7 713.4 89C713.7 89.3 713.9 89.8 713.9 90.4V90.9C713.9 91.5 713.7 92 713.2 92.3C713.7 92.6 714 93.1 714 93.7V94.3C714 94.6 714 94.9 713.9 95.1C713.8 95.3 713.7 95.5 713.6 95.7C713.4 95.9 713.2 96 713 96.1C712.7 96.2 712.4 96.2 712.1 96.2H705.5C705.3 96.2 705.2 96.1 705.2 95.9V88.8C705.2 88.6 705.3 88.5 705.5 88.5H711.8ZM706.8 91.7H711.3C711.7 91.7 711.9 91.6 712.1 91.5C712.2 91.4 712.3 91.2 712.3 91V90.6C712.3 90.4 712.2 90.2 712.1 90.1C712 90.1 711.8 90 711.5 90H707C706.9 90 706.9 90 706.9 90.1L706.8 91.7ZM706.8 92.9V94.6C706.8 94.7 706.8 94.7 706.9 94.7H711.4C711.7 94.7 711.9 94.6 712 94.5C712.1 94.4 712.2 94.2 712.2 94V93.6C712.2 93.4 712.1 93.2 712 93.1C711.9 93 711.6 92.9 711.2 92.9H706.8Z" fill="white"/>
<path d="M721 88.5C721.2 88.5 721.2 88.6 721.2 88.7V96C721.2 96.2 721.1 96.2 721 96.2H719.8C719.6 96.2 719.5 96.1 719.5 96V88.7C719.5 88.5 719.6 88.5 719.8 88.5H721Z" fill="white"/>
<path d="M735.5 88.5C735.7 88.5 735.8 88.6 735.8 88.7V89.8C735.8 90 735.7 90.1 735.5 90.1H732V96C732 96.2 731.9 96.2 731.8 96.2H730.6C730.4 96.2 730.4 96.1 730.4 96V90.1H726.9C726.7 90.1 726.6 90 726.6 89.8V88.7C726.6 88.5 726.7 88.5 726.9 88.5H735.5Z" fill="white"/>
<path d="M747.4 88.5C748.2 88.5 748.9 88.7 749.2 89.1C749.6 89.5 749.8 90.1 749.8 90.8V91.4C749.8 92 749.7 92.5 749.4 92.9C749.1 93.3 748.7 93.5 748.1 93.6L750 96C750 96 750 96.1 750 96.2C750 96.3 749.9 96.3 749.8 96.3H748.4C748.3 96.3 748.2 96.3 748.2 96.3L748.1 96.2L746.3 93.9H742.7V96C742.7 96.2 742.6 96.2 742.5 96.2H741.3C741.1 96.2 741 96.1 741 96V88.8C741 88.6 741.1 88.5 741.3 88.5H747.4ZM742.8 92.4H747C747.4 92.4 747.6 92.3 747.8 92.2C748 92 748 91.8 748 91.5V91C748 90.7 747.9 90.4 747.8 90.3C747.6 90.1 747.4 90.1 747 90.1H743C742.9 90.1 742.9 90.1 742.9 90.2L742.8 92.4Z" fill="white"/>
<path d="M756.8 88.5C757 88.5 757 88.6 757 88.7V93.1C757 93.4 757 93.6 757.1 93.8C757.1 94 757.2 94.2 757.3 94.3C757.4 94.4 757.6 94.5 757.7 94.5C757.9 94.5 758.1 94.6 758.4 94.6H761.5C761.8 94.6 762 94.6 762.2 94.5C762.4 94.5 762.5 94.4 762.6 94.3C762.7 94.2 762.8 94 762.8 93.8C762.8 93.6 762.9 93.4 762.9 93.1V88.7C762.9 88.5 763 88.5 763.1 88.5H764.3C764.5 88.5 764.5 88.6 764.5 88.7V93.3C764.5 93.8 764.4 94.3 764.3 94.7C764.2 95.1 764 95.4 763.8 95.6C763.6 95.8 763.2 96 762.8 96.1C762.4 96.2 761.9 96.3 761.4 96.3H758.2C757.6 96.3 757.2 96.2 756.8 96.1C756.4 96 756.1 95.8 755.8 95.6C755.6 95.4 755.4 95.1 755.3 94.7C755.2 94.3 755.1 93.9 755.1 93.3V88.7C755.1 88.5 755.2 88.5 755.4 88.5H756.8Z" fill="white"/>
<path d="M772.6 88.5C772.8 88.5 772.9 88.5 773 88.5C773.1 88.5 773.2 88.6 773.3 88.6C773.4 88.7 773.5 88.7 773.5 88.9C773.6 89 773.6 89.1 773.7 89.3L776 94.6C776 94.7 776.1 94.7 776.2 94.7H776.3C776.4 94.7 776.4 94.7 776.5 94.6L778.8 89.3C778.9 89.1 778.9 89 779 88.9C779.1 88.8 779.1 88.7 779.2 88.6C779.3 88.5 779.4 88.5 779.5 88.5C779.6 88.5 779.8 88.5 779.9 88.5H781.1C781.5 88.5 781.7 88.6 781.9 88.8C782 89 782.1 89.3 782.1 89.7V96C782.1 96.2 782 96.2 781.8 96.2H780.7C780.5 96.2 780.5 96.1 780.5 96V90.2C780.5 90.1 780.5 90.1 780.4 90.1H780.3C780.2 90.1 780.2 90.1 780.2 90.2L778 95.2C777.9 95.4 777.8 95.6 777.7 95.7C777.6 95.8 777.5 95.9 777.4 96C777.3 96.1 777.2 96.2 777 96.2C776.9 96.2 776.7 96.3 776.5 96.3H776C775.8 96.3 775.7 96.3 775.5 96.2C775.4 96.2 775.2 96.1 775.1 96C775 95.9 774.9 95.8 774.8 95.7C774.7 95.6 774.6 95.4 774.5 95.2L772.3 90.2C772.3 90.1 772.2 90.1 772.2 90.1H772.1C772 90.1 772 90.1 772 90.2V96C772 96.2 771.9 96.2 771.8 96.2H770.7C770.5 96.2 770.4 96.1 770.4 96V89.6C770.4 89.2 770.5 88.9 770.6 88.7C770.7 88.5 771 88.4 771.4 88.4L772.6 88.5Z" fill="white"/>
<path d="M68.1001 51.6V68.8L89.3001 39.1L68.1001 51.6Z" fill="white"/>
<path d="M68.1001 25.5V47.6L89.3001 35.1L68.1001 25.5Z" fill="white"/>
<path d="M68.1001 0V25.5L89.3001 35.1L68.1001 0Z" fill="white"/>
<path d="M68.1 51.6V68.8L47 39.1L68.1 51.6Z" fill="white"/>
<path d="M68.1 25.5V47.6L47 35.1L68.1 25.5Z" fill="white"/>
<path d="M68.1 0V25.5L47 35.1L68.1 0Z" fill="white"/>
<path d="M1.6 90.9C1.7 93.1 3.6 95.9 6.7 96C8.8 96 10.1 95 11 93.8C11.2 93.6 11.5 93.5 11.7 93.7C11.8 93.8 11.9 93.9 11.9 94C11.9 94.1 11.9 94.3 11.8 94.4C11 95.6 9.2 97.2 6.5 97.1C4.5 97.1 3 96 2 94.9C1.1 94 0.5 92.4 0.5 90.5C0.5 88.6 1.1 87.1 2.2 85.9C3.3 84.7 4.7 83.9 6.6 83.9C8.5 83.9 9.8 84.6 10.9 85.8C12.3 87.3 12.7 88.8 12.7 90.5C12.7 90.6 12.7 90.8 12.6 90.9C12.5 91 12.4 91.1 12.2 91.1C9.8 90.9 1.6 90.9 1.6 90.9ZM6.6 84.9C5.2 84.9 4.2 85.5 3.3 86.3C2.4 87.1 1.8 88.6 1.7 89.9H11.6C11.5 88.5 10.9 87.3 10.1 86.4C9.2 85.6 8.4 84.9 6.6 84.9Z" fill="white" stroke="white" stroke-miterlimit="10"/>
<path d="M50.6 90.9C50.7 93.1 52.6 95.9 55.7 96C57.8 96 59.1 95 60 93.8C60.2 93.6 60.5 93.5 60.7 93.7C60.8 93.8 60.9 93.9 60.9 94C60.9 94.1 60.9 94.3 60.8 94.4C60 95.6 58.2 97.2 55.5 97.1C53.5 97.1 52 96 51 94.9C50.1 94 49.5 92.4 49.5 90.5C49.5 88.6 50.1 87.1 51.2 85.9C52.3 84.7 53.7 83.9 55.6 83.9C57.5 83.9 58.8 84.6 59.9 85.8C61.3 87.3 61.7 88.8 61.7 90.5C61.7 90.6 61.7 90.8 61.6 90.9C61.5 91 61.4 91.1 61.2 91.1C58.8 90.9 50.6 90.9 50.6 90.9ZM55.6 84.9C54.2 84.9 53.2 85.5 52.3 86.3C51.4 87.1 50.8 88.6 50.7 89.9H60.6C60.5 88.5 59.9 87.3 59.1 86.4C58.2 85.6 57.4 84.9 55.6 84.9Z" fill="white" stroke="white" stroke-miterlimit="10"/>
<path d="M80.9 90.9C81 93.1 82.9 95.9 86 96C88.1 96 89.4 95 90.3 93.8C90.5 93.6 90.8 93.5 91 93.7C91.1 93.8 91.2 93.9 91.2 94C91.2 94.1 91.2 94.3 91.1 94.4C90.3 95.6 88.5 97.2 85.8 97.1C83.8 97.1 82.3 96 81.3 94.9C80.4 94 79.8 92.4 79.8 90.5C79.8 88.6 80.4 87.1 81.5 85.9C82.6 84.7 84 83.9 85.9 83.9C87.8 83.9 89.1 84.6 90.2 85.8C91.6 87.3 92 88.8 92 90.5C92 90.6 92 90.8 91.9 90.9C91.8 91 91.7 91.1 91.5 91.1C89.1 90.9 80.9 90.9 80.9 90.9ZM85.9 84.9C84.5 84.9 83.5 85.5 82.6 86.3C81.7 87.1 81.1 88.6 81 89.9H90.9C90.8 88.5 90.2 87.3 89.4 86.4C88.5 85.6 87.7 84.9 85.9 84.9Z" fill="white" stroke="white" stroke-miterlimit="10"/>
<path d="M22.6 85.1V96.4C22.6 96.7 22.4001 96.9 22.1 96.9C21.8001 96.9 21.6 96.7 21.6 96.4V85.1H18.8C18.5 85.1 18.3 84.9 18.3 84.6C18.3 84.3 18.5 84.1 18.8 84.1H21.6V80C21.6 79.7 21.8001 79.5 22.1 79.5C22.4001 79.5 22.6 79.7 22.6 80V84.2H25.5C25.8 84.2 26 84.4 26 84.7C26 85 25.8 85.2 25.5 85.2H22.6V85.1Z" fill="white" stroke="white" stroke-miterlimit="10"/>
<path d="M38.6 84C36.6 83.7 34.8 84.4 33.5 86.5V74C33.5 73.7 33.3 73.5 33 73.5C32.7 73.5 32.5 73.7 32.5 74V96.3C32.5 96.6 32.7 96.8 33 96.8C33.3 96.8 33.5 96.6 33.5 96.3V88.8C33.5 86.7 36.2 84.4 38.6 85C40.2 85.4 41.7 86.9 41.7 89.4V96.4C41.7 96.7 41.9 96.9 42.2 96.9C42.5 96.9 42.7 96.7 42.7 96.4V89.4C42.8 87.2 41.4 84.4 38.6 84Z" fill="white" stroke="white" stroke-miterlimit="10"/>
<path d="M102.9 97.1C104.9 97.4 106.7 96.7 108 94.6V96.4C108 96.7 108.2 96.9 108.5 96.9C108.8 96.9 109 96.7 109 96.4V84.7C109 84.4 108.8 84.2 108.5 84.2C108.2 84.2 108 84.4 108 84.7L108.1 90.9C108.1 94.1 105.6 96.7 103 96.1C101.4 95.8 99.8 94.2 99.8 91.7V84.7C99.8 84.4 99.6 84.2 99.3 84.2C99 84.2 98.8 84.4 98.8 84.7V91.7C98.8 94.3 100.2 96.7 102.9 97.1Z" fill="white" stroke="white" stroke-miterlimit="10"/>
<path d="M131.6 84C129.7 83.7 127.2 84.6 126.2 87.3C125.6 85.7 124.3 84.3 122.3 84C120.3 83.7 118.5 84.3 117.2 86.4V84.6C117.2 84.3 117 84.1 116.7 84.1C116.4 84.1 116.2 84.3 116.2 84.6V96.2C116.2 96.5 116.4 96.7 116.7 96.7C117 96.7 117.2 96.5 117.2 96.2L117.1 90C117.1 86.8 119.6 84.3 122.2 84.8C123.7 85.1 125.3 86.6 125.4 88.9V96.1C125.4 96.1 125.4 96.1 125.4 96.2C125.4 96.5 125.7 96.7 126 96.7C126.3 96.7 126.5 96.5 126.5 96.2V94.5C126.5 93.4 126.5 91.9 126.5 90.8C126.5 87.3 128.1 84.3 131.5 84.8C133.1 85 134.7 86.7 134.7 89.2V96.2C134.7 96.5 134.9 96.7 135.2 96.7C135.5 96.7 135.7 96.5 135.7 96.2V89.2C135.9 87.2 134.4 84.4 131.6 84Z" fill="white" stroke="white" stroke-miterlimit="10"/>
<path d="M74.7001 84.7C74.7001 84.6 74.6001 84.4 74.5001 84.3C74.4001 84.2 74.2001 84.2 74.1001 84.2C72.1001 84.3 70.1001 85.9 69.6001 87.2V84.6C69.6001 84.3 69.4001 84.1 69.1001 84.1C68.8001 84.1 68.6001 84.3 68.6001 84.6V96.2C68.6001 96.5 68.8001 96.7 69.1001 96.7C69.4001 96.7 69.6001 96.5 69.6001 96.2V90.4C69.6001 87.6 71.8001 85.2 74.2001 85.1C74.5001 85.1 74.7001 84.9 74.7001 84.7Z" fill="white" stroke="white" stroke-miterlimit="10"/>
<path d="M225.8 33.9438C225.9 33.834 226 33.7243 226.1 33.6145C226.2 33.834 226.3 33.834 226.5 33.7243C228.6 32.517 230.7 31.3098 232.6 29.7732C233.1 29.444 233.6 28.6757 234.4 29.1147C234.6 29.2245 234.6 29.883 235 29.444C235.3 29.2245 235 28.8952 235 28.566C235 28.3465 235.1 28.0172 235.1 27.7977C235.4 27.9075 235.8 27.7977 236.1 27.688C237.8 26.7002 239.4 25.493 241.1 24.5052C242.7 23.5174 244.4 22.6394 246 21.5419C247.4 20.5542 248.8 21.5419 250.2 21.8712C250.3 22.2004 250.6 22.0907 250.8 22.2004C251.4 23.4077 252.6 23.9564 253.6 24.6149C254.4 25.2735 255.5 26.0417 256.7 25.932C256.7 26.1515 256.7 26.371 256.9 26.4807C259 27.7977 261 29.2245 263.2 30.322C265.5 31.5293 266.7 33.5048 266.7 36.2485C266.7 41.4068 266.7 46.6749 266.7 51.8332C265.8 51.8332 264.9 51.5039 264.2 52.3819C263.9 52.3819 263.7 52.6014 263.7 52.9307C263.1 52.9307 262.9 53.4794 262.8 53.9184C262.5 54.9062 262.3 56.0037 262.7 57.1012C262.1 57.8695 262.3 58.4182 263.2 58.7475C263.3 58.8572 263.4 59.0767 263.5 59.1865C263.3 59.2962 263.2 59.2962 263 59.406C262.9 59.406 262.7 59.2962 262.7 59.2962C260.8 60.723 258.6 61.3815 256.8 62.918C255.3 64.1253 253.5 64.7838 251.9 65.991C250.9 66.6496 249.8 67.3081 248.7 67.8568C248.3 68.0763 247.9 68.0763 247.5 67.9666C246 67.9666 245 66.9788 243.9 66.43C241.9 65.4423 240.2 63.9058 238.2 62.918C237.2 62.3693 236.4 61.2718 235.1 61.3815C235 61.162 234.9 60.9425 234.9 60.723C234.8 59.845 235.9 60.284 235.9 59.6255H236H236.1C236.4 59.6255 236.6 59.5157 236.6 59.0767C237.5 58.1987 237.2 56.772 237.6 55.7842C238.2 55.6745 238.8 55.5647 239.4 55.455C239.5 56.4427 240.4 56.4427 240.9 56.8817C240.9 57.1012 240.9 57.3207 241.2 57.4305C241.2 57.9792 241.3 58.528 242 58.528C242.1 58.6377 242.2 58.7475 242.3 58.8572C242.6 60.0645 243.6 59.7352 244.3 59.9547C244.9 59.9547 245.5 60.0645 246 60.1742C247.4 60.284 248.9 60.723 250.2 59.9547C250.8 59.6255 251.3 59.2962 251.9 59.7352C253.5 59.7352 253.6 59.5157 253.4 57.5402C254.2 57.4305 254.6 56.5525 255.4 56.4427C255.4 56.9915 255.4 57.65 255.4 58.1987C255.4 59.0767 255.6 59.7352 256.5 59.7352C257.5 59.7352 257.4 58.8572 257.4 58.1987C257.4 57.3207 257.4 56.4427 257.4 55.6745C257.6 55.0159 258 54.6867 258.7 54.5769C259.1 56.0037 259.2 57.5402 259.2 58.967C259.2 59.406 259.3 59.9547 259.8 60.0645C260.4 60.1742 260.8 59.845 260.8 59.2962C260.9 57.3207 261.5 55.2355 260.2 53.4794C260.2 53.3697 260.2 53.2599 260.2 53.1502C261.2 52.2722 260.5 51.1747 260.7 50.0772C260.7 46.7846 260.7 43.4921 260.7 40.1996C260.7 39.6508 260.7 38.9923 260.4 38.4436C260.5 37.5656 260.2 36.9071 259.4 36.5778C258.8 36.1388 258.7 35.2608 257.9 35.151C257.8 34.4925 257.4 34.3828 256.8 34.3828C256 33.1755 254.9 32.6268 253.6 32.4073C253.6 31.8585 253.2 31.4195 252.8 31.2C251.6 30.5415 250.5 29.6635 249.3 29.2245C248.2 28.8952 246.7 28.4562 245.7 29.883C245.6 29.883 245.6 29.883 245.5 29.883C245.4 29.9927 245.3 30.1025 245.2 30.2122C244.8 30.2122 244.5 30.2122 244.1 30.4317C241.4 31.8585 239 33.7243 236.4 35.2608C236 35.4803 235.1 35.59 235.1 36.5778C234.5 36.5778 233.9 36.468 233.8 37.4558C232.9 37.4558 232.3 38.0046 231.8 38.6631C229.9 39.2118 228.2 40.0898 227 41.7361C226.6 41.8458 226.1 41.9556 225.9 42.3946C225.6 42.3946 225.4 42.3946 225.3 42.7238C224.8 42.6141 224.4 42.8336 224 43.0531C221.6 44.4799 219.2 46.0164 216.9 47.5529C216.3 47.9919 215.7 47.9919 215 48.2114C213.5 48.5406 212.4 47.5529 211.4 46.8944C209 45.3579 206.6 44.0409 204.3 42.2848C203.6 41.7361 202.8 41.2971 201.8 41.2971C201.6 40.6386 201.2 40.3093 200.5 40.5288C200.4 39.8703 199.8 39.6508 199.4 39.4313C196.8 38.2241 195.4 36.3583 195.5 33.0658C195.6 27.4685 195.5 21.8712 195.5 16.2739C195.5 14.9569 195.5 13.6399 196.6 12.6521C196.8 12.4326 197 12.1033 196.9 11.6643C197.9 11.7741 198.6 11.1156 199.3 10.5668C200.4 9.57907 201.9 9.35957 202.7 7.9328C203.4 8.04255 204 7.9328 204.2 7.0548C205 7.16455 205.6 6.83529 206 5.95729C206.9 5.84754 207.7 5.62803 208 4.64028C208.7 4.75003 209.2 4.31102 209.8 3.98177C211.3 3.10376 212.6 2.00625 214.2 1.4575C214.3 1.4575 214.4 1.34775 214.5 1.34775C216.2 2.22576 217.9 3.21351 219.5 4.09152C220.5 4.64028 221.1 6.17679 222.6 5.62803C223.8 6.83529 225.1 7.9328 226.8 8.26206C227.8 9.79857 229.4 10.3473 230.9 11.0058C230.9 11.6643 231.3 11.6643 231.7 11.5546C231.8 11.7741 231.8 11.9936 232 12.1033C233.2 13.4204 233.7 15.0666 233.7 16.8226C233.7 18.1396 233.7 19.5664 233.7 20.8834C233.7 21.6517 233.6 22.2004 232.8 22.3102C232.2 22.4199 231.9 22.9687 231.7 23.6272C231.2 23.5174 230.8 23.6272 230.7 24.1759C230.5 24.1759 230.2 24.1759 230.2 24.5052C230.1 24.6149 230 24.7247 229.9 24.7247C229.7 24.7247 229.5 24.7247 229.4 25.0539C229.1 25.0539 228.8 25.0539 228.6 25.1637C228 25.3832 227.6 25.1637 227.6 24.3954C227.6 22.7492 227.4 21.1029 227.7 19.5664C228 17.9201 227.1 17.4811 226.3 16.7129C226.5 16.0544 226 15.7251 225.7 15.5056C224.9 14.9569 224.2 14.4081 223.4 13.9691C222.2 13.2008 220.7 12.9813 220.1 11.4448C220.1 11.3351 219.9 11.3351 219.8 11.3351C219 11.6643 218.6 11.0058 218.1 10.6766C216.2 9.03031 214.2 8.92056 212.1 10.2376C210 11.5546 207.9 12.6521 205.9 13.9691C205.2 14.5179 203.9 14.6276 203.7 15.9446C202.6 16.1641 201.5 17.9201 201.6 19.0176C202 21.7614 201.9 24.6149 201.7 27.3587C201.6 28.7855 201.6 30.2122 201.8 31.5293C202 32.956 203.2 34.273 204.6 34.4925C204.7 35.2608 205.3 35.2608 205.9 35.3705C206.7 36.6875 207.9 37.2363 209.2 37.5656C209.4 38.7728 210.6 38.5533 211.2 39.2118C212.6 40.6386 214.3 40.6386 216 40.1996C217.7 39.8703 218.8 38.1143 220.5 37.6753C220.7 37.6753 220.6 37.2363 220.6 36.9071C222.7 36.6875 224.2 35.0413 225.8 33.9438Z" fill="white"/>
<path d="M250.8 96.1725C250.4 99.026 248.9 101.111 246.5 102.099C243 103.636 239.6 103.416 236.4 101.002C235.7 100.453 235.5 100.014 236.2 99.3552C236.4 99.2455 236.5 99.026 236.6 98.8065C237 98.2577 237.4 97.4895 237.9 97.1602C238.6 96.7212 238.9 97.8187 239.5 98.148C240.6 98.6967 241.6 99.026 242.8 98.8065C245 98.3675 246.8 97.709 246.1 94.0872C243.7 96.392 241 96.2822 238.2 95.2945C235.3 94.197 233.8 91.2337 234 87.6119C234.2 83.9901 236.2 81.1366 239.4 80.2586C241.6 79.6001 243.6 79.8196 245.5 81.2463C245.9 81.5756 246.3 82.0146 246.5 81.0268C246.6 80.5878 247 80.6976 247.2 80.6976C248.3 80.6976 249.4 80.6976 250.5 80.6976C250.5 85.4169 250.5 90.0264 250.5 94.7457C250.5 95.1847 250.3 95.7335 250.8 96.1725ZM246.2 87.8314C246.2 84.8681 245.2 83.7706 242.6 83.7706C240.1 83.7706 238.7 85.3071 238.7 87.8314C238.7 90.3557 240.2 92.0019 242.6 92.0019C245.3 92.0019 246.2 91.0142 246.2 87.8314Z" fill="white"/>
<path d="M179.4 101.331C179.6 102.099 179.5 102.538 178.6 102.428C177.7 102.319 176.8 102.319 175.8 102.428C175.1 102.428 175 102.209 175 101.441C175 94.636 175 87.8314 175 81.0268C175 80.2586 175.2 79.9293 175.9 80.0391C176.3 80.0391 176.7 80.0391 177.2 80.0391C178.2 80.0391 179.6 79.6001 179 81.9049C182.4 78.9416 186.8 79.0513 189.5 81.9049C192 84.5389 192.2 89.3679 190.1 92.5507C188.2 95.2945 183.6 97.1602 179.7 94.4165C179.3 94.636 179.7 95.1847 179.4 95.514C178.9 97.4895 178.9 99.465 179.4 101.331ZM183.2 83.9901C180.7 83.9901 179.6 85.1974 179.6 87.8314C179.6 88.3802 179.6 88.9289 179.6 89.4777C179.5 90.7947 180.1 91.4532 181.1 91.8922C181.8 92.2214 182.6 92.3312 183.4 92.3312C185.6 92.1117 187 90.4654 186.9 87.9412C186.8 85.3071 185.5 83.9901 183.2 83.9901Z" fill="white"/>
<path d="M200.9 79.8196C208.2 79.8196 209.9 86.8436 208 91.5629C207.7 92.3312 207.3 92.8799 206.8 93.4287C204.2 96.392 198.6 96.7212 195.6 93.9774C192.9 91.5629 192.2 86.5144 194.2 83.2219C195.8 80.6976 198.2 79.9293 200.9 79.8196ZM204.2 87.7216C204.2 85.4169 202.7 83.5511 200.8 83.6609C198.9 83.6609 197.4 85.5266 197.4 87.8314C197.4 90.1362 199 92.0019 200.8 92.0019C202.7 92.0019 204.3 90.1362 204.2 87.7216Z" fill="white"/>
<path d="M261 79.8196C266.8 79.8196 269.9 83.9901 268.8 89.9167C268.3 92.8799 266.1 94.9652 263 95.6237C261.4 95.953 259.8 95.8432 258.3 95.4042C254.7 94.1969 252.9 90.9044 253.4 86.5144C253.8 82.7829 256.5 80.1488 260 79.9293C260.5 79.8196 260.9 79.8196 261 79.8196ZM264.6 87.7216C264.6 85.4169 263.1 83.5511 261.2 83.5511C259.3 83.5511 257.8 85.4169 257.7 87.6119C257.7 89.9167 259.3 91.8922 261.2 91.8922C263.1 91.8922 264.6 90.0264 264.6 87.7216Z" fill="white"/>
<path d="M275.6 95.4042C274.8 95.514 274.1 95.6237 273.3 95.4042C273.2 95.1847 273.1 95.1847 273 95.4042C272.8 95.514 272.5 95.514 272.3 95.4042C272.2 95.1847 272.1 95.1847 272 95.4042C271.7 95.4042 271.7 95.1847 271.7 94.9652C271.7 90.3557 271.7 85.6364 271.8 81.0268C271.9 80.9171 272 80.8073 272.1 80.8073C272.7 80.8073 273.3 80.8073 273.9 80.6976C275.2 80.4781 276.2 80.6976 275.9 83.0023C277.9 80.1488 280.1 79.3806 282.9 80.1488C284.9 80.8073 286.2 82.4536 286.2 84.7584C286.3 88.0509 286.2 91.2337 286.2 94.5262C286.2 95.2945 286 95.514 285.3 95.514C284.3 95.514 283.4 95.4042 282.4 95.514C281.7 95.514 281.6 95.1847 281.6 94.5262C281.6 92.0019 281.6 89.3679 281.6 86.8436C281.6 85.7461 281.6 84.4291 280.4 84.0999C279.2 83.6609 278.1 84.3194 277.3 85.3071C276.5 86.4046 276.1 87.6119 276.1 89.0386C276.1 91.0142 276.1 92.8799 276.1 94.8555C275.7 94.7457 275.6 95.075 275.6 95.4042Z" fill="white"/>
<path d="M226.4 89.3679C227.5 86.7339 228.6 84.2096 229.6 81.5756C229.9 80.9171 230.2 80.5878 230.9 80.5878C231.9 80.6976 232.8 80.5878 233.9 80.5878C232.9 83.2219 231.9 85.6364 230.9 88.0509C229.1 92.5507 227.2 97.0505 225.5 101.55C225.2 102.428 224.8 102.758 223.9 102.648C222.9 102.538 221.8 102.648 220.6 102.648C221.4 100.672 222.1 98.8065 223 97.0505C223.9 95.4042 223.9 93.9774 223 92.2214C221.3 88.8191 219.8 85.3071 218.2 81.7951C218 81.4658 217.8 81.1366 217.9 80.5878C219.3 80.5878 220.7 80.5878 222.1 80.5878C222.8 80.5878 222.9 81.0268 223.1 81.5756C224 83.8804 224.9 86.0754 225.9 88.3801C226 88.7094 226 89.0387 226.4 89.3679Z" fill="white"/>
<path d="M211.4 81.9049C211.4 77.8441 211.4 73.6735 211.4 69.6128C211.4 68.7347 211.6 68.4055 212.5 68.5152C213.6 68.625 215.1 67.9665 215.9 68.8445C216.6 69.6128 216.1 71.259 216.1 72.4663C216.1 79.6001 216.1 86.8436 216.1 93.9775C216.1 95.075 216 95.6237 214.8 95.4042C213.7 95.2945 212.3 95.8432 211.7 95.1847C211 94.4165 211.5 92.8799 211.5 91.7824C211.3 88.4899 211.3 85.1974 211.4 81.9049Z" fill="white"/>
<path d="M235.1 61.3814C236.4 61.1619 237.2 62.3692 238.2 62.9179C240.2 63.9057 241.9 65.4422 243.9 66.43C245 66.9787 246 67.9665 247.3 68.186C247.7 68.2957 248.1 68.2957 248.5 68.0762C249.6 67.5275 250.7 66.869 251.7 66.2105C253.3 65.113 255.1 64.4544 256.6 63.1374C258.4 61.6009 260.6 60.8327 262.5 59.5157C262.6 59.5157 262.7 59.6254 262.8 59.6254C262.4 60.3937 261.7 60.5034 261.1 60.9424C257.4 63.3569 253.6 65.6617 249.8 68.0762C248.5 68.9542 247.1 69.1737 245.7 68.4055C242.2 66.1007 238.5 63.9057 235.1 61.3814Z" fill="white"/>
<path d="M247.7 59.7352C248.7 59.8449 249.5 59.5157 250.2 58.8572C250.5 58.6377 250.9 58.4182 251.2 58.1987C253.6 56.7719 256 55.2354 258.4 53.8086C258.4 54.0281 258.4 54.3574 258.4 54.5769C257.8 54.6866 257.4 55.0159 257.1 55.6744C256.8 55.4549 256.6 55.4549 256.6 56.0036C256.3 56.0036 255.9 56.0036 255.6 56.0036C255.4 56.1134 255.2 56.2231 255.1 56.5524C254.3 56.6621 253.9 57.5402 253.1 57.6499C253 57.7597 252.8 57.8694 252.8 58.0889C252.8 59.4059 252.4 59.7352 251.4 58.5279C251.5 59.1864 251.5 59.5157 251.6 59.9547C251 59.6254 250.5 59.8449 249.9 60.1742C248.6 60.9424 247.1 60.5034 245.7 60.3937C245.1 60.3937 244.6 60.2839 244 60.1742C244.1 59.9547 244.5 59.9547 244.4 59.6254C244.3 59.4059 244.1 59.4059 243.9 59.5157C243.2 59.8449 242.7 59.1864 242 59.1864C241.9 59.0767 241.8 58.9669 241.7 58.8572C241.5 58.4182 241.4 57.9792 240.9 57.7597C240.9 57.5402 240.9 57.3207 240.6 57.2109C240.1 56.7719 239.2 56.7719 239.1 55.7841C240.9 56.8817 242.6 57.9792 244.4 58.9669C244.9 59.2962 245.4 59.5157 245.8 59.7352C246.7 59.8449 247.2 59.7352 247.7 59.7352Z" fill="white"/>
<path d="M201.9 41.297C202.8 41.297 203.7 41.736 204.4 42.2848C206.7 44.0408 209.2 45.3578 211.5 46.8943C212.5 47.5528 213.7 48.5406 215.1 48.2113C215.7 47.9918 216.4 47.9918 217 47.5528C219.3 46.0163 221.7 44.5895 224.1 43.053C224.5 42.8335 224.9 42.614 225.4 42.7238C223.2 44.4798 220.6 45.687 218.3 47.443C215.9 49.1991 213.7 49.3088 211.2 47.5528C208.4 45.5773 205.4 43.8213 202.5 41.9555C202.3 41.736 202.1 41.5165 201.9 41.297Z" fill="white"/>
<path d="M235.5 51.9428C235.8 53.0403 236.9 53.4793 237.5 54.3574C237.4 54.3574 237.3 54.3574 237.2 54.3574C236.9 54.1378 236.6 54.0281 236.2 54.0281C236 53.1501 235.8 54.1379 235.7 54.0281C235.6 53.8086 235.6 53.4793 235.5 53.2598C235.1 51.7233 234.2 50.4063 234.4 48.6503C234.5 47.5528 234.7 46.3455 234.2 45.248C233.7 44.0408 233.4 43.931 232.6 44.9188C232.3 45.248 232 45.3578 231.7 45.4675C229.1 46.4553 228.5 47.443 228.5 50.5161C228.5 51.0648 228.5 51.5038 228.5 52.0526C228.5 52.1623 228.5 52.2721 228.5 52.3818C228.5 52.9306 228.5 53.4793 228.5 54.0281C228.5 54.5769 228.5 55.2354 229 55.6744C229.4 56.2231 229.4 56.8816 229.5 57.4304C229 57.2109 229 56.5524 228.6 56.3329C228 54.9061 228.4 53.3696 228.2 51.8331C228.2 51.2843 228.2 50.7356 228.2 50.1868C228.2 49.3088 228.2 48.4308 228.2 47.443C228.7 46.565 229.6 46.3455 230.3 45.7968C231.8 44.809 233.4 43.8213 235.1 42.7238C235.1 45.0285 235.1 47.004 235.1 49.0893C235 50.2966 235 51.1746 235.5 51.9428Z" fill="white"/>
<path d="M197.1 11.5545C197.2 11.9935 197.1 12.3228 196.8 12.5423C195.7 13.53 195.7 14.847 195.7 16.164C195.7 21.7613 195.8 27.3586 195.7 32.9559C195.6 36.2485 197 38.1142 199.6 39.3215C200.1 39.541 200.6 39.7605 200.7 40.419C199.4 39.8702 198.1 39.102 197 38.1142C195.9 37.2362 195.3 35.8095 195.3 34.2729C195.3 27.9074 195.3 21.5418 195.3 15.1763C195.3 13.7495 195.8 12.4325 197.1 11.5545Z" fill="white"/>
<path d="M203.8 15.9446C204 14.6275 205.2 14.5178 206 13.969C208 12.5423 210.1 11.4448 212.2 10.2375C214.3 8.9205 216.3 9.03025 218.2 10.6765C218.7 11.0058 219.1 11.6643 219.9 11.335C220 11.335 220.2 11.335 220.2 11.4448C220.9 12.9813 222.3 13.3105 223.5 13.969C224.3 14.408 225.1 14.9568 225.8 15.5056C226.2 15.7251 226.6 16.0543 226.4 16.7128C223.3 14.1885 219.9 12.4325 216.6 10.3473C215.3 9.46925 213.8 9.68875 212.4 10.5668C209.6 12.3228 206.7 14.0788 203.8 15.9446Z" fill="white"/>
<path d="M266.6 51.9428C266.6 46.7846 266.6 41.5165 266.6 36.3582C266.6 33.5047 265.3 31.6389 263.1 30.4317C260.9 29.3342 258.9 27.7976 256.8 26.5904C256.6 26.4806 256.6 26.2611 256.6 26.0416C259.6 27.6879 262.4 29.5537 265.2 31.4194C266.1 32.0779 266.7 33.1754 266.9 34.3827C266.9 34.4924 266.9 34.6022 266.9 34.712C266.9 40.0897 266.9 45.3578 266.9 50.7356C266.9 51.2843 266.9 51.8331 266.8 52.3818C266.7 52.1623 266.6 52.0526 266.6 51.9428Z" fill="white"/>
<path d="M250.1 21.8711C248.7 21.5419 247.3 20.5541 245.9 21.5419C244.3 22.7491 242.6 23.5174 241 24.5051C239.3 25.6026 237.7 26.7001 236 27.6879C235.7 27.9074 235.4 27.9074 235 27.7977C237.3 25.9319 239.9 24.6149 242.3 22.9686C243.1 22.4199 244 21.8711 244.9 21.3224C246.7 20.3346 248.6 20.5541 250.1 21.8711Z" fill="white"/>
<path d="M204.7 34.6022C203.4 34.3827 202.1 33.0657 201.9 31.6389C201.7 30.2122 201.8 28.8952 201.8 27.4684C201.9 24.7246 202.1 21.8711 201.7 19.1273C201.5 17.9201 202.7 16.2738 203.8 16.0543C202.5 17.5908 202.1 19.4566 202.2 21.4321C202.3 23.8466 202.3 26.3709 202.2 28.7854C202.1 31.3097 202.8 33.2852 204.7 34.6022Z" fill="white"/>
<path d="M220.7 37.0167C220.8 37.2362 220.9 37.6752 220.6 37.785C218.9 38.1142 217.8 39.8702 216.1 40.3093C214.4 40.6385 212.7 40.7483 211.3 39.3215C210.7 38.663 209.5 38.8825 209.3 37.6752C210.3 38.0045 211.1 38.663 211.9 39.2117C213.7 40.419 215.4 40.419 217.2 39.2117C218.3 38.3337 219.5 37.6752 220.7 37.0167Z" fill="white"/>
<path d="M266.3 56.9914C265.6 57.6499 265.2 58.6377 264.1 58.6377C264.1 57.8694 264.6 56.9914 263.8 56.4426C263.6 56.2231 263.8 55.8939 263.9 55.6744C264.6 55.4549 264.5 54.7964 264.7 54.2476C265.1 54.4671 265.5 53.9184 265.9 54.2476C265.9 54.6866 265.4 54.9061 265.5 55.3451C264.9 55.3451 265 55.7841 265 56.2231C265 56.7719 265.4 56.7719 265.7 56.6621C265.8 56.8816 265.9 56.7719 266 56.6621C266.1 56.1134 266.2 55.5646 266.2 55.0159C266.2 54.4671 266.9 54.2476 266.7 53.6989C266.7 53.3696 266.7 52.9306 266.7 52.6013C266.8 52.6013 266.9 52.6013 267 52.6013H267.1C267.1 53.5891 267 54.5769 267 55.6744C266.5 56.0036 266.3 56.4426 266.3 56.9914Z" fill="white"/>
<path d="M235.1 36.5777C235.1 35.59 235.9 35.4802 236.4 35.2607C239 33.7242 241.4 31.7487 244.1 30.4317C244.5 30.2122 244.8 30.2122 245.2 30.2122C241.9 32.4072 238.6 34.6022 235.1 36.5777Z" fill="white"/>
<path d="M235.1 27.9074C235.1 28.1269 235 28.4562 235 28.6757C235 29.0049 235.3 29.3342 235 29.5537C234.6 29.9927 234.6 29.3342 234.4 29.2244C233.6 28.7854 233.1 29.4439 232.6 29.8829C230.6 31.3097 228.5 32.5169 226.5 33.834C226.3 33.9437 226.2 33.9437 226.1 33.7242C227.1 32.5169 228.5 31.9682 229.8 31.1999C231.5 29.9927 233.2 28.6757 235.1 27.9074Z" fill="white"/>
<path d="M226.5 16.7128C227.3 17.4811 228.2 17.9201 227.9 19.5663C227.6 21.1028 227.8 22.7491 227.8 24.3954C227.8 25.1636 228.1 25.3831 228.8 25.1636C229.1 25.0539 229.4 25.0539 229.6 25.0539C229 25.6026 228.2 26.5904 227.5 26.2611C226.9 25.9319 227.3 24.7246 227.3 23.8466C227.2 22.6393 227.2 21.4321 227.3 20.3346C227.4 18.9078 226.9 17.8103 226.5 16.7128Z" fill="white"/>
<path d="M229.3 57.5402C229.2 56.8816 229.2 56.3329 228.8 55.7841C228.8 54.0281 229 53.8086 230.3 54.1379C230.4 54.2476 230.5 54.3574 230.6 54.4671C230.6 55.3451 230.6 56.2231 230.6 56.9914C230.6 57.4304 230.7 57.9792 230.1 57.9792C229.8 57.8694 229.6 57.7597 229.3 57.5402Z" fill="white"/>
<path d="M231.9 23.6271C232 22.9686 232.4 22.4198 233 22.3101C233.9 22.0906 233.9 21.5418 233.9 20.8833C233.9 19.5663 233.9 18.1396 233.9 16.8225C233.9 14.9568 233.5 13.3105 232.2 12.1033C232.1 11.9935 232 11.6643 231.9 11.5545C233.5 12.213 234.1 13.6398 234.1 15.286C234.2 17.2616 234 19.1273 234.1 21.1028C234.2 22.2003 233.8 22.8589 232.9 23.1881C232.6 23.1881 232.3 23.4076 231.9 23.6271Z" fill="white"/>
<path d="M222.9 5.51797C221.4 6.06672 220.8 4.53021 219.8 3.98146C218.1 2.9937 216.5 2.00594 214.8 1.23768C215.4 0.79868 216 1.12793 216.4 1.45719C218.6 2.66445 220.8 3.98146 222.9 5.51797Z" fill="white"/>
<path d="M245.7 29.8829C246.7 28.4561 248.2 28.8952 249.3 29.2244C250.5 29.6634 251.6 30.5414 252.8 31.1999C253.2 31.4194 253.6 31.7487 253.6 32.4072C252.7 31.8584 251.7 31.4194 250.9 30.7609C249.2 29.5537 247.5 29.3342 245.7 29.8829Z" fill="white"/>
<path d="M256.6 25.9319C255.4 26.0416 254.4 25.2734 253.5 24.6149C252.6 23.8466 251.4 23.2979 250.7 22.2003C252.8 23.2979 254.7 24.5051 256.6 25.9319Z" fill="white"/>
<path d="M214.5 1.34779C212.9 1.89655 211.5 2.99406 210.1 3.87206C209.5 4.20132 209 4.64032 208.3 4.53057C209.9 3.32331 211.5 2.2258 213.2 1.34779C213.5 1.12829 214 0.689286 214.5 1.34779Z" fill="white"/>
<path d="M250.8 96.1725C250.3 95.8432 250.5 95.2944 250.5 94.7457C250.5 90.0264 250.5 85.4169 250.5 80.6976C250.9 80.6976 250.9 81.0268 250.9 81.2463C250.8 86.1851 250.8 91.2337 250.8 96.1725Z" fill="white"/>
<path d="M203 7.82297C202.2 9.24973 200.7 9.57898 199.6 10.457C198.9 11.0057 198.2 11.774 197.2 11.5545C198.9 10.1277 200.9 8.92048 203 7.82297Z" fill="white"/>
<path d="M260.3 38.4435C260.6 38.9922 260.6 39.541 260.6 40.1995C260.6 43.492 260.6 46.7846 260.6 50.0771C260.5 50.0771 260.4 50.0771 260.4 50.0771C260.3 47.1138 260.6 44.2603 260.3 41.297C260.3 40.3092 260.2 39.4312 260.2 38.4435C260.1 38.4435 260.2 38.4435 260.3 38.4435Z" fill="white"/>
<path d="M227.1 41.6262C228.4 39.98 230.1 38.9922 231.9 38.5532C230.4 39.7605 228.8 40.7482 227.1 41.6262Z" fill="white"/>
<path d="M225.8 33.9437C224.2 35.0412 222.7 36.5777 220.7 36.907C222.3 35.8095 223.9 34.4924 225.8 33.9437Z" fill="white"/>
<path d="M231.1 10.896C229.6 10.2375 228 9.68873 227 8.15222C228.5 8.92048 229.9 9.68873 231.1 10.896Z" fill="white"/>
<path d="M227.1 8.15224C225.4 7.82299 224.1 6.83523 222.9 5.51822C224.4 6.17672 225.7 7.16448 227.1 8.15224Z" fill="white"/>
<path d="M260.1 41.297C260.4 44.2603 260.2 47.1138 260.2 50.0771C260.1 50.0771 260.1 50.0771 260 50.0771C260 47.1138 260 44.1505 260.1 41.297Z" fill="white"/>
<path d="M209.3 37.5655C208 37.346 206.8 36.6875 206 35.3705C207.1 36.029 208.3 36.5777 209.3 37.5655Z" fill="white"/>
<path d="M230.1 58.0889C230.7 57.9792 230.6 57.5401 230.6 57.1011C230.6 56.2231 230.6 55.3451 230.6 54.5769C231.2 54.6866 231.1 55.2354 231.1 55.5646C231.1 56.5524 231.1 57.4304 231.1 58.4182C230.8 58.4182 230.6 58.4182 230.3 58.4182C230.3 58.1987 230.2 58.1987 230.1 58.0889Z" fill="white"/>
<path d="M260.1 50.0771C260.2 50.0771 260.2 50.0771 260.3 50.0771C260.4 50.0771 260.5 50.0771 260.5 50.0771C260.3 51.0648 261 52.2721 260 53.1501C259.9 52.9306 259.6 52.8209 259.4 52.8209C259.5 52.4916 259.6 52.0526 259.7 51.7234C259.7 51.6136 259.7 51.5038 259.8 51.5038C260.1 51.1746 260.1 50.8453 260 50.4063C260 50.1868 260.1 50.0771 260.1 50.0771Z" fill="white"/>
<path d="M253.5 32.4072C254.8 32.6267 256 33.1755 256.7 34.3827C255.5 33.9437 254.5 33.1755 253.5 32.4072Z" fill="white"/>
<path d="M233.8 60.6132C232.8 60.1742 231.9 59.6254 231.1 58.8571C231.3 58.8571 231.6 58.8571 231.8 58.8571C232 58.9669 232.1 59.0766 232.3 59.1864C232.6 60.0644 233.6 59.8449 233.8 60.6132C233.9 60.5034 233.8 60.6132 233.8 60.6132Z" fill="white"/>
<path d="M179.4 101.331C178.9 99.3553 178.9 97.4895 179.4 95.514C179.5 97.4895 179.5 99.465 179.4 101.331Z" fill="white"/>
<path d="M266.8 52.4916C266.7 52.4916 266.6 52.4916 266.5 52.4916C265.7 52.4916 264.8 52.4916 264 52.4916C264.7 51.7233 265.7 52.0526 266.5 51.9428C266.6 52.0526 266.7 52.1623 266.8 52.2721C266.9 52.3818 266.9 52.3818 266.8 52.4916Z" fill="white"/>
<path d="M208.2 4.53046C207.9 5.62867 207 5.84832 206.2 5.84832C206.8 5.18939 207.4 4.7501 208.2 4.53046Z" fill="white"/>
<path d="M206.2 5.84747C205.9 6.72605 205.3 7.05551 204.4 6.94569C204.9 6.39658 205.5 5.95729 206.2 5.84747Z" fill="white"/>
<path d="M260.3 38.4435C260.2 38.4435 260.2 38.4435 260.1 38.4435C259.8 37.785 259.6 37.2362 259.3 36.5777C260.1 36.907 260.3 37.5655 260.3 38.4435Z" fill="white"/>
<path d="M231.9 38.554C232.4 37.8951 233 37.346 233.9 37.346C233.3 37.8951 232.7 38.3344 231.9 38.554Z" fill="white"/>
<path d="M233.9 37.3466C234 36.3582 234.6 36.468 235.2 36.468C234.8 37.0171 234.4 37.2367 233.9 37.3466Z" fill="white"/>
<path d="M204.4 6.94498C204.2 7.82355 203.6 7.93337 202.9 7.82355C203.4 7.38426 203.8 7.0548 204.4 6.94498Z" fill="white"/>
<path d="M200.6 40.4191C201.3 40.1994 201.7 40.5289 201.9 41.1878C201.4 41.1878 200.9 40.9682 200.6 40.4191Z" fill="white"/>
<path d="M206 35.371C205.4 35.371 204.9 35.371 204.7 34.4925C205.2 34.7121 205.6 35.0416 206 35.371Z" fill="white"/>
<path d="M256.7 34.3827C257.2 34.3827 257.7 34.4925 257.8 35.1514C257.3 35.0416 256.9 34.822 256.7 34.3827Z" fill="white"/>
<path d="M230.4 58.3084C230.7 58.3084 230.9 58.3084 231.2 58.3084C231.2 58.5279 231.2 58.6377 231.2 58.8572C230.8 58.8572 230.5 58.7474 230.4 58.3084Z" fill="white"/>
<path d="M230.9 24.1759C231 23.6271 231.4 23.5174 231.9 23.6271C231.6 23.9564 231.3 24.1759 230.9 24.1759Z" fill="white"/>
<path d="M275.6 95.4047C275.6 95.0752 275.7 94.7457 276 94.7457C276.1 95.185 276.2 95.5145 275.6 95.4047Z" fill="white"/>
<path d="M264.1 58.6377C264 58.9671 263.6 58.8573 263.6 59.2966H263.5H263.4C263.3 59.1868 263.2 58.9671 263.1 58.8573C263.2 58.7475 263.3 58.6377 263.3 58.6377C263.5 58.6377 263.6 58.6377 263.8 58.6377H263.9H264.1Z" fill="white"/>
<path d="M234.9 60.8327C235 61.0523 235.1 61.272 235.1 61.4916C234.8 61.4916 234.5 61.272 234.3 61.0523L234.4 60.9425C234.5 60.8327 234.7 60.8327 234.9 60.8327Z" fill="white"/>
<path d="M231.9 11.335C231.5 11.4448 231.1 11.4448 231.1 10.7863C231.5 10.7863 231.7 11.0058 231.9 11.335Z" fill="white"/>
<path d="M225.4 42.7245C225.4 42.2845 225.7 42.3945 226 42.3945C225.9 42.6145 225.6 42.6145 225.4 42.7245Z" fill="white"/>
<path d="M230.4 24.5059C230.4 24.1759 230.6 24.1759 230.9 24.1759C230.8 24.3959 230.6 24.5059 230.4 24.5059Z" fill="white"/>
<path d="M229.6 24.9449C229.7 24.6149 229.9 24.6149 230.1 24.6149C230 24.9449 229.8 24.9449 229.6 24.9449Z" fill="white"/>
<path d="M234.3 60.9434C234.1 60.8334 234 60.7234 233.8 60.6134L233.9 60.5034C234.1 60.5034 234.3 60.6134 234.4 60.8334C234.3 60.8334 234.3 60.9434 234.3 60.9434Z" fill="white"/>
<path d="M230.1 24.7251C230.2 24.6151 230.3 24.5051 230.4 24.5051C230.3 24.5051 230.2 24.6151 230.1 24.7251Z" fill="white"/>
<path d="M245.2 30.2129C245.3 30.1029 245.4 29.9929 245.5 29.8829C245.4 29.9929 245.3 30.1029 245.2 30.2129Z" fill="white"/>
<path d="M272.1 80.6976C272 80.8076 271.9 80.9176 271.8 80.9176C271.8 80.6976 271.9 80.6976 272.1 80.6976Z" fill="white"/>
<path d="M272.1 95.4044C272.2 95.1846 272.3 95.1846 272.4 95.4044C272.3 95.4044 272.2 95.4044 272.1 95.4044Z" fill="white"/>
<path d="M273.1 95.4044C273.2 95.1846 273.3 95.1846 273.4 95.4044C273.3 95.4044 273.2 95.4044 273.1 95.4044Z" fill="white"/>
<path d="M234.4 60.8327C234.3 60.6132 234.1 60.6132 233.9 60.5034C233.6 59.7352 232.6 59.9547 232.4 59.1864C232.4 57.5401 232.4 55.8939 232.4 54.2476C233 54.2476 233.2 54.6866 233.1 55.2354C233 56.3329 233.1 57.3206 233.4 58.3084C233.5 60.2839 235 59.5157 235.9 59.6254C235.8 60.2839 234.8 59.9547 234.9 60.7229C234.7 60.8327 234.5 60.8327 234.4 60.8327Z" fill="white"/>
<path d="M258.5 54.4671C258.5 54.2476 258.5 53.9184 258.5 53.6989C258.6 53.6989 258.7 53.5891 258.7 53.5891C259.6 55.0159 259.1 56.6622 259.2 58.1987C259.2 58.6377 259.1 59.2962 259.7 59.2962C260.3 59.2962 260.2 58.6377 260.2 58.1987C260.2 56.5524 260.3 54.9061 259.9 53.3696C261.2 55.1256 260.6 57.2109 260.5 59.1864C260.5 59.7352 260.1 60.0644 259.5 59.9547C259 59.8449 258.9 59.4059 258.9 58.8572C259 57.4304 258.9 55.8939 258.5 54.4671Z" fill="white"/>
<path d="M235.9 59.7352C234.9 59.5157 233.5 60.3937 233.4 58.4182C234.1 57.8694 234.8 57.4304 235.7 57.5401C235.6 58.3084 235 57.9792 234.6 58.1987C234.4 58.3084 233.9 58.3084 234 58.7474C234.1 59.0767 234.4 59.0767 234.7 59.1864C235.8 59.2962 236.5 58.7474 236.9 57.6499C237.2 56.6621 237.1 55.5646 237.2 54.5769C237.3 54.5769 237.4 54.5769 237.5 54.5769C237.7 55.0159 237.8 55.4549 237.7 56.0036C237.3 57.1011 237.6 58.4182 236.7 59.2962C236.4 59.2962 236.2 59.5157 236.2 59.8449H236.1L235.9 59.7352Z" fill="white"/>
<path d="M255.2 56.3329C255.3 56.1134 255.5 55.8939 255.7 55.7841C255.7 56.5524 255.7 57.4304 255.7 58.1987C255.7 58.5279 255.8 58.8572 256.1 58.9669C256.5 58.9669 256.6 58.6377 256.6 58.1987C256.6 57.4304 256.6 56.5524 256.6 55.7841C256.6 55.3451 256.8 55.3451 257.1 55.4549C257.1 56.3329 257.1 57.2109 257.1 57.9792C257.1 58.7474 257.1 59.5157 256.2 59.5157C255.3 59.5157 255.1 58.8572 255.1 57.9792C255.3 57.5402 255.2 56.9914 255.2 56.3329Z" fill="white"/>
<path d="M263.8 58.6376C263.6 58.6376 263.5 58.6376 263.3 58.6376C262.9 58.1986 262.6 57.8694 262.5 57.2109C262.1 56.1134 262.3 55.1256 262.6 54.0281C262.7 53.5891 262.9 53.0403 263.5 53.0403C262.7 55.0159 262.4 56.7719 263.8 58.6376Z" fill="white"/>
<path d="M251.7 59.7352C251.6 59.2962 251.6 58.9669 251.5 58.3084C252.5 59.5157 252.9 59.1864 252.9 57.8694C252.9 57.7596 253.1 57.6499 253.2 57.4304C253.5 59.5157 253.3 59.7352 251.7 59.7352Z" fill="white"/>
<path d="M242.2 58.8571C242.8 58.8571 243.4 59.5161 244.1 59.1866C244.3 59.0768 244.5 59.0768 244.6 59.2964C244.7 59.6259 244.3 59.6259 244.2 59.8455C243.5 59.7357 242.4 60.175 242.2 58.8571Z" fill="white"/>
<path d="M237.6 55.785C237.6 55.3458 237.6 54.7966 237.4 54.3574C238.2 54.3574 238.8 54.9065 239.4 55.4556C238.8 55.6752 238.2 55.785 237.6 55.785Z" fill="white"/>
<path d="M262.5 57.2109C262.5 57.8694 262.9 58.1987 263.3 58.6377C263.2 58.7474 263.1 58.8572 263.1 58.8572C262.1 58.5279 261.9 57.9792 262.5 57.2109Z" fill="white"/>
<path d="M241.2 57.5402C241.7 57.7598 241.8 58.1991 242 58.6384C241.3 58.5286 241.1 58.0893 241.2 57.5402Z" fill="white"/>
<path d="M259.4 52.8209C259.6 52.8209 259.9 52.8209 260 53.1503C260 53.2601 260 53.37 260 53.4798C259.7 53.37 259.5 53.2601 259.2 53.1503C259.3 52.9307 259.4 52.8209 259.4 52.8209Z" fill="white"/>
<path d="M263.5 53.0404C263.5 52.7111 263.7 52.4916 264 52.4916C264.1 52.9306 263.9 53.0404 263.5 53.0404Z" fill="white"/>
<path d="M236.1 59.7352C236.1 59.4059 236.3 59.1864 236.6 59.1864C236.6 59.5157 236.4 59.7352 236.1 59.7352Z" fill="white"/>
<path d="M240.9 56.9914C241.1 57.1011 241.2 57.3206 241.2 57.5401C241 57.4304 240.9 57.2109 240.9 56.9914Z" fill="white"/>
<path d="M241.9 58.6377C242 58.7477 242.1 58.8577 242.2 58.9677C242.1 58.7477 242 58.6377 241.9 58.6377Z" fill="white"/>
<path d="M259.2 53.0403C259.5 53.1501 259.7 53.2598 260 53.3696C260.3 55.0159 260.3 56.6621 260.3 58.1986C260.3 58.6376 260.4 59.2961 259.8 59.2961C259.2 59.2961 259.3 58.6376 259.3 58.1986C259.2 56.6621 259.7 55.0159 258.8 53.5891C258.9 53.3696 259.1 53.2598 259.2 53.0403Z" fill="white"/>
<path d="M256.7 55.7841C256.7 56.5524 256.7 57.4304 256.7 58.1986C256.7 58.5279 256.6 58.9669 256.2 58.9669C255.9 58.9669 255.8 58.5279 255.8 58.1986C255.8 57.4304 255.8 56.5524 255.8 55.7841C256.1 55.8939 256.4 55.8939 256.7 55.7841Z" fill="white"/>
<path d="M235.6 57.5402C234.7 57.4304 234 57.7597 233.3 58.4182C233.1 57.4304 233 56.3329 233 55.3451C233 54.7964 232.8 54.3574 232.3 54.3574C232 53.6989 232 52.7111 231.1 52.8209C230.4 51.3941 229.3 52.0526 228.3 52.2721C228.3 51.7234 228.3 51.2844 228.3 50.7356C228.3 47.6626 228.9 46.6748 231.5 45.6871C231.9 45.5773 232.2 45.4676 232.4 45.1383C233.2 44.1505 233.5 44.37 234 45.4676C234.5 46.5651 234.3 47.7723 234.2 48.8698C234 50.6258 234.9 51.9429 235.3 53.4794C235.4 53.6989 235.4 54.0281 235.5 54.2476C235.6 55.3451 235.6 56.4426 235.6 57.5402Z" fill="white"/>
<path d="M231.1 58.8572C231.1 58.6377 231.1 58.5279 231.1 58.3084C231.1 57.3207 231.1 56.4426 231.1 55.4549C231.1 55.0159 231.2 54.4671 230.6 54.4671C230.5 54.3574 230.4 54.2476 230.3 54.1379C229.6 52.4916 229 54.0281 228.3 54.1379C228.3 53.5891 228.3 53.0404 228.3 52.4916C229.2 52.4916 230.2 52.2721 231.1 52.7111C231.7 53.8086 232 54.9061 231.9 56.2231C231.8 57.1012 231.9 57.9792 231.9 58.8572C231.6 58.8572 231.4 58.8572 231.1 58.8572Z" fill="white"/>
<path d="M237.2 54.4671C237.2 55.4549 237.2 56.5524 236.9 57.5402C236.5 58.6377 235.9 59.2962 234.7 59.0767C234.4 59.0767 234.1 59.0767 234 58.6377C233.9 58.1987 234.4 58.3084 234.6 58.0889C234.9 57.8694 235.6 58.1987 235.7 57.4304C236.3 57.3207 236.2 56.7719 236.2 56.4426C236.2 55.6744 236.2 54.9061 236.2 54.1379C236.5 54.1379 236.9 54.2476 237.2 54.4671Z" fill="white"/>
<path d="M236.2 54.1379C236.2 54.9061 236.2 55.6744 236.2 56.4426C236.2 56.8816 236.3 57.4304 235.7 57.4304C235.7 56.3329 235.7 55.2354 235.7 54.1379C235.8 54.2476 236 53.2599 236.2 54.1379Z" fill="white"/>
<path d="M228.4 54.2476C229.1 54.0281 229.7 52.6013 230.4 54.2476C229.1 53.9183 228.9 54.1378 228.9 55.8939C228.3 55.4549 228.4 54.7964 228.4 54.2476Z" fill="white"/>
<path d="M231.1 52.8215C230.2 52.2723 229.3 52.6018 228.3 52.6018C228.3 52.492 228.3 52.3822 228.3 52.2723C229.3 51.9429 230.4 51.3938 231.1 52.8215Z" fill="white"/>
<path d="M263.6 53.1501C263.9 53.1501 264.1 52.9306 264.1 52.6013C264.9 52.6013 265.8 52.6013 266.6 52.6013C266.6 52.9306 266.6 53.3696 266.6 53.6989C265.9 53.8086 265.1 53.2599 264.6 54.2476C263.9 54.3574 263.9 55.0159 263.8 55.6744C263.7 55.8939 263.5 56.2231 263.7 56.4426C264.5 57.1011 264.1 57.8694 264 58.6377H263.9H263.8C262.4 56.7719 262.7 55.0159 263.6 53.1501Z" fill="white"/>
<path d="M264.6 54.1379C265.1 53.1501 265.9 53.6989 266.6 53.5891C266.8 54.1379 266.1 54.4671 266.1 54.9061C265.8 55.0159 265.6 55.1256 265.3 55.2354C265.2 54.7964 265.7 54.5769 265.7 54.1379C265.3 53.8086 264.9 54.3574 264.6 54.1379Z" fill="white"/>
<path d="M265.3 55.2354C265.6 55.1256 265.8 55.0159 266.1 54.9061C266 55.4549 265.9 56.0036 265.9 56.5524C265.8 56.5524 265.7 56.5524 265.6 56.5524C265.3 56.2231 265.3 55.7841 265.3 55.2354Z" fill="white"/>
<path d="M265.3 55.2354C265.3 55.6747 265.3 56.2238 265.6 56.6631C265.3 56.6631 264.9 56.6631 264.9 56.2238C264.8 55.7845 264.8 55.3452 265.3 55.2354Z" fill="white"/>
<path d="M263.8 55.5656C263.8 54.9066 263.8 54.3575 264.6 54.1379C264.4 54.687 264.5 55.4557 263.8 55.5656Z" fill="white"/>
<path d="M265.6 56.6621C265.7 56.6621 265.8 56.6621 265.9 56.6621C265.8 56.7721 265.7 56.8821 265.6 56.6621Z" fill="white"/>
<path d="M230.4 54.1379C230.5 54.2479 230.6 54.3579 230.7 54.4679C230.5 54.3579 230.4 54.2479 230.4 54.1379Z" fill="white"/>
<path d="M231.9 58.8572C231.9 57.9791 231.8 57.1011 231.9 56.2231C232 54.9061 231.7 53.8086 231.1 52.7111C232 52.6014 232 53.5891 232.4 54.1379C232.4 55.7841 232.4 57.4304 232.4 59.0767C232.2 59.0767 232 58.9669 231.9 58.8572Z" fill="white"/>
</svg>
