<svg id="Layer_1" data-name="Layer 1" xmlns="http://www.w3.org/2000/svg" viewBox="0 0 116.68 119.84"><defs><style>.cls-1{fill:#fff;}.cls-2{fill:#1e183b;fill-rule:evenodd;}</style></defs><title>Logo_famtom</title><g id="Layer_1-2" data-name="Layer 1-2"><circle class="cls-1" cx="61.61" cy="43.45" r="31.88"/><path class="cls-2" d="M64,37.27l7.17-4.18v8.37Zm7.17,17.94-9.56,5.58-9.56-5.58V45.44L61.61,51l9.56-5.58ZM52.05,33.09l7.17,4.18-7.17,4.19Zm10.76,6.18L70,43.45l-7.17,4.19Zm-2.4,8.37-7.17-4.19,7.17-4.18ZM70,31.1l-8.37,4.78L53.24,31.1l8.37-5Zm-20.33-.8V56.4l12,6.78,12-6.78V30.3l-12-6.77Z"/><path class="cls-1" d="M14.43,108.33V94.49H12.18V92.27h2.25v-.76c0-2.26.5-4.31,1.86-5.61a5.57,5.57,0,0,1,3.91-1.49,6.81,6.81,0,0,1,2.49.46l-.4,2.26a4.32,4.32,0,0,0-1.85-.37c-2.49,0-3.12,2.19-3.12,4.65v.86H21.2v2.22H17.32v13.84Z"/><path class="cls-1" d="M32.71,108.33l-.23-2h-.1a6,6,0,0,1-4.91,2.39,4.58,4.58,0,0,1-4.91-4.61c0-3.88,3.45-6,9.65-6v-.33c0-1.33-.36-3.72-3.65-3.72a8,8,0,0,0-4.18,1.2l-.66-1.93A10,10,0,0,1,29,91.91c4.91,0,6.11,3.35,6.11,6.56v6a22.63,22.63,0,0,0,.26,3.85Zm-.43-8.2c-3.19-.06-6.8.5-6.8,3.62a2.59,2.59,0,0,0,2.75,2.79,4,4,0,0,0,3.88-2.69,3,3,0,0,0,.17-.93Z"/><path class="cls-1" d="M39.81,96.62c0-1.66,0-3-.14-4.35h2.59l.17,2.66h.06a5.91,5.91,0,0,1,5.31-3c2.22,0,5.67,1.32,5.67,6.83v9.59H50.55V99.07c0-2.59-1-4.74-3.71-4.74a4.15,4.15,0,0,0-3.92,3,4.34,4.34,0,0,0-.19,1.36v9.66H39.81Z"/><path class="cls-1" d="M61.6,87.66v4.61h4.18v2.22H61.6v8.66c0,2,.56,3.12,2.19,3.12a6.44,6.44,0,0,0,1.69-.2l.13,2.19a7.16,7.16,0,0,1-2.58.4,4.06,4.06,0,0,1-3.16-1.23c-.82-.86-1.12-2.29-1.12-4.18V94.49H56.26V92.27h2.49V88.42Z"/><path class="cls-1" d="M83.39,100.17c0,5.93-4.11,8.52-8,8.52-4.35,0-7.7-3.18-7.7-8.26,0-5.37,3.52-8.52,8-8.52C80.28,91.91,83.39,95.26,83.39,100.17Zm-12.73.16c0,3.52,2,6.17,4.87,6.17s4.88-2.62,4.88-6.23c0-2.72-1.36-6.17-4.81-6.17S70.66,97.28,70.66,100.33Z"/><path class="cls-1" d="M87.08,96.62c0-1.66,0-3-.14-4.35H89.5l.13,2.59h.1a5.52,5.52,0,0,1,5-3,4.75,4.75,0,0,1,4.55,3.21h.06A6.78,6.78,0,0,1,101.17,93a5.5,5.5,0,0,1,3.55-1.12c2.13,0,5.28,1.39,5.28,7v9.46h-2.86V99.24c0-3.09-1.12-4.94-3.48-4.94A3.77,3.77,0,0,0,100.21,97a4.91,4.91,0,0,0-.23,1.46v9.92H97.13V98.71c0-2.56-1.13-4.41-3.35-4.41a4.33,4.33,0,0,0-3.85,4.34v9.69H87.08Z"/></g></svg>