<svg id="Layer_1" data-name="Layer 1" xmlns="http://www.w3.org/2000/svg" viewBox="0 0 148.85 119.84"><defs><style>.cls-1{fill:#fff;}</style></defs><title>Logo_wtwreum</title><polygon class="cls-1" points="74.96 62.73 74.96 79.95 96.1 50.25 74.96 62.73"/><polygon class="cls-1" points="74.96 36.63 74.96 58.74 96.1 46.23 74.96 36.63"/><polygon class="cls-1" points="74.96 11.15 74.96 36.63 96.1 46.23 74.96 11.15"/><polygon class="cls-1" points="74.96 62.73 74.96 79.95 53.81 50.25 74.96 62.73"/><polygon class="cls-1" points="74.96 36.63 74.96 58.74 53.81 46.23 74.96 36.63"/><polygon class="cls-1" points="74.96 11.15 74.96 36.63 53.81 46.23 74.96 11.15"/><path class="cls-1" d="M8.41,102.06a5.32,5.32,0,0,0,5.08,5,5,5,0,0,0,4.31-2.24.58.58,0,0,1,.75-.13h0a.53.53,0,0,1,.25.34.56.56,0,0,1-.08.42,6,6,0,0,1-5.31,2.67A6.1,6.1,0,0,1,8.87,106a6.6,6.6,0,0,1-1.53-4.42A6.26,6.26,0,0,1,9,97a5.93,5.93,0,0,1,4.37-2,5.57,5.57,0,0,1,4.32,1.86,6.65,6.65,0,0,1,1.83,4.65.54.54,0,0,1-.15.39.52.52,0,0,1-.39.17Zm5-6a4.94,4.94,0,0,0-3.31,1.41,5.87,5.87,0,0,0-1.64,3.63h9.9a5.85,5.85,0,0,0-1.54-3.5A4.1,4.1,0,0,0,13.41,96Z"/><path class="cls-1" d="M57.42,102.06a5.33,5.33,0,0,0,5.08,5,5,5,0,0,0,4.31-2.24.58.58,0,0,1,.75-.13h0a.53.53,0,0,1,.25.34.56.56,0,0,1-.08.42,6,6,0,0,1-5.31,2.67A6.1,6.1,0,0,1,57.88,106a6.6,6.6,0,0,1-1.53-4.42A6.26,6.26,0,0,1,58.05,97a5.93,5.93,0,0,1,4.37-2,5.57,5.57,0,0,1,4.32,1.86,6.65,6.65,0,0,1,1.83,4.65.54.54,0,0,1-.15.39.52.52,0,0,1-.38.17Zm5-6a4.94,4.94,0,0,0-3.31,1.41,5.87,5.87,0,0,0-1.64,3.63h9.9a5.85,5.85,0,0,0-1.54-3.5A4.1,4.1,0,0,0,62.42,96Z"/><path class="cls-1" d="M87.75,102.06a5.33,5.33,0,0,0,5.08,5,5,5,0,0,0,4.31-2.24.58.58,0,0,1,.75-.13h0a.53.53,0,0,1,.25.34.56.56,0,0,1-.08.42,6,6,0,0,1-5.31,2.67A6.12,6.12,0,0,1,88.21,106a6.6,6.6,0,0,1-1.53-4.42A6.26,6.26,0,0,1,88.38,97a6,6,0,0,1,4.37-2,5.61,5.61,0,0,1,4.33,1.86,6.69,6.69,0,0,1,1.82,4.66.54.54,0,0,1-.15.38.52.52,0,0,1-.38.17Zm5-6a4.94,4.94,0,0,0-3.31,1.41,5.87,5.87,0,0,0-1.64,3.63h9.9a5.79,5.79,0,0,0-1.54-3.5A4.1,4.1,0,0,0,92.75,96Z"/><path class="cls-1" d="M29.49,96.24V107.5A.49.49,0,0,1,29,108h0a.49.49,0,0,1-.49-.49V96.24H25.67a.48.48,0,1,1,0-1H28.5V91.11a.5.5,0,0,1,.5-.5h0a.49.49,0,0,1,.48.48v4.19h2.92a.48.48,0,0,1,0,1Z"/><path class="cls-1" d="M45.44,95.14a4.87,4.87,0,0,0-5.12,2.5V85.14a.48.48,0,0,0-.47-.48h0a.51.51,0,0,0-.5.5V107.5a.5.5,0,0,0,.5.49h0a.49.49,0,0,0,.49-.49V100c0-2.11,2.68-4.39,5.11-3.85a4.29,4.29,0,0,1,3.13,4.39v7a.49.49,0,0,0,.49.49h0a.49.49,0,0,0,.5-.49v-7C49.69,98.38,48.22,95.52,45.44,95.14Z"/><path class="cls-1" d="M109.78,108.21a4.85,4.85,0,0,0,5.11-2.5v1.79a.48.48,0,0,0,.48.48h0a.5.5,0,0,0,.5-.5V95.85a.5.5,0,0,0-.49-.5h0a.5.5,0,0,0-.5.5L115,102c0,3.2-2.49,5.76-5.11,5.21a4.26,4.26,0,0,1-3.18-4.37v-7a.5.5,0,0,0-.5-.5h0a.5.5,0,0,0-.49.5v7C105.67,105.45,107,107.82,109.78,108.21Z"/><path class="cls-1" d="M138.45,95.14a4.92,4.92,0,0,0-5.38,3.29,4.94,4.94,0,0,0-3.86-3.29,4.85,4.85,0,0,0-5.13,2.45v-1.8a.47.47,0,0,0-.48-.48h0a.5.5,0,0,0-.5.5v11.63a.5.5,0,0,0,.5.5h0a.49.49,0,0,0,.49-.5l-.06-6.16c0-3.2,2.52-5.71,5.13-5.15a4.23,4.23,0,0,1,3.18,4.08v7.23a.13.13,0,0,0,0,.06h0a.57.57,0,0,0,.57.49h0a.49.49,0,0,0,.49-.49v-1.69c0-1.11,0-2.57,0-3.69,0-3.46,1.56-6.52,5-6a4.17,4.17,0,0,1,3.18,4.36v7a.49.49,0,0,0,.5.49h0a.49.49,0,0,0,.49-.49v-7C142.7,98.38,141.23,95.52,138.45,95.14Z"/><path class="cls-1" d="M81.54,95.83a.49.49,0,0,0-.18-.38.57.57,0,0,0-.42-.1,5.45,5.45,0,0,0-4.46,3V95.75a.48.48,0,0,0-.48-.48h0a.51.51,0,0,0-.5.5V107.4a.5.5,0,0,0,.5.5h0a.49.49,0,0,0,.49-.5l0-5.82a5.22,5.22,0,0,1,4.65-5.28.45.45,0,0,0,.38-.46Z"/></svg>