<svg id="Layer_1" data-name="Layer 1" xmlns="http://www.w3.org/2000/svg" viewBox="0 0 130.61 94.99"><defs><style>.cls-1{fill:#fff;}</style></defs><title>logoAvalace</title><path class="cls-1" d="M81.71,88.38c0-2.34,0-4.69,0-7,0-.82.08-1.25,1.11-1.24s1,.41,1,1.19c0,3.29,0,6.59,0,9.88,0,.4.3,1.09-.33,1.15s-1.59.44-2.17-.49c-1.66-2.64-3.36-5.25-5-7.88-.13-.2-.28-.39-.42-.59-.38.18-.23.5-.23.74,0,2.49,0,5,0,7.47,0,.6-.09,1-.79.83-.53-.1-1.3.32-1.29-.81,0-3.54,0-7.08,0-10.62,0-.66.24-.78.85-.85a2.67,2.67,0,0,1,3.06,1.62c1.24,2.31,2.72,4.48,4.1,6.7Z"/><path class="cls-1" d="M35.54,80.19c1-.28,1.4.19,1.77,1.07,1.39,3.37,2.89,6.69,4.31,10,.14.32.62.7.16,1.09A2.28,2.28,0,0,1,39.69,92c-.38-.75-.75-1.5-1.07-2.28a.87.87,0,0,0-1-.6c-1.44,0-2.88,0-4.31,0a.94.94,0,0,0-1,.69c-.27.69-.58,1.35-.89,2-.12.24-.18.59-.53.59-.55,0-1.23.24-1.61-.13s.16-.82.32-1.23c1.34-3.23,2.71-6.45,4-9.71C34,80.42,34.46,79.86,35.54,80.19Zm-2.37,7.55h4.08c.34,0,.58-.09.42-.49-.72-1.79-1.46-3.58-2.26-5.56Z"/><path class="cls-1" d="M114.35,86.37c0,1.75,0,3.5,0,5.25,0,.82-.41.82-1,.79s-1.14.15-1.1-.79c.06-1.36,0-2.73,0-4.09,0-.64-.18-.87-.83-.84-1.22,0-2.45,0-3.67,0-.64,0-.86.15-.84.81,0,1.37,0,2.74,0,4.1,0,.9-.49.83-1.07.81s-1.1.16-1.09-.78q.06-5.35,0-10.71c0-.89.55-.73,1-.71S107,80,107,80.89c0,1.12,0,2.24,0,3.36,0,.75.25,1,1,.94,1.19-.06,2.38,0,3.57,0,.65,0,.86-.22.84-.85,0-1.12,0-2.24,0-3.36,0-.91.56-.76,1.12-.79s1,.06,1,.82C114.32,82.8,114.35,84.59,114.35,86.37Z"/><path class="cls-1" d="M120.85,86.37c0-1.75,0-3.5,0-5.26,0-.64.11-1,.85-.93,2,0,3.93,0,5.89,0,.76,0,.84.34.83,1s0,1-.82,1c-1.29-.06-2.59,0-3.89,0-.58,0-.77.18-.79.78-.1,2.54-.12,2.54,2.37,2.54.77,0,1.54,0,2.31,0s.81.26.82.86-.27.76-.81.76c-1.3,0-2.6,0-3.89,0-.6,0-.78.21-.8.79-.13,2.75-.15,2.75,2.59,2.75.63,0,1.27,0,1.89,0,.77-.07,1,.18,1,1s-.35,1-1.07,1c-1.89,0-3.78,0-5.67,0-.63,0-.87-.17-.85-.82C120.88,89.87,120.85,88.12,120.85,86.37Z"/><path class="cls-1" d="M59.84,89.42c-.37.86-.73,1.73-1.11,2.59a2.44,2.44,0,0,1-2.07.33c-.17-.2,0-.41.07-.58q2.3-5.58,4.61-11.14a.61.61,0,0,1,.81-.44c.66.6,1.56.53,2.33.82q2.35,5.35,4.72,10.71c.23.52.18.72-.46.75-1,.06-1.76-.08-2-1.22a11.59,11.59,0,0,0-.78-1.82l.08-.13-.16,0a.12.12,0,0,1-.11-.08c-.17-.11-.34-.28-.52-.3a43.2,43.2,0,0,0-5,0C60.08,88.86,59.48,88.88,59.84,89.42Zm3-7.76c-.73,1.93-1.42,3.75-2.1,5.57-.14.38,0,.51.41.51h3.46c.53,0,.58-.21.4-.64C64.26,85.33,63.56,83.56,62.81,81.66Z"/><path class="cls-1" d="M95.29,79.86a5.28,5.28,0,0,1,3.94,1.43c.39.39.64.76,0,1.17-.42.28-.63,1-1.4.28a3.6,3.6,0,0,0-6.14,1.68,5.36,5.36,0,0,0,.24,3.8,3.71,3.71,0,0,0,6,1.1c.44-.46.71-.56,1.15,0s.95.69.29,1.42c-1.68,1.85-3.79,2-6,1.54a4.56,4.56,0,0,1-3.73-3.69,9.1,9.1,0,0,1-.2-3.85A5.41,5.41,0,0,1,95.29,79.86Z"/><path class="cls-1" d="M21.6,89.76c.48-1.28.95-2.5,1.41-3.72.65-1.74,1.29-3.48,1.95-5.21a1.79,1.79,0,0,1,2.13-.61c.34.27.05.58-.05.84q-1.8,4.88-3.63,9.73c-.63,1.65-1.12,1.89-2.88,1.6-.4-.06-.51-.31-.62-.61-1.29-3.65-2.58-7.32-3.89-11-.2-.54,0-.62.48-.67a1.52,1.52,0,0,1,1.9,1.22c.78,2.47,1.72,4.88,2.61,7.31A1.89,1.89,0,0,0,21.6,89.76Z"/><path class="cls-1" d="M4.49,89.36l-.26.48a2.39,2.39,0,0,0-.87,1.49c-.19.66-.78.63-1.26.75s-.49-.27-.55-.59a.16.16,0,0,1,.05-.17.81.81,0,0,0,.49-1.13h0c.22,0,.26-.18.33-.35C3.21,88,4.06,86.25,4.76,84.4A11.71,11.71,0,0,0,6,80.78H6l.5-.14C8.15,80.1,8.64,80.4,9.34,82a8.24,8.24,0,0,0,1.52,3h0c.42,2.19,1.58,4.1,2.42,6.13.13.33.44.62.13.93s-.64.14-1,0a1.15,1.15,0,0,1-.6-.55,10.79,10.79,0,0,1-.95-1.85c-.2-.73-.64-.82-1.24-.82-1.52,0-3.05,0-4.57,0C4.67,88.79,4.49,89,4.49,89.36Zm.71-1.63h4c.34,0,.67,0,.47-.51C9,85.4,8.22,83.58,7.45,81.64Z"/><path class="cls-1" d="M45.92,86.17c0-1.75,0-3.5,0-5.25,0-.85.47-.77,1-.76S48,80,48,80.92c0,2.69,0,5.39,0,8.08,0,1,.18,1.39,1.25,1.29s2.24,0,3.36,0,.72.69.78,1.21,0,1-.81.94c-1.93-.07-3.85,0-5.78,0-.66,0-.92-.16-.9-.87,0-1.79,0-3.57,0-5.36Z"/><path class="cls-1" d="M4.49,89.36c0-.39.18-.57.58-.56,1.52,0,3,0,4.57,0,.6,0,1,.09,1.24.82a10.79,10.79,0,0,0,.95,1.85,1.15,1.15,0,0,0,.6.55c.34.15.71.28,1,0s0-.6-.13-.93c-.84-2-2-3.94-2.42-6.13,1.2,2.25,2.06,4.66,3.13,7,.06.15.18.3,0,.47-.37.32-2.18,0-2.31-.49-.61-2.48-2.25-3.15-4.58-2.76C6.23,89.3,5.34,89,4.49,89.36Z"/><path class="cls-1" d="M6,80.78A11.71,11.71,0,0,1,4.76,84.4c-.7,1.85-1.55,3.63-2.33,5.44-.07.17-.11.33-.33.35C3.29,87,4.52,83.85,6,80.78Z"/><path class="cls-1" d="M10.86,85a8.24,8.24,0,0,1-1.52-3c-.7-1.57-1.19-1.87-2.87-1.32l-.5.14c0-.46.19-.69.7-.67,2.48.1,1.95-.61,3,1.88A19.78,19.78,0,0,1,10.86,85Z"/><path class="cls-1" d="M59.84,89.42c-.36-.54.24-.56.4-.56a43.2,43.2,0,0,1,5,0c.18,0,.35.19.52.3h-4.8A1.36,1.36,0,0,0,59.84,89.42Z"/><path class="cls-1" d="M1.55,91.49c.06.32.12.69.55.59s1.07-.09,1.26-.75a2.39,2.39,0,0,1,.87-1.49,7,7,0,0,1-.91,2.31,2.45,2.45,0,0,1-2,.25C1,92,1.38,91.78,1.55,91.49Z"/><path class="cls-1" d="M64.48,81c-.77-.29-1.67-.22-2.33-.82.7.06,1.47-.32,2.1.27l0,.06Z"/><path class="cls-1" d="M2.09,90.19a.81.81,0,0,1-.49,1.13A2.6,2.6,0,0,1,2.09,90.19Z"/><polygon class="cls-1" points="64.27 80.51 64.25 80.45 64.3 80.47 64.27 80.51"/><path class="cls-1" d="M65.83,89.26l.16,0-.08.13A.17.17,0,0,1,65.83,89.26Z"/><path class="cls-1" d="M102.28,37.47v2.31c-.23,1.62-.46,3.24-.7,4.85C98.66,64.42,79.51,78.46,59.66,75,44,72.33,34,63,29.69,47.67a69.13,69.13,0,0,1-1.35-7.89V37.47c.26-1.95.43-3.92.81-5.84a36.77,36.77,0,0,1,72.07-1C101.68,32.92,101.93,35.2,102.28,37.47ZM51.72,53.52v-.08h5.1a5,5,0,0,0,4.56-2.75Q67,40.89,72.47,31.06a5,5,0,0,0,.11-5c-1.76-3.22-3.56-6.42-5.45-9.57-1-1.69-2.4-1.65-3.51,0-.31.45-.58.93-.85,1.41L52.66,35.74c-2.64,4.68-5.3,9.35-7.92,14-1.35,2.41-.72,3.58,2,3.73C48.42,53.59,50.08,53.52,51.72,53.52Zm26.44-.08c2.25,0,4.5.08,6.75,0,1.74-.09,2.47-1.35,1.63-2.85q-3.27-5.89-6.77-11.67c-1-1.6-2.45-1.59-3.4,0q-3.48,5.77-6.77,11.67c-.84,1.51-.12,2.76,1.63,2.85C73.54,53.52,75.85,53.43,78.16,53.44Z"/></svg>