<svg id="Layer_1" data-name="Layer 1" xmlns="http://www.w3.org/2000/svg" viewBox="0 0 167.17 119.84"><defs><style>.cls-1{fill:#fff;}</style></defs><title>Logo_binance</title><path class="cls-1" d="M6.68,85.58a1.11,1.11,0,0,0,.44,0h9.72a12.36,12.36,0,0,1,2.78.26A6.84,6.84,0,0,1,23,87.67a5.12,5.12,0,0,1,1.4,3,6.3,6.3,0,0,1-.14,2.29,5,5,0,0,1-2.22,3l-.47.31a.84.84,0,0,0,.36.19,8.67,8.67,0,0,1,1.66.92A4.86,4.86,0,0,1,25.67,101a7.33,7.33,0,0,1-.1,2.19A5.17,5.17,0,0,1,23,106.67a8.94,8.94,0,0,1-3.37,1.11,15.43,15.43,0,0,1-2.45.15H6.68Zm8.21,18h2.75a4.89,4.89,0,0,0,1.61-.26,2.23,2.23,0,0,0,1.46-2.91,2.06,2.06,0,0,0-1.33-1.36,4.72,4.72,0,0,0-1.78-.33H11.83c-.31,0-.31,0-.31.3,0,1.43,0,2.86,0,4.28,0,.29,0,.3.32.3Zm-.64-13.72H12c-.48,0-.43,0-.43.45,0,1.29,0,2.58,0,3.87v.22c0,.14,0,.21.19.21h4.2a10.92,10.92,0,0,0,1.15-.07,3.89,3.89,0,0,0,1.49-.44,1.78,1.78,0,0,0,.86-1,2.2,2.2,0,0,0-1.25-3,4.81,4.81,0,0,0-1.6-.28Z"/><path class="cls-1" d="M83.05,25.39c0,.15.18.23.28.33L98,40.4a1.22,1.22,0,0,1,.32.36.92.92,0,0,1-.24.28L93,46.18l-.16.15c-.07.08-.14.08-.22,0s-.14-.14-.21-.21l-9-9c-.06,0-.11-.11-.16-.16-.22-.21-.23-.22-.43,0L80,39.77Q76.73,43,73.5,46.29c-.2.2-.21.2-.4,0L67.8,41c-.19-.19-.19-.2,0-.4l4.32-4.32L82.71,25.69a.75.75,0,0,0,.26-.3Z"/><path class="cls-1" d="M159.26,103.62h.08v4.32h-.09Z"/><path class="cls-1" d="M128.12,108.31v-.08h2.54v.08Z"/><path class="cls-1" d="M108.17,99.24V86.07c0-.46-.07-.45.47-.45h4.2c.15,0,.2.07.2.2v21.79c0,.36,0,.37-.37.37-1.15,0-2.31,0-3.46,0a.62.62,0,0,1-.56-.27c-2.47-3.26-5-6.5-7.42-9.75L98.3,94.11a.68.68,0,0,0-.22-.23c-.09.11,0,.24,0,.35q0,6.61,0,13.22c0,.55.06.48-.47.48H93.43c-.2,0-.26-.08-.25-.26a.76.76,0,0,0,0-.15q0-10.74,0-21.49c0-.39-.09-.42.42-.41h3.77a.61.61,0,0,1,.55.28l9.55,12.57.61.8Z"/><path class="cls-1" d="M47.43,93.91v13.52a2.25,2.25,0,0,0,0,.26c0,.2-.08.25-.27.25H42.85c-.27,0-.27,0-.27-.27a1.61,1.61,0,0,1,0-.22q0-10.68,0-21.34c0-.53-.08-.48.47-.48h3.72a.59.59,0,0,1,.53.27l9.46,12.45.74,1a.65.65,0,0,0,.06-.42V86.11c0-.53-.09-.48.47-.49,1.36,0,2.71,0,4.06,0,.31,0,.31,0,.32.3v21.56c0,.52.09.5-.5.5-1.08,0-2.16,0-3.24,0a.79.79,0,0,1-.71-.36Q52.91,101,47.84,94.32l-.34-.43Z"/><path class="cls-1" d="M83,64.26a1.67,1.67,0,0,0,.39-.36q4.52-4.51,9-9c.35-.35.26-.35.61,0l5.06,5.06c.06.06.12.13.18.18s.12.18,0,.28-.12.12-.18.18L83.28,75.34a1.07,1.07,0,0,1-.27.25,1,1,0,0,1-.28-.25q-7.41-7.4-14.8-14.8c-.37-.36-.36-.27,0-.64L73,54.82l0,0c.28-.27.23-.27.51,0L81,62.29l1.81,1.83Z"/><path class="cls-1" d="M159.26,103.62v4.31H142.79c-.49,0-.45.06-.45-.43V86.09a2.25,2.25,0,0,0,0-.26c0-.15.06-.21.2-.2h16.17c.5,0,.46,0,.46.46v3.73c0,.12-.06.17-.19.17h-11.5c-.28,0-.29,0-.29.3v3.87c0,.39,0,.37.36.37h9.91c.19,0,.26.06.26.26v3.87c0,.18,0,.29-.25.26h-9.79c-.56,0-.48-.07-.49.5v3.73a1.62,1.62,0,0,1,0,.22c0,.17,0,.26.23.24h11.39Z"/><path class="cls-1" d="M89.55,107.91a.5.5,0,0,1-.37.07H84.79c-.35,0-.35,0-.48-.34l-1.76-4.34c-.16-.41-.12-.35-.51-.35H73.4c-.44,0-.37-.08-.56.38l-1.74,4.31c-.14.34-.14.34-.51.34H66.15c-.2,0-.22,0-.14-.23.17-.43.35-.85.53-1.27Q71,96.15,75.36,85.81a.42.42,0,0,1,.46-.31c1.29,0,2.59,0,3.88,0a.42.42,0,0,1,.46.3Q83,92.45,85.82,99.09q1.77,4.14,3.53,8.28A1.86,1.86,0,0,1,89.55,107.91Zm-8.9-9.31-2.93-7.21-3,7.21Z"/><path class="cls-1" d="M130.66,108.23h-2.54a11.22,11.22,0,0,1-10.22-9.67A11.56,11.56,0,0,1,119.84,90a10.82,10.82,0,0,1,7.1-4.58,13.22,13.22,0,0,1,7.36.58A11.36,11.36,0,0,1,138,88.48c.12.12.14.19,0,.33q-1.42,1.62-2.83,3.26c-.13.15-.21.16-.36,0a11.67,11.67,0,0,0-1.8-1.31,7.23,7.23,0,0,0-3.87-1A6.18,6.18,0,0,0,123.85,93a7.43,7.43,0,0,0-1,4.43,7.06,7.06,0,0,0,1.36,3.84,6.24,6.24,0,0,0,5.91,2.58,8,8,0,0,0,4.57-2.14c.16-.14.3-.38.48-.39s.34.27.5.42c.83.82,1.65,1.65,2.47,2.47.12.12.2.19,0,.36a10.88,10.88,0,0,1-7.55,3.71Z"/><path class="cls-1" d="M36,96.76v10.73c0,.49,0,.44-.43.44H31.26c-.15,0-.2-.07-.19-.2V86.09c0-.49-.07-.48.45-.48H35.8c.17,0,.22.07.22.22s0,.2,0,.3Z"/><path class="cls-1" d="M108.21,50.58a2.5,2.5,0,0,0-.34.23l-5.1,5.1-.19.19c-.08.08-.15.06-.22,0a1.21,1.21,0,0,0-.16-.16L97.07,50.8l-.15-.16c-.1-.08-.11-.16,0-.25l.16-.15,5.09-5.13c.31-.31.26-.31.56,0q2.58,2.55,5.15,5.11Z"/><path class="cls-1" d="M88.65,50.47l-.05.09-.19.19-5.1,5.1-.08.08c-.22.22-.23.22-.46,0L78.51,51.7l-1-1c-.13-.12-.13-.21,0-.33s.52-.52.79-.79l4.39-4.39.22-.21c.09-.11.18-.09.27,0a.52.52,0,0,0,.11.1q2.58,2.58,5.18,5.14A.67.67,0,0,1,88.65,50.47Z"/><path class="cls-1" d="M69.18,50.52a.41.41,0,0,1-.05.09l-.19.18-5,5.06-.11.11c-.2.19-.2.19-.41,0L58.09,50.7c-.19-.18-.19-.19,0-.37l5.3-5.3c.2-.2.21-.2.4,0l5.27,5.31S69.17,50.43,69.18,50.52Z"/></svg>