<?xml version="1.0" encoding="utf-8"?>
<!-- Generator: Adobe Illustrator 23.0.3, SVG Export Plug-In . SVG Version: 6.00 Build 0)  -->
<svg version="1.1" id="Layer_1" xmlns="http://www.w3.org/2000/svg" xmlns:xlink="http://www.w3.org/1999/xlink" x="0px" y="0px"
	 viewBox="0 0 130.6 95" style="enable-background:new 0 0 130.6 95;" xml:space="preserve">
<style type="text/css">
	.st0{fill:#12054E;}
	.st1{fill:#BB6DF3;}
	.st2{fill:#5277F7;}
	.st3{fill:#00C7C5;}
	.st4{fill:url(#SVGID_1_);}
	.st5{opacity:0.5;fill:url(#SVGID_2_);}
	.st6{opacity:0.3;}
	.st7{fill:#27043D;}
	.st8{opacity:0.4;}
	.st9{opacity:0.5;fill:url(#SVGID_3_);}
	.st10{opacity:0.2;fill:url(#SVGID_4_);}
	.st11{opacity:0.2;}
	.st12{opacity:0;}
	.st13{opacity:9.090909e-02;}
	.st14{opacity:0.1818;}
	.st15{opacity:0.2727;}
	.st16{opacity:0.3636;}
	.st17{opacity:0.4545;}
	.st18{opacity:0.5455;}
	.st19{opacity:0.6364;}
	.st20{opacity:0.7273;}
	.st21{opacity:0.8182;}
	.st22{opacity:0.9091;}
	.st23{fill:url(#SVGID_5_);}
	.st24{fill:url(#SVGID_6_);}
	.st25{opacity:0.8182;fill:url(#SVGID_7_);}
	.st26{opacity:0.6;fill:url(#SVGID_8_);}
	.st27{fill:url(#SVGID_9_);}
	.st28{opacity:0.3;fill:url(#SVGID_10_);}
	.st29{fill:url(#SVGID_11_);}
	.st30{fill:url(#SVGID_12_);}
	.st31{fill:#BCBEC0;}
	.st32{fill:url(#SVGID_13_);}
	.st33{opacity:0.6;fill:url(#SVGID_14_);}
	.st34{fill:url(#SVGID_15_);}
	.st35{opacity:0;fill:url(#SVGID_16_);}
	.st36{opacity:9.090909e-02;fill:url(#SVGID_17_);}
	.st37{opacity:0.1818;fill:url(#SVGID_18_);}
	.st38{opacity:0.2727;fill:url(#SVGID_19_);}
	.st39{opacity:0.3636;fill:url(#SVGID_20_);}
	.st40{opacity:0.4545;fill:url(#SVGID_21_);}
	.st41{opacity:0.5455;fill:url(#SVGID_22_);}
	.st42{opacity:0.6364;fill:url(#SVGID_23_);}
	.st43{opacity:0.7273;fill:url(#SVGID_24_);}
	.st44{opacity:0.8182;fill:url(#SVGID_25_);}
	.st45{opacity:0.9091;fill:url(#SVGID_26_);}
	.st46{fill:url(#SVGID_27_);}
	.st47{opacity:0.8;fill:url(#SVGID_28_);}
	.st48{fill:url(#SVGID_29_);}
	.st49{filter:url(#Adobe_OpacityMaskFilter);}
	.st50{fill:url(#SVGID_31_);}
	.st51{mask:url(#SVGID_30_);}
	.st52{fill:url(#SVGID_32_);}
	.st53{opacity:0.6;fill:url(#SVGID_33_);}
	.st54{fill:url(#SVGID_34_);}
	.st55{fill:url(#SVGID_35_);}
	.st56{fill:url(#SVGID_36_);}
	.st57{fill:url(#SVGID_37_);}
	.st58{opacity:0;fill:url(#SVGID_38_);}
	.st59{opacity:9.090909e-02;fill:url(#SVGID_39_);}
	.st60{opacity:0.1818;fill:url(#SVGID_40_);}
	.st61{opacity:0.2727;fill:url(#SVGID_41_);}
	.st62{opacity:0.3636;fill:url(#SVGID_42_);}
	.st63{opacity:0.4545;fill:url(#SVGID_43_);}
	.st64{opacity:0.5455;fill:url(#SVGID_44_);}
	.st65{opacity:0.6364;fill:url(#SVGID_45_);}
	.st66{opacity:0.7273;fill:url(#SVGID_46_);}
	.st67{opacity:0.8182;fill:url(#SVGID_47_);}
	.st68{opacity:0.9091;fill:url(#SVGID_48_);}
	.st69{fill:url(#SVGID_49_);}
	.st70{fill:url(#SVGID_50_);}
	.st71{fill:url(#SVGID_51_);}
	.st72{opacity:0;fill:url(#SVGID_52_);}
	.st73{opacity:9.090909e-02;fill:url(#SVGID_53_);}
	.st74{opacity:0.1818;fill:url(#SVGID_54_);}
	.st75{opacity:0.2727;fill:url(#SVGID_55_);}
	.st76{opacity:0.3636;fill:url(#SVGID_56_);}
	.st77{opacity:0.4545;fill:url(#SVGID_57_);}
	.st78{opacity:0.5455;fill:url(#SVGID_58_);}
	.st79{opacity:0.6364;fill:url(#SVGID_59_);}
	.st80{opacity:0.7273;fill:url(#SVGID_60_);}
	.st81{opacity:0.8182;fill:url(#SVGID_61_);}
	.st82{opacity:0.9091;fill:url(#SVGID_62_);}
	.st83{fill:url(#SVGID_63_);}
	.st84{fill:url(#SVGID_64_);}
	.st85{fill:url(#SVGID_65_);}
	.st86{fill:url(#SVGID_66_);}
	.st87{fill:url(#SVGID_67_);}
	.st88{opacity:0.6;fill:url(#SVGID_68_);}
	.st89{fill:url(#SVGID_69_);}
	.st90{fill:url(#SVGID_70_);}
	.st91{fill:url(#SVGID_71_);}
	.st92{fill:url(#SVGID_72_);}
	.st93{fill:#B086CC;}
	.st94{fill:#FFFFFF;}
	.st95{fill:url(#SVGID_73_);}
	.st96{opacity:0.7;}
	.st97{fill:#3C0862;}
	.st98{fill:#9122EB;}
	.st99{fill:url(#SVGID_74_);}
	.st100{opacity:0;fill:url(#SVGID_75_);}
	.st101{opacity:9.090909e-02;fill:url(#SVGID_76_);}
	.st102{opacity:0.1818;fill:url(#SVGID_77_);}
	.st103{opacity:0.2727;fill:url(#SVGID_78_);}
	.st104{opacity:0.3636;fill:url(#SVGID_79_);}
	.st105{opacity:0.4545;fill:url(#SVGID_80_);}
	.st106{opacity:0.5455;fill:url(#SVGID_81_);}
	.st107{opacity:0.6364;fill:url(#SVGID_82_);}
	.st108{opacity:0.7273;fill:url(#SVGID_83_);}
	.st109{opacity:0.8182;fill:url(#SVGID_84_);}
	.st110{opacity:0.9091;fill:url(#SVGID_85_);}
	.st111{fill:url(#SVGID_86_);}
	.st112{fill:url(#SVGID_87_);}
	.st113{fill:url(#SVGID_88_);}
	.st114{opacity:0;fill:url(#SVGID_89_);}
	.st115{opacity:9.090909e-02;fill:url(#SVGID_90_);}
	.st116{opacity:0.1818;fill:url(#SVGID_91_);}
	.st117{opacity:0.2727;fill:url(#SVGID_92_);}
	.st118{opacity:0.3636;fill:url(#SVGID_93_);}
	.st119{opacity:0.4545;fill:url(#SVGID_94_);}
	.st120{opacity:0.5455;fill:url(#SVGID_95_);}
	.st121{opacity:0.6364;fill:url(#SVGID_96_);}
	.st122{opacity:0.7273;fill:url(#SVGID_97_);}
	.st123{opacity:0.8182;fill:url(#SVGID_98_);}
	.st124{opacity:0.9091;fill:url(#SVGID_99_);}
	.st125{fill:url(#SVGID_100_);}
	.st126{fill:url(#SVGID_101_);}
	.st127{fill:url(#SVGID_102_);}
	.st128{fill:url(#SVGID_103_);}
	.st129{fill:url(#SVGID_104_);}
	.st130{fill:url(#SVGID_105_);}
	.st131{fill:url(#SVGID_106_);}
	.st132{fill:url(#SVGID_107_);}
	.st133{fill:url(#SVGID_108_);}
	.st134{fill:url(#SVGID_109_);}
	.st135{opacity:0.5;fill:url(#SVGID_110_);}
	.st136{fill:url(#SVGID_111_);}
	.st137{filter:url(#Adobe_OpacityMaskFilter_1_);}
	.st138{filter:url(#Adobe_OpacityMaskFilter_2_);}
	.st139{mask:url(#SVGID_112_);fill:url(#SVGID_113_);}
	.st140{fill:url(#SVGID_114_);}
	.st141{fill:url(#SVGID_115_);}
	.st142{fill:url(#SVGID_116_);}
	.st143{fill:url(#SVGID_117_);}
	.st144{filter:url(#Adobe_OpacityMaskFilter_3_);}
	.st145{filter:url(#Adobe_OpacityMaskFilter_4_);}
	.st146{mask:url(#SVGID_118_);fill:url(#SVGID_119_);}
	.st147{fill:url(#SVGID_120_);}
	.st148{fill:url(#SVGID_121_);}
	.st149{fill:url(#SVGID_122_);}
	.st150{fill:url(#SVGID_123_);}
	.st151{fill:url(#SVGID_124_);}
	.st152{fill:#EBDEF3;}
	.st153{fill:url(#SVGID_125_);}
	.st154{fill:url(#SVGID_126_);}
	.st155{fill:url(#SVGID_127_);}
	.st156{fill:url(#SVGID_128_);}
	.st157{fill:url(#SVGID_129_);}
	.st158{fill:url(#SVGID_130_);}
	.st159{fill:url(#SVGID_131_);}
	.st160{fill:url(#SVGID_132_);}
	.st161{fill:url(#SVGID_133_);}
	.st162{fill:url(#SVGID_134_);}
	.st163{fill:url(#SVGID_135_);}
	.st164{fill:url(#SVGID_136_);}
	.st165{opacity:0.5;}
	.st166{opacity:0.6;fill:#27043D;}
	.st167{opacity:0.8;fill:#27043D;}
	.st168{opacity:0.3;fill:#27043D;}
	.st169{opacity:0.15;fill:#27043D;}
	.st170{opacity:0.5;fill:#27043D;}
	.st171{fill:url(#SVGID_137_);}
	.st172{fill:url(#SVGID_138_);}
	.st173{fill:url(#SVGID_139_);}
	.st174{fill:url(#SVGID_140_);}
	.st175{fill:url(#SVGID_141_);}
	.st176{fill:url(#SVGID_142_);}
	.st177{fill:url(#SVGID_143_);}
	.st178{fill:url(#SVGID_144_);}
	.st179{fill:url(#SVGID_145_);}
	.st180{fill:url(#SVGID_146_);}
	.st181{fill:url(#SVGID_147_);}
	.st182{fill:url(#SVGID_148_);}
	.st183{fill:url(#SVGID_149_);}
	.st184{fill:url(#SVGID_150_);}
	.st185{fill:url(#SVGID_151_);}
	.st186{fill:url(#SVGID_152_);}
	.st187{fill:url(#SVGID_153_);}
	.st188{fill:url(#SVGID_154_);}
	.st189{fill:url(#SVGID_155_);}
	.st190{fill:url(#SVGID_156_);}
	.st191{fill:url(#SVGID_157_);}
	.st192{fill:url(#SVGID_158_);}
	.st193{fill:#25054D;}
	.st194{filter:url(#Adobe_OpacityMaskFilter_5_);}
	.st195{fill:url(#SVGID_160_);}
	.st196{mask:url(#SVGID_159_);}
	.st197{fill:url(#SVGID_161_);}
	.st198{fill:url(#SVGID_162_);}
	.st199{fill:url(#SVGID_163_);}
	.st200{fill:url(#SVGID_164_);}
	.st201{fill:#FDD65B;}
	.st202{fill:url(#SVGID_165_);}
	.st203{fill:url(#SVGID_166_);}
	.st204{fill:url(#SVGID_167_);}
	.st205{fill:url(#SVGID_168_);}
	.st206{fill:url(#SVGID_169_);}
	.st207{fill:url(#SVGID_170_);}
	.st208{fill:url(#SVGID_171_);}
	.st209{fill:url(#SVGID_172_);}
	.st210{fill:url(#SVGID_173_);}
	.st211{fill:url(#SVGID_174_);}
	.st212{opacity:0.9;fill:url(#SVGID_175_);}
	.st213{opacity:0.7;fill:url(#SVGID_176_);}
	.st214{fill:url(#SVGID_177_);}
	.st215{fill:url(#SVGID_178_);}
	.st216{filter:url(#Adobe_OpacityMaskFilter_6_);}
	.st217{fill:url(#SVGID_180_);}
	.st218{mask:url(#SVGID_179_);}
	.st219{fill:url(#SVGID_181_);}
	.st220{fill:url(#SVGID_182_);}
	.st221{fill:url(#SVGID_183_);}
	.st222{fill:url(#SVGID_184_);}
	.st223{fill:url(#SVGID_185_);}
	.st224{fill:url(#SVGID_186_);}
	.st225{fill:url(#SVGID_187_);}
	.st226{fill:url(#SVGID_188_);}
	.st227{fill:url(#SVGID_189_);}
	.st228{fill:url(#SVGID_190_);}
	.st229{fill:url(#SVGID_191_);}
	.st230{fill:url(#SVGID_192_);}
	.st231{fill:url(#SVGID_193_);}
	.st232{fill:url(#SVGID_194_);}
	.st233{opacity:0.9;fill:url(#SVGID_195_);}
	.st234{opacity:0.7;fill:url(#SVGID_196_);}
	.st235{fill:url(#SVGID_197_);}
	.st236{fill:url(#SVGID_198_);}
	.st237{filter:url(#Adobe_OpacityMaskFilter_7_);}
	.st238{fill:url(#SVGID_200_);}
	.st239{mask:url(#SVGID_199_);}
	.st240{fill:url(#SVGID_201_);}
	.st241{fill:url(#SVGID_202_);}
	.st242{fill:url(#SVGID_203_);}
	.st243{fill:url(#SVGID_204_);}
	.st244{fill:url(#SVGID_205_);}
	.st245{fill:url(#SVGID_206_);}
	.st246{fill:url(#SVGID_207_);}
	.st247{fill:url(#SVGID_208_);}
	.st248{fill:url(#SVGID_209_);}
	.st249{fill:url(#SVGID_210_);}
	.st250{fill:url(#SVGID_211_);}
	.st251{fill:url(#SVGID_212_);}
	.st252{fill:url(#SVGID_213_);}
	.st253{fill:url(#SVGID_214_);}
	.st254{opacity:0.9;fill:url(#SVGID_215_);}
	.st255{opacity:0.7;fill:url(#SVGID_216_);}
	.st256{fill:url(#SVGID_217_);}
	.st257{fill:url(#SVGID_218_);}
	.st258{fill:url(#SVGID_219_);}
	.st259{fill:url(#SVGID_220_);}
	.st260{fill:url(#SVGID_221_);}
	.st261{fill:url(#SVGID_222_);}
	.st262{fill:url(#SVGID_223_);}
	.st263{fill:url(#SVGID_224_);}
	.st264{fill:url(#SVGID_225_);}
	.st265{fill:url(#SVGID_226_);}
	.st266{fill:url(#SVGID_227_);}
	.st267{fill:url(#SVGID_228_);}
	.st268{fill:url(#SVGID_229_);}
	.st269{fill:url(#SVGID_230_);}
	.st270{fill:url(#SVGID_231_);}
	.st271{fill:url(#SVGID_232_);}
	.st272{fill:url(#SVGID_233_);}
	.st273{fill:url(#SVGID_234_);}
	.st274{fill:url(#SVGID_235_);}
	.st275{fill:url(#SVGID_236_);}
	.st276{fill:url(#SVGID_237_);}
	.st277{fill:url(#SVGID_238_);}
	.st278{fill:url(#SVGID_239_);}
	.st279{fill:url(#SVGID_240_);}
	.st280{fill:url(#SVGID_241_);}
	.st281{fill:url(#SVGID_242_);}
	.st282{fill:url(#SVGID_243_);}
	.st283{fill:url(#SVGID_244_);}
	.st284{fill:url(#SVGID_245_);}
	.st285{fill:url(#SVGID_246_);}
	.st286{fill:url(#SVGID_247_);}
	.st287{fill:url(#SVGID_248_);}
	.st288{fill:url(#SVGID_249_);}
	.st289{fill:url(#SVGID_250_);}
	.st290{fill:url(#SVGID_251_);}
	.st291{fill:url(#SVGID_252_);}
	.st292{fill:url(#SVGID_253_);}
	.st293{fill:url(#SVGID_254_);}
	.st294{fill:url(#SVGID_255_);}
	.st295{fill:url(#SVGID_256_);}
	.st296{fill:url(#SVGID_257_);}
	.st297{fill:url(#SVGID_258_);}
	.st298{fill:url(#SVGID_259_);}
	.st299{fill:url(#SVGID_260_);}
	.st300{fill:url(#SVGID_261_);}
	.st301{fill:url(#SVGID_262_);}
	.st302{fill:url(#SVGID_263_);}
	.st303{fill:url(#SVGID_264_);}
	.st304{fill:url(#SVGID_265_);}
	.st305{fill:url(#SVGID_266_);}
	.st306{fill:url(#SVGID_267_);}
	.st307{fill:url(#SVGID_268_);}
	.st308{fill:url(#SVGID_269_);}
	.st309{fill:url(#SVGID_270_);}
	.st310{fill:url(#SVGID_271_);}
	.st311{fill:url(#SVGID_272_);}
	.st312{opacity:0.5;fill:url(#SVGID_273_);}
	.st313{opacity:0.5;fill:url(#SVGID_274_);}
	.st314{fill:url(#SVGID_275_);}
	.st315{fill:#10054D;}
	.st316{fill:none;stroke:#FFFFFF;stroke-miterlimit:10;}
	.st317{fill:#5202B5;}
	.st318{fill:#530283;}
	.st319{fill:url(#SVGID_276_);}
	.st320{fill:url(#SVGID_277_);}
	.st321{fill:url(#SVGID_278_);}
	.st322{fill:url(#SVGID_279_);}
	.st323{fill:none;stroke:#FFFFFF;stroke-width:5;stroke-linecap:round;stroke-linejoin:round;stroke-miterlimit:10;}
	.st324{fill:#DBDBDB;}
	.st325{fill:#D4D4D4;}
	.st326{fill:#A6A6A6;}
	.st327{fill:#C7C7C7;}
	.st328{fill:url(#SVGID_280_);}
	.st329{fill:url(#SVGID_281_);}
	.st330{fill:url(#SVGID_282_);}
	.st331{fill:#FFFFFF;stroke:#273B98;stroke-miterlimit:10;}
	.st332{fill:url(#SVGID_283_);}
	.st333{fill:url(#SVGID_284_);}
	.st334{fill:url(#SVGID_285_);}
	.st335{fill:url(#SVGID_286_);}
	.st336{fill:url(#SVGID_287_);}
	.st337{fill:url(#SVGID_288_);}
	.st338{fill:url(#SVGID_289_);}
	.st339{fill:url(#SVGID_290_);}
	.st340{fill:url(#SVGID_291_);}
	.st341{fill:url(#SVGID_292_);}
	.st342{fill:#BDD0FB;}
	.st343{fill:url(#SVGID_293_);}
	.st344{fill:url(#SVGID_294_);}
	.st345{fill:url(#SVGID_295_);}
	.st346{fill:url(#SVGID_296_);}
	.st347{fill:url(#SVGID_297_);}
	.st348{fill:url(#SVGID_298_);}
	.st349{opacity:0.72;fill:#FFFFFF;}
	.st350{fill:#91B3FA;}
	.st351{opacity:0.9;}
	.st352{fill-rule:evenodd;clip-rule:evenodd;fill:#FFFFFF;}
	.st353{fill:#7D97F4;}
	.st354{fill:url(#SVGID_299_);}
	.st355{fill:url(#SVGID_300_);}
	.st356{fill:url(#SVGID_301_);}
	.st357{fill:url(#SVGID_302_);}
	.st358{fill:url(#SVGID_303_);}
	.st359{fill:url(#SVGID_304_);}
	.st360{fill:url(#SVGID_305_);}
	.st361{fill:url(#SVGID_306_);}
	.st362{fill:url(#SVGID_307_);}
	.st363{fill:url(#SVGID_308_);}
	.st364{opacity:0.5;fill:url(#SVGID_309_);}
	.st365{fill:url(#SVGID_310_);}
	.st366{fill:url(#SVGID_311_);}
	.st367{fill:url(#SVGID_312_);}
	.st368{fill:url(#SVGID_313_);}
	.st369{fill:#F8A570;}
	.st370{fill:url(#SVGID_314_);}
	.st371{fill:url(#SVGID_315_);}
	.st372{fill:url(#SVGID_316_);}
	.st373{fill:#8992B1;}
	.st374{fill:#63688F;}
	.st375{fill:#454A74;}
	.st376{fill:#8A92B1;}
	.st377{fill:#64698F;}
	.st378{fill:#3B3F65;}
	.st379{fill:none;stroke:url(#SVGID_323_);stroke-width:4;stroke-miterlimit:10;}
	.st380{opacity:0.6;}
	.st381{fill:url(#SVGID_324_);}
	.st382{fill:url(#SVGID_325_);}
	.st383{fill:url(#SVGID_326_);}
	.st384{fill:url(#SVGID_327_);}
	.st385{fill:url(#SVGID_328_);}
	.st386{fill:url(#SVGID_329_);}
	.st387{fill:url(#SVGID_330_);}
	.st388{fill:url(#SVGID_331_);}
	.st389{fill:url(#SVGID_332_);}
	.st390{fill:url(#SVGID_333_);}
	.st391{fill:url(#SVGID_334_);}
	.st392{fill:url(#SVGID_335_);}
	.st393{fill:url(#SVGID_336_);}
	.st394{fill:url(#SVGID_337_);}
	.st395{fill:url(#SVGID_338_);}
	.st396{fill:url(#SVGID_339_);}
	.st397{fill:url(#SVGID_340_);}
	.st398{fill:url(#SVGID_341_);}
	.st399{fill:url(#SVGID_342_);}
	.st400{fill:url(#SVGID_343_);}
	.st401{fill:url(#SVGID_344_);}
	.st402{fill:url(#SVGID_345_);}
	.st403{fill:url(#SVGID_346_);}
	.st404{fill:url(#SVGID_347_);}
	.st405{fill:url(#SVGID_348_);}
	.st406{fill:url(#SVGID_349_);}
	.st407{fill:url(#SVGID_350_);}
	.st408{fill:url(#SVGID_351_);}
	.st409{fill:url(#SVGID_352_);}
	.st410{fill:url(#SVGID_353_);}
	.st411{fill:url(#SVGID_354_);}
	.st412{fill:url(#SVGID_355_);}
	.st413{fill:url(#SVGID_356_);}
	.st414{fill:url(#SVGID_357_);}
	.st415{fill:url(#SVGID_358_);}
	.st416{fill:url(#SVGID_359_);}
	.st417{fill:url(#SVGID_360_);}
	.st418{fill:url(#SVGID_361_);}
	.st419{fill:url(#SVGID_362_);}
	.st420{fill:url(#SVGID_363_);}
	.st421{fill:url(#SVGID_364_);}
	.st422{fill:url(#SVGID_365_);}
	.st423{fill:url(#SVGID_366_);}
	.st424{fill:#CBA6E3;}
	.st425{fill:#CCA7E3;}
	.st426{fill:#CCA8E4;}
	.st427{fill:#CDA9E4;}
	.st428{fill:#CDAAE4;}
	.st429{fill:#CEABE4;}
	.st430{fill:#CEACE5;}
	.st431{fill:#CFADE5;}
	.st432{fill:#CFAEE5;}
	.st433{fill:#D0AFE6;}
	.st434{fill:#D1B0E6;}
	.st435{fill:#D1B1E6;}
	.st436{fill:#D2B2E6;}
	.st437{fill:#D2B3E7;}
	.st438{fill:#D3B4E7;}
	.st439{fill:#D3B5E7;}
	.st440{fill:#D4B6E7;}
	.st441{fill:#D5B7E8;}
	.st442{fill:#D5B8E8;}
	.st443{fill:#D6B9E8;}
	.st444{fill:#D6BAE9;}
	.st445{fill:#D7BBE9;}
	.st446{fill:#D7BCE9;}
	.st447{fill:#D8BDE9;}
	.st448{fill:#D8BEEA;}
	.st449{fill:#D9BFEA;}
	.st450{fill:#DAC0EA;}
	.st451{fill:#DAC1EB;}
	.st452{fill:#DBC2EB;}
	.st453{fill:#DCC3EB;}
	.st454{fill:#DCC4EC;}
	.st455{fill:#DDC5EC;}
	.st456{fill:#DEC6EC;}
	.st457{fill:#DEC7ED;}
	.st458{fill:#DFC8ED;}
	.st459{fill:#DFC9ED;}
	.st460{fill:#E0CAED;}
	.st461{fill:#E0CBEE;}
	.st462{fill:#E1CCEE;}
	.st463{fill:#E1CDEE;}
	.st464{fill:#E2CEEF;}
	.st465{fill:#E3CFEF;}
	.st466{fill:#E3D0EF;}
	.st467{fill:#E4D1EF;}
	.st468{fill:#E4D2F0;}
	.st469{fill:#E5D3F0;}
	.st470{fill:#E5D4F0;}
	.st471{fill:#E6D5F0;}
	.st472{fill:#E7D6F1;}
	.st473{fill:#E7D7F1;}
	.st474{fill:#E8D8F1;}
	.st475{fill:#E8D9F2;}
	.st476{fill:#E9DAF2;}
	.st477{fill:#E9DBF2;}
	.st478{fill:#EADCF2;}
	.st479{fill:#EADDF3;}
	.st480{fill:url(#SVGID_367_);}
	.st481{fill:url(#SVGID_368_);}
	.st482{fill:url(#SVGID_369_);}
	.st483{fill:url(#SVGID_370_);}
	.st484{opacity:0.7;fill:url(#SVGID_371_);}
	.st485{fill:url(#SVGID_372_);}
	.st486{fill:url(#SVGID_373_);}
	.st487{fill:#D1B4E3;}
	.st488{opacity:2.000000e-02;}
	.st489{opacity:4.545455e-02;}
	.st490{opacity:7.090909e-02;}
	.st491{opacity:9.636363e-02;}
	.st492{opacity:0.1218;}
	.st493{opacity:0.1473;}
	.st494{opacity:0.1727;}
	.st495{opacity:0.1982;}
	.st496{opacity:0.2236;}
	.st497{opacity:0.2491;}
	.st498{opacity:0.2745;}
	.st499{fill:url(#SVGID_374_);}
	.st500{fill:#E5D4EF;}
	.st501{fill:url(#SVGID_375_);}
	.st502{fill:#231F20;}
	.st503{fill:url(#SVGID_376_);}
	.st504{fill:url(#SVGID_377_);}
	.st505{fill:url(#SVGID_378_);}
	.st506{fill:url(#SVGID_379_);}
	.st507{fill:url(#SVGID_380_);}
	.st508{opacity:0.5;fill:#EBDEF3;}
	.st509{fill:url(#SVGID_381_);}
	.st510{fill:url(#SVGID_382_);}
	.st511{fill:url(#SVGID_383_);}
	.st512{fill:url(#SVGID_384_);}
	.st513{fill:url(#SVGID_385_);}
	.st514{opacity:0.2;fill:#EBDEF3;}
	.st515{fill:url(#SVGID_386_);}
	.st516{fill:url(#SVGID_387_);}
	.st517{fill:url(#SVGID_388_);}
	.st518{fill:url(#SVGID_389_);}
	.st519{fill:url(#SVGID_390_);}
	.st520{fill:url(#SVGID_391_);}
	.st521{fill:url(#SVGID_392_);}
	.st522{fill:url(#SVGID_393_);}
	.st523{fill:url(#SVGID_394_);}
	.st524{fill:url(#SVGID_395_);}
	.st525{opacity:0.3;fill:#5427A8;}
	.st526{fill:#93278F;}
	.st527{fill:url(#SVGID_396_);}
	.st528{opacity:0.5;fill:url(#SVGID_397_);}
	.st529{opacity:0.4;fill:#27043D;}
	.st530{opacity:0.2;fill:#27043D;}
	.st531{opacity:0.7;fill:url(#SVGID_398_);}
	.st532{opacity:0.15;fill:url(#SVGID_399_);}
	.st533{opacity:0.1;fill:url(#SVGID_400_);}
	.st534{opacity:0.3;fill:url(#SVGID_401_);}
	.st535{opacity:0.1;fill:url(#SVGID_402_);}
	.st536{opacity:0.3;fill:url(#SVGID_403_);}
	.st537{opacity:0.15;fill:url(#SVGID_404_);}
	.st538{fill:url(#SVGID_405_);}
	.st539{fill:url(#SVGID_406_);}
	.st540{fill:url(#SVGID_407_);}
	.st541{fill:url(#SVGID_408_);}
	.st542{fill:url(#SVGID_409_);}
	.st543{fill:url(#SVGID_410_);}
	.st544{fill:url(#SVGID_411_);}
	.st545{fill:url(#SVGID_412_);}
	.st546{fill:url(#SVGID_413_);}
	.st547{fill:url(#SVGID_414_);}
	.st548{fill:#D1D3D4;}
	.st549{fill:url(#SVGID_415_);}
	.st550{fill:url(#SVGID_416_);}
	.st551{fill:url(#SVGID_417_);}
	.st552{fill:url(#SVGID_418_);}
	.st553{fill:url(#SVGID_419_);}
	.st554{fill:url(#SVGID_420_);}
	.st555{fill:url(#SVGID_421_);}
	.st556{opacity:0.5;fill:url(#SVGID_422_);}
	.st557{fill:url(#SVGID_423_);}
	.st558{fill:url(#SVGID_424_);}
	.st559{fill:url(#SVGID_425_);}
	.st560{fill:url(#SVGID_426_);}
	.st561{fill:url(#SVGID_427_);}
	.st562{fill:url(#SVGID_428_);}
	.st563{fill:url(#SVGID_429_);}
	.st564{fill:url(#SVGID_430_);}
	.st565{opacity:0.5;fill:url(#SVGID_431_);}
	.st566{fill:url(#SVGID_432_);}
	.st567{fill:url(#SVGID_433_);}
	.st568{fill:url(#SVGID_434_);}
	.st569{fill:url(#SVGID_435_);}
	.st570{fill:url(#SVGID_436_);}
	.st571{fill:url(#SVGID_437_);}
	.st572{fill:url(#SVGID_438_);}
	.st573{fill:url(#SVGID_439_);}
	.st574{fill:none;stroke:url(#SVGID_440_);stroke-width:6;stroke-miterlimit:10;}
	.st575{fill-rule:evenodd;clip-rule:evenodd;fill:#1E183B;}
	.st576{fill:url(#SVGID_441_);}
	.st577{fill:url(#SVGID_442_);}
	.st578{fill:url(#SVGID_443_);}
	.st579{fill:url(#SVGID_444_);}
	.st580{fill:url(#SVGID_445_);}
	.st581{fill:#B4F759;}
	.st582{fill:#FFFFFF;stroke:#7165D7;stroke-width:3;stroke-miterlimit:10;}
	.st583{fill:none;stroke:#819EC7;stroke-width:1.0381;stroke-miterlimit:10;}
	.st584{opacity:0.5;fill:url(#SVGID_474_);}
	.st585{opacity:0.7;fill:url(#SVGID_475_);}
	.st586{opacity:0.15;fill:url(#SVGID_476_);}
	.st587{opacity:0.1;fill:url(#SVGID_477_);}
	.st588{opacity:0.3;fill:url(#SVGID_478_);}
	.st589{opacity:0.1;fill:url(#SVGID_479_);}
	.st590{opacity:0.3;fill:url(#SVGID_480_);}
	.st591{opacity:0.15;fill:url(#SVGID_481_);}
	.st592{fill:url(#SVGID_482_);}
	.st593{fill:url(#SVGID_483_);}
	.st594{fill:url(#SVGID_484_);}
	.st595{fill:url(#SVGID_485_);}
	.st596{fill:url(#SVGID_486_);}
	.st597{fill:url(#SVGID_487_);}
	.st598{fill:url(#SVGID_488_);}
	.st599{fill:url(#SVGID_489_);}
	.st600{fill:url(#SVGID_490_);}
	.st601{fill:url(#SVGID_491_);}
	.st602{fill:url(#SVGID_492_);}
	.st603{fill:url(#SVGID_493_);}
	.st604{fill:url(#SVGID_494_);}
	.st605{fill:url(#SVGID_495_);}
	.st606{fill:url(#SVGID_496_);}
	.st607{fill:url(#SVGID_497_);}
	.st608{fill:url(#SVGID_498_);}
	.st609{opacity:0.5;fill:url(#SVGID_499_);}
	.st610{fill:url(#SVGID_500_);}
	.st611{fill:url(#SVGID_501_);}
	.st612{fill:url(#SVGID_502_);}
	.st613{fill:url(#SVGID_503_);}
	.st614{fill:url(#SVGID_504_);}
	.st615{fill:url(#SVGID_505_);}
	.st616{fill:url(#SVGID_506_);}
	.st617{fill:url(#SVGID_507_);}
	.st618{opacity:0.5;fill:url(#SVGID_508_);}
	.st619{fill:url(#SVGID_509_);}
	.st620{fill:url(#SVGID_510_);}
	.st621{fill:url(#SVGID_511_);}
	.st622{fill:url(#SVGID_512_);}
	.st623{fill:url(#SVGID_513_);}
	.st624{fill:url(#SVGID_514_);}
	.st625{fill:url(#SVGID_515_);}
	.st626{fill:url(#SVGID_516_);}
</style>
<g>
	<path class="st94" d="M84.1,28.5c-0.1-0.1-0.3-0.1-0.4-0.2c-0.1-0.3-0.3-0.4-0.6-0.5c-0.7-0.1-1.9,0.4-2.3,1.1c0,0,0,0,0,0
		c-0.2,0-0.5,0-0.5,0.3l0,0c0,0,0,0,0,0c-0.2,0-0.3,0-0.4,0.2c0,0,0,0,0,0c-0.4-0.1-0.6,0.2-0.8,0.5c0,0,0,0,0,0
		c-0.2,0-0.3,0-0.3,0.2c0,0,0,0,0,0c-0.4-0.1-0.7,0.2-1,0.3c-0.9,0.5-1.9,0.9-2.6,1.7c-0.1,0-0.1,0-0.2,0c-0.1-0.1-0.1,0-0.1,0.1
		c-0.1,0-0.1,0.1-0.2,0.1c-0.4,0.1-0.8,0.2-1,0.7c0,0,0,0,0,0c-0.8,0.3-1.7,0.4-2.2,1.3c0,0,0,0,0,0c-1.1,0.2-2.1,0.8-3,1.4
		c-0.7,0.5-1.7,0.7-2.2,1.5c0,0,0,0,0,0c-0.1,0-0.1,0.1-0.2,0.1c0,0,0,0,0,0c-0.9,0.1-1.5,0.6-2.1,1.2c0,0,0,0,0,0
		c-0.4,0-0.7,0.1-0.8,0.5c0,0,0,0,0,0c-0.4-0.1-0.6,0-0.7,0.4c0,0,0,0,0,0c-1,0-1.7,0.8-2.6,1.3c-0.3,0.2-0.9,0.2-1,0.8c0,0,0,0,0,0
		c-0.2,0-0.3,0-0.5,0c-0.9,0.4-1.7,0.9-2.6,1.3c-0.2,0.1-0.5,0.3-0.4,0.6c0,0,0,0,0,0c-0.9,0.2-1.7,0.4-2.2,1.3c0,0,0,0,0,0
		c-0.5,0-1,0.1-1.1,0.7c0,0,0,0,0,0c-0.1,0-0.2,0-0.3,0c-0.8,0.1-1.3,0.8-2,1.1c-0.9,0.4-1.4,0.5-2.2,0c-0.4-0.2-0.8-0.6-1.4-0.5
		l0,0c0,0,0,0,0,0c-0.2-0.6-0.7-0.7-1.3-0.7c0,0,0,0,0,0c0-0.2-0.1-0.4-0.3-0.5c-0.6-0.3-1.2-0.7-1.7-1c-0.4-0.2-0.8-0.5-1.3-0.4
		c0,0-0.1,0-0.1,0c0-0.3,0.1-0.6-0.3-0.7c-0.7-0.2-1.4-0.5-2-0.9c-0.2-0.1-0.4-0.5-0.8-0.3c-0.3-0.1-0.7-0.3-1-0.4
		c-0.1-0.9-0.8-1-1.5-0.9c0,0,0,0,0,0c0-0.1-0.1-0.2-0.2-0.1c0,0,0,0,0,0c-0.1-0.5-0.6-0.4-0.9-0.5c0,0,0,0,0,0
		c-0.1-0.2-0.2-0.2-0.3-0.2c0,0,0,0,0,0c0-0.6-0.3-0.5-0.7-0.4l0-0.1c0,0,0,0.1,0,0c-0.3-0.5-0.7-0.8-1.3-0.7c0,0,0,0,0,0
		c-0.3-1-1.3-0.8-2-1.1c0,0,0,0,0,0c-0.1-0.7-0.6-0.6-1-0.6c0,0,0,0,0,0c0-0.2-0.2-0.2-0.4-0.2c-1-0.3-1.3-1.1-1.2-2.1
		c0-7,0-14,0-21.1c0-0.9,0.3-1.5,1.1-1.9c1.5-0.8,2.9-1.6,4.4-2.5c1.2-0.3,2.2-1.1,3.3-1.7c0,0,0-0.1,0.1-0.2c0,0,0,0,0,0
		c0.5-0.1,1-0.2,1.3-0.7l0.1,0c0,0-0.1,0-0.1,0c0.8,0,1.2-0.5,1.6-1l0,0c0,0,0,0,0,0c0.2,0,0.3,0,0.3-0.2c0,0,0,0,0,0
		c0.9-0.1,1.6-0.6,2.2-1.3c0,0,0,0,0,0c0.7-0.1,1.3-0.4,1.8-1c0,0,0,0,0,0c0.2,0,0.3,0,0.4-0.1c0.2,0,0.4,0,0.7-0.1
		c1.3-0.8,2.6-1.7,4.1-2.2c0.1,0,0.2,0,0.3,0.2c0.1,0.5,0.5,0.6,0.9,0.8c0.3,0.1,0.8,0.3,0.9,0.5C51.4,3,52,2.5,52.5,2.3
		c0,0,0,0,0,0c0.1,0,0.1,0.1,0.2,0.1c0,0,0,0,0,0C52.8,2.9,53.1,3,53.5,3c0,0,0,0,0,0c0,0.1,0.1,0.1,0.1,0.2c0,0.3,0.2,0.3,0.3,0.5
		c0,0,0,0,0,0.1c0,0,0,0,0-0.1c0.3,0,0.6,0.2,0.9,0.3c0.9,0.4,1.5,1.2,2.4,1.5c0.7,0.2,1.4,0.6,2,1.2c0-0.1,0.1-0.1,0.1-0.2
		c0.7,0.4,1.4,0.8,2.1,1.2c0.1,0.1,0.1,0.1,0.2,0.1l0,0c0,0,0,0,0,0c0,0.9,0.7,0.5,1.1,0.7c0,0,0,0,0,0c0.6,0.7,1.3,1.2,2.3,1.3
		c0,0,0,0,0,0c0.2,0.6,0.6,0.6,1.1,0.7c0,0,0,0,0,0c0.8,0.9,2,1.3,2.8,2.1c0,2.3,0,4.6,0,6.9c0,0.7-0.1,1.4-1,1.6
		c-0.3,0.1-0.8,0.3-1,0.7c-1.2,0.3-2.1,1.2-3.1,1.7c-0.2,0.1-0.3,0.3-0.3,0.5c0,0,0,0,0,0c-0.1,0-0.3,0-0.3,0.2c0,0,0,0,0,0
		c-0.8,0.1-0.8-0.4-0.8-1c0-2,0-4.1,0-6.1c0-0.3,0.1-0.7-0.3-0.9c-0.6-0.7-1.6-1-2.3-1.5c-0.1-0.4-0.4-0.6-0.8-0.5c0,0,0,0,0,0
		c-0.2-0.3-0.5-0.6-1-0.5c0,0,0,0,0,0c-0.3-0.7-1-0.8-1.6-1.2c-0.9-0.6-1.9-1.3-3-1.5c0,0,0,0,0,0c0-0.4-0.3-0.6-0.7-0.4
		c0,0,0,0,0,0c0-0.2-0.1-0.4-0.3-0.5c-1.1-0.3-1.9-1.1-2.9-1.6c-1.2-0.5-1.7-0.5-2.6,0.6c0,0,0,0,0,0c-0.3-0.1-0.5,0-0.7,0.1
		c-0.5,0.1-0.8,0.6-1.3,0.8c-1.6,0.7-3.1,1.7-4.5,2.6c-0.3,0.2-0.7,0.2-0.7,0.7c0,0,0,0,0,0c-0.7,0.2-1.4,0.3-1.8,1.1
		c-0.7,0.1-1.2,0.6-1.8,0.9c-0.6-0.1-1,0.3-1.2,0.8c-0.4,0.3-0.7,0.6-0.3,1.1c0,4.5,0,8.9,0,13.4c0,1,0.2,1.7,1.2,2.1
		c0.7,0.3,1.5,0.6,2,1.3c0.2,0.3,0.6,0.2,0.9,0.1c0,0,0,0,0,0c0.9,0.9,2,1.6,3.2,1.8c0,0,0,0,0,0c0.1,0.4,0.3,0.5,0.7,0.4
		c0,0,0,0,0,0c0.3,0.7,0.9,0.7,1.4,0.8c0,0,0,0,0,0c0,0.6,0.4,0.5,0.8,0.5c0,0,0,0,0,0c0.2,0.5,0.7,0.6,1.1,0.6c0,0,0,0,0,0
		c0,0.3,0.3,0.2,0.4,0.2c0,0,0,0,0,0c0.4,0.8,1.6,1.3,2.4,1.1c0.3-0.1,0.5-0.5,0.8-0.5c0.6,0,0.9-0.3,1-0.8c0,0,0,0,0.1,0
		c0.3,0,0.5,0.1,0.6-0.3c0,0,0,0,0,0c0.9-0.2,1.8-0.4,2.3-1.3c0,0,0,0,0,0c1.4-0.2,2.4-1.1,3.4-2c0,0,0,0,0,0c0.8,0.1,1.3-0.4,1.8-1
		l0.1,0c0,0,0,0,0,0c0.4,0,0.8,0.1,0.8-0.5c0,0,0,0,0,0c1,0,1.6-0.8,2.4-1.1c0.5-0.2,1.2-0.4,1.5-1c0.7-0.6,1.5-0.9,2.3-1.4
		c0.8,0.1,1.2-0.7,1.9-0.8c0.9-0.1,1.3-0.9,1.9-1.4c0,0,0,0,0,0c0.2,0,0.3,0,0.3-0.2l0,0c0,0,0,0,0,0c0.7,0,1.2-0.2,1.5-0.9
		c0-0.1,0-0.1,0.1-0.1c0.1-0.1,0.2-0.1,0.2-0.2c0,0,0,0,0,0c0.1,0,0.3,0,0.3-0.2c0,0,0,0,0,0c0.6-0.1,1.3,0.1,1.6-0.5
		c0.2-0.4,0.5-0.5,0.8-0.7c0.6-0.3,1.3-0.5,1.6-1.2l0,0c0,0,0,0,0,0c0.5,0.2,0.8-0.5,1.3-0.2c0.5,0.3,0.6,0,0.5-0.5
		c0-0.2,0-0.3,0-0.5c0,0,0,0,0,0c1.1,0,1.7-0.7,2.4-1.4c0,0,0,0,0,0c0.4,0,0.9,0,1-0.6c0.2,0,0.3,0,0.5,0c0.3-0.1,0.5-0.2,0.7-0.3
		c0.8-0.3-0.1,0.5,0.3,0.4c0.1,0,0.2,0,0.3,0c0.3,0,0.5-0.1,0.8-0.1c0,0,0,0,0,0c0,0.2,0.1,0.4,0.3,0.5c0.5,0.3,1.1,0.6,1.6,0.9
		c1.1,0.5,2,1.4,3.2,1.6c0,0,0,0,0,0c0.1,0,0.1,0.1,0.2,0.1c0,0,0,0,0,0c0.1,0.2,0.2,0.2,0.4,0.2c0,0,0.1,0,0.1,0
		c0,0.3,0.3,0.3,0.5,0.3c0,0,0,0,0,0c0,0.1,0,0.3,0.1,0.4c1.5,0.9,2.9,1.8,4.5,2.5c0.1,0.1,0.3,0,0.5,0.1c0,0,0,0,0,0
		c0,0.6,0.4,0.5,0.8,0.5c0.1,0.3,0.4,0.4,0.7,0.3c0,0,0,0,0,0c0.5,0.9,1.4,1,2.2,1.3c0,0,0,0,0,0c0,0.5,0.5,0.5,0.8,0.5c0,0,0,0,0,0
		c0.3,0.4,0.7,0.6,1.1,0.7c0,0,0,0,0,0c0.1,0.3,0.3,0.2,0.4,0.2c0.1,0,0.1,0.1,0.2,0.1c0,0.5,0.4,0.7,0.7,0.8
		c0.9,0.4,0.8,1.1,0.8,1.8c0,7,0,13.9,0,20.9c0,0.4,0,0.9-0.2,1.3c-0.8,0.1-1.4,0.6-1.9,1c-0.7,0.4-1.6,0.6-2,1.4
		c-0.2,0-0.3,0-0.5,0.1c-0.4-0.1-0.7,0-0.7,0.5c0,0,0,0,0,0c-0.2,0-0.5-0.1-0.7-0.1c-0.2-0.1-0.5-0.3-0.7-0.2
		c-0.2,0.2,0.1,0.4,0.2,0.6c0.1,0.1-0.1,0.2-0.2,0.3c-0.2,0.1-0.3,0.2-0.3,0.4c0,0,0,0,0,0c-0.2,0-0.4-0.2-0.4-0.1
		c-0.5,0.7-1.4,0.7-1.9,1.4c-1,0-1.6,0.7-2.3,1.3c-0.1,0-0.3,0-0.3,0.2l0-0.1c0,0,0,0.1,0,0.1c-0.3,0-0.7,0.1-1,0
		c0,0.7-0.8,0.7-1,1.1c-0.2,0-0.3,0-0.3,0.2c0,0,0,0,0,0c-0.1,0-0.1-0.1-0.2-0.1c-0.9-0.2-1.1-0.1-1.5,1c0,0,0,0,0,0
		c-0.2,0-0.3,0.1-0.3,0.3c-0.3,0.1-0.6,0.1-0.7,0.4c-0.5,0-1,0.1-1.2,0.7l0-0.1c0,0,0,0.1,0,0.1c-0.4,0-0.6,0-0.7,0.4c0,0,0,0,0,0
		c-0.4,0.1-0.8-0.3-1.1,0c-0.6,0.6-0.7,0.6-1.4,0.1c-0.6-0.4-1.4-0.8-2.2-0.9c0,0,0,0,0,0c-0.1-0.6-0.5-0.6-1-0.5c0,0,0,0,0,0
		c-0.2-0.4-0.5-0.6-1-0.6c0,0,0,0,0,0c-0.7-0.7-1.4-1.3-2.4-1.3c0,0,0,0,0,0c0-0.3-0.3-0.3-0.5-0.3c0,0,0,0,0,0
		c-0.2-0.6-0.8-0.7-1.3-0.8c0,0,0,0,0,0c-0.5-0.6-1.1-1-2-1.1c0,0,0,0,0,0c-0.6-0.6-1.2-1.1-2.1-1.2c0,0,0,0,0,0
		c-0.1,0-0.1-0.1-0.2-0.1c0,0,0,0,0,0c-0.4-0.6-1-0.8-1.6-1c-0.2-0.2-0.4-0.3-0.7-0.3c0,0,0,0,0,0c-0.3-0.3-0.7-0.6-1.2-0.7
		c0,0,0,0,0,0c-0.4-0.7-1-0.9-1.8-1c0,0,0,0,0,0c-0.4-0.6-0.9-1-1.7-1.1c0,0,0,0,0,0c0-0.2-0.1-0.4-0.1-0.5c0.4-0.5,0-0.9,0-1.4
		c0.1-1.8,0-3.7,0-5.5c0-0.6-0.1-1.2,0.7-1.4c0.3-0.1,0.6-0.5,0.8-0.8c0,0,0,0,0,0c0.1,0,0.3,0,0.3-0.2c0,0,0,0,0,0
		c0.6-0.3,1.5-0.2,1.8-1c0,0,0,0,0,0c0.1-0.1,0.1-0.1,0.2-0.2c0,0,0,0,0,0c0.7,0.1,1.2-0.2,1.5-0.9c0.1,0,0.1-0.1,0.2-0.1
		c0.1,0,0.3,0,0.3-0.2c0,0,0,0,0,0c0.7-0.1,0.9,0.2,0.8,0.9c0,2.2,0,4.4,0,6.6c0,0.9,0.2,1.1,1.2,1.3c0,0,0,0,0,0
		c0,0.2,0.2,0.2,0.3,0.2c0,0,0,0,0,0c0.2,0.6,0.8,0.7,1.3,0.9c0.4,0.1,0.5,0.8,1,0.4l0,0c0,0,0,0,0,0c0.9,0.9,1.9,1.5,3.1,1.8l0,0
		c0,0,0,0,0,0c0.3,0.5,0.7,0.7,1.2,0.9c0.3,0.2,0.7,0.3,1,0.5c0.4,0.7,1.1,0.9,1.8,1c0,0,0,0,0,0c0.1,0.6,0.6,0.6,1.1,0.6
		c0.7,0.5,1.4,1.3,2.4,0.7c0.5,0.1,0.9-0.2,1.3-0.5c0.5-0.3,1-0.8,1.6-0.9c1.2-0.4,2-1.2,2.9-1.9c0,0,0,0,0,0c0.1,0,0.1-0.1,0.2-0.1
		c0,0,0,0,0,0c0.2,0,0.5,0,0.5-0.3c0,0,0,0,0.1,0c0.6,0.1,1-0.3,1.4-0.6c0.4-0.1,0.7-0.4,1-0.7c0,0,0,0,0,0c0.5,0,0.9-0.3,1.2-0.7
		c0,0,0,0,0,0c0.6,0.1,0.9-0.2,1.1-0.7l0,0c0,0,0,0,0,0c0.5,0,0.9-0.1,1-0.6c0,0,0,0,0,0c0.6-0.2,1.2-0.3,0.9-1.1c0-0.3,0-0.6,0-0.8
		c0.5-0.2,0.3-0.5,0.3-0.8c0-4,0-7.9,0-11.9c0-0.3,0.1-0.6-0.2-0.8c-0.1-0.3,0.2-0.8-0.4-0.9c0,0,0,0,0,0c0.1-0.3,0-0.4-0.3-0.5
		c-0.6-0.2-1.1-0.6-1.6-0.9c-0.5-0.3-1-0.8-1.6-0.7l0,0c0,0,0,0,0,0c-0.5-0.5-0.9-1.1-1.8-1c0,0,0,0,0,0c0-0.1-0.1-0.2-0.2-0.1
		c0,0,0,0,0,0c-0.3-0.5-0.8-0.6-1.3-0.7c0,0,0,0,0,0c0-0.6-0.3-0.5-0.7-0.4c0,0,0,0,0,0c-0.3-0.5-0.7-0.8-1.3-0.7c0,0,0,0,0,0
		c-0.1-0.3-0.3-0.7-0.7-0.7c-0.6-0.1-1-0.4-1.4-0.7c-0.2-0.2-0.5-0.4-0.9-0.3c0,0,0,0,0,0C84.4,28.5,84.3,28.5,84.1,28.5z"/>
	<path class="st94" d="M102.9,55.6c0.1-0.4,0.2-0.8,0.2-1.3c0-7,0-13.9,0-20.9c0-0.7,0.1-1.4-0.8-1.8c-0.2-0.1-0.7-0.4-0.7-0.8
		c1.3,0.5,1.8,1.3,1.8,2.8c-0.1,6.9,0,13.7,0,20.6c0,0.5,0.2,1.1-0.4,1.5C103,55.6,103,55.6,102.9,55.6z"/>
	<path class="st94" d="M96.6,36.5c0.3,0.2,0.2,0.6,0.2,0.8c0,4,0,7.9,0,11.9c0,0.3,0.2,0.7-0.3,0.8c0-4.5,0-9,0-13.5
		C96.5,36.5,96.5,36.5,96.6,36.5L96.6,36.5z"/>
	<path class="st94" d="M34.7,30.4c0-4.5,0-8.9,0-13.4c0.1,0.1,0.2,0.1,0.3,0.2c0,4.4,0,8.7,0,13.1C34.9,30.3,34.8,30.4,34.7,30.4z"
		/>
	<path class="st94" d="M39.8,13.1c0-0.5,0.5-0.5,0.7-0.7c1.5-0.9,2.9-1.9,4.5-2.6c0.5-0.2,0.7-0.7,1.3-0.8c0,0.1,0,0.2,0,0.3
		C44.2,10.7,42,12,39.8,13.1z"/>
	<path class="st94" d="M54,3.7c-0.1-0.2-0.3-0.2-0.3-0.5c0-0.1,0-0.1,0-0.2c1.8,1,3.7,2.1,5.5,3.1c0.1,0.1,0.2,0.2,0.2,0.3
		c0,0.1-0.1,0.1-0.1,0.2c-0.5-0.6-1.3-0.9-2-1.2c-1-0.3-1.6-1.1-2.4-1.5C54.6,3.8,54.3,3.6,54,3.7L54,3.7z"/>
	<path class="st94" d="M46.3,46.2c0.6-0.1,1,0.2,1.4,0.5c0.8,0.4,1.4,0.4,2.2,0c0.7-0.3,1.1-1,2-1.1c0.1,0.1,0.1,0.1,0.2,0.2
		c-0.8,0.5-1.7,1-2.5,1.5c-0.6,0.4-1.2,0.4-1.8,0C47.2,46.8,46.7,46.6,46.3,46.2z"/>
	<path class="st94" d="M47,8.9c0.9-1,1.4-1.1,2.6-0.6c1,0.4,1.8,1.2,2.9,1.6c0.2,0.1,0.2,0.3,0.3,0.5c-1-0.4-1.9-1-2.8-1.6
		c-0.9-0.6-1.7-0.7-2.6,0C47.3,8.9,47.1,8.9,47,8.9z"/>
	<path class="st94" d="M70.2,52.1c-0.9-0.1-1.2-0.4-1.2-1.3c0-2.2,0-4.4,0-6.6c0-0.7-0.2-1-0.8-0.9c0.3-0.2,0.6-0.4,0.9-0.6
		c0.3,0.2,0.2,0.4,0.2,0.6c0,2.1,0,4.2,0,6.3C69.1,50.7,69.3,51.5,70.2,52.1z"/>
	<path class="st94" d="M89.2,55.7c-0.9,0.8-1.8,1.5-2.9,1.9c-0.6,0.2-1.1,0.6-1.6,0.9c-0.4,0.2-0.8,0.5-1.3,0.5
		c1.3-0.9,2.8-1.6,4.1-2.4C88.1,56.2,88.6,55.8,89.2,55.7z"/>
	<path class="st94" d="M67,21.8c0.2-0.4,0.6-0.6,1-0.7c0.9-0.3,1-0.9,1-1.6c0-2.3,0-4.6,0-6.9c0,0,0.1,0,0.1,0c0,2.6,0,5.2,0.1,7.9
		c0,0.3-0.2,0.5-0.4,0.6c-0.5,0.3-1,0.6-1.6,0.8C67.2,21.8,67.1,21.8,67,21.8z"/>
	<path class="st94" d="M63.9,45.8c-0.2,0.4-0.5,0.7-0.8,0.8c-0.8,0.3-0.7,0.8-0.7,1.4c0,1.8,0,3.7,0,5.5c0,0.5,0.4,0.9,0,1.4
		c-0.1,0-0.1,0-0.2,0c0-2.6,0-5.2,0-7.8c0-0.4,0.1-0.6,0.4-0.7C63.1,46.2,63.5,46,63.9,45.8z"/>
	<path class="st94" d="M34.7,30.4c0.1-0.1,0.2-0.1,0.3-0.2c-0.1,1.1,0.5,1.7,1.5,2.2c0.8,0.4,1.7,0.8,2.4,1.4
		c-0.3,0.1-0.7,0.2-0.9-0.1c-0.5-0.7-1.3-1-2-1.3C34.9,32.1,34.7,31.4,34.7,30.4z"/>
	<path class="st94" d="M49.1,0.4c-1.5,0.5-2.8,1.3-4.1,2.2c-0.2,0.1-0.4,0.2-0.7,0.1c0,0,0-0.1,0-0.1c1.2-0.7,2.3-1.4,3.5-2
		C48.2,0.3,48.6,0.1,49.1,0.4z"/>
	<path class="st94" d="M66.3,37.3c0.5-0.8,1.5-1,2.2-1.5c0.9-0.6,1.9-1.2,3-1.4C69.8,35.4,68,36.5,66.3,37.3z"/>
	<path class="st94" d="M95.5,27.1c-0.2,0-0.3,0-0.5-0.1c-1.5-0.7-3-1.6-4.5-2.5c-0.1-0.1-0.1-0.2-0.1-0.4
		C92.1,25.1,93.8,26.1,95.5,27.1z"/>
	<path class="st94" d="M79.9,65.6c0.8,0.1,1.5,0.5,2.2,0.9c0.7,0.5,0.8,0.5,1.4-0.1c0.3-0.3,0.7,0.1,1.1,0c-1,0.8-2,1.1-3.1,0.2
		C81,66.2,80.3,66,79.9,65.6z"/>
	<path class="st94" d="M89.3,23.6c-1.2-0.2-2.1-1.1-3.2-1.6c-0.5-0.3-1.1-0.6-1.6-0.9c-0.2-0.1-0.3-0.3-0.3-0.5
		C85.9,21.5,87.6,22.5,89.3,23.6z"/>
	<path class="st94" d="M53.5,10.8c1.2,0.2,2.1,0.8,3,1.5c0.5,0.4,1.3,0.5,1.6,1.2C56.5,12.7,55,11.8,53.5,10.8z"/>
	<path class="st94" d="M62.1,16.1c0.4,0.2,0.3,0.6,0.3,0.9c0,2,0,4.1,0,6.1c0,0.6,0.1,1.1,0.8,1c-0.1,0.1-0.1,0.1-0.2,0.2
		c-0.2,0.1-0.5,0.4-0.7,0.3c-0.3-0.1-0.1-0.5-0.1-0.7c0-2.1,0-4.2,0-6.3C62.3,17,62.2,16.5,62.1,16.1z"/>
	<path class="st94" d="M76.3,23.7c-0.3,0.7-1,0.9-1.6,1.2c-0.3,0.2-0.6,0.3-0.8,0.7c-0.3,0.6-1,0.4-1.6,0.5
		C73.5,25.1,74.9,24.3,76.3,23.7z"/>
	<path class="st94" d="M50.9,38.3c-0.1,0.5-0.4,0.9-1,0.8c-0.4,0-0.5,0.4-0.8,0.5c-0.8,0.2-2-0.3-2.4-1.1c1.4,1.1,2.8,0.9,4.1-0.1
		C50.8,38.3,50.8,38.3,50.9,38.3z"/>
	<path class="st94" d="M69.8,27.4c-0.6,0.5-1,1.3-1.9,1.4c-0.7,0.1-1.1,0.9-1.9,0.8C67.2,28.7,68.4,28,69.8,27.4z"/>
	<path class="st94" d="M52.5,2.3C52,2.5,51.4,3,51.2,1.9c0-0.2-0.5-0.4-0.9-0.5c-0.4-0.2-0.9-0.3-0.9-0.8
		C50.5,1.1,51.5,1.7,52.5,2.3z"/>
	<path class="st94" d="M55.5,43.5c-0.1-0.4,0.1-0.5,0.4-0.6c0.8-0.5,1.7-0.9,2.6-1.3c0.1-0.1,0.3,0,0.5,0
		C57.8,42.3,56.7,43,55.5,43.5z"/>
	<path class="st94" d="M63.7,31c-0.3,0.6-1,0.8-1.5,1c-0.9,0.3-1.4,1.2-2.4,1.1C61.1,32.3,62.3,31.5,63.7,31z"/>
	<path class="st94" d="M102.9,55.6c0,0,0.1,0,0.1,0c-1.2,1-2.7,1.7-4,2.4c0.4-0.9,1.3-1,2-1.4C101.6,56.2,102.2,55.6,102.9,55.6z"/>
	<path class="st94" d="M38.5,41.5c0.4-0.2,0.6,0.1,0.8,0.3c0.6,0.4,1.3,0.7,2,0.9c0.4,0.1,0.3,0.5,0.3,0.7
		C40.5,42.9,39.3,42.5,38.5,41.5z"/>
	<path class="st94" d="M75,32.2c0.7-0.8,1.7-1.3,2.6-1.7c0.3-0.1,0.6-0.4,1-0.3C77.5,30.9,76.4,31.7,75,32.2z"/>
	<path class="st94" d="M67,21.8c0.1,0,0.1,0,0.2,0c-1.2,0.8-2.4,1.5-3.6,2.1c0-0.2,0.1-0.4,0.3-0.5C65,22.9,65.9,22.1,67,21.8z"/>
	<path class="st94" d="M92.6,33.4c0.7-0.1,1.1,0.4,1.6,0.7c0.5,0.3,1,0.7,1.6,0.9c0.3,0.1,0.4,0.2,0.3,0.5
		C95,34.9,93.7,34.2,92.6,33.4z"/>
	<path class="st94" d="M69.1,12.5c0,0-0.1,0-0.1,0c-0.8-0.9-2-1.3-2.8-2.1c1,0.3,1.8,0.9,2.6,1.4C69,11.9,69.2,12.2,69.1,12.5z"/>
	<path class="st94" d="M41.7,43.5c0.5-0.1,0.9,0.2,1.3,0.4c0.6,0.3,1.1,0.7,1.7,1c0.2,0.1,0.3,0.2,0.3,0.5
		C43.8,44.9,42.7,44.3,41.7,43.5z"/>
	<path class="st94" d="M57.2,34.6c-1,0.9-2,1.8-3.4,2C54.9,35.8,56,35.2,57.2,34.6z"/>
	<path class="st94" d="M58.9,41.6c0.1-0.6,0.6-0.6,1-0.8c0.9-0.4,1.5-1.2,2.6-1.3C61.3,40.3,60.1,41,58.9,41.6z"/>
	<path class="st94" d="M36.8,6.9c0,0.1,0,0.2-0.1,0.2c-1.1,0.6-2.1,1.4-3.3,1.7C34.5,8.1,35.7,7.5,36.8,6.9z"/>
	<path class="st94" d="M42.1,35.8c-1.3-0.3-2.3-0.9-3.2-1.8C40,34.5,41,35.1,42.1,35.8z"/>
	<path class="st94" d="M75.9,55.4c-1.2-0.3-2.3-0.9-3.1-1.8C73.9,54.1,74.9,54.7,75.9,55.4z"/>
	<path class="st94" d="M84.5,28.7c0.4-0.1,0.6,0.1,0.9,0.3c0.4,0.3,0.9,0.6,1.4,0.7c0.4,0.1,0.5,0.4,0.7,0.7
		C86.4,29.9,85.4,29.4,84.5,28.7z"/>
	<path class="st94" d="M78.1,22.6c-0.1,0.2-0.1,0.3,0,0.5c0.1,0.5-0.1,0.7-0.5,0.5c-0.5-0.3-0.8,0.4-1.3,0.2
		C76.8,23.2,77.5,22.9,78.1,22.6z"/>
	<path class="st94" d="M84.2,20.6c-0.3,0-0.5,0.1-0.8,0.1c-0.1,0-0.2,0-0.3,0c-0.4,0,0.5-0.7-0.3-0.4c-0.3,0.1-0.5,0.2-0.7,0.3
		c-0.1,0.1-0.3,0-0.5,0c0,0,0-0.1,0-0.1C82.7,19.8,83.1,19.8,84.2,20.6z"/>
	<path class="st94" d="M80.8,29c0.4-0.7,1.6-1.3,2.3-1.1c0.3,0.1,0.5,0.1,0.6,0.5c-0.8-0.4-1.4-0.2-2.1,0.3
		C81.3,28.7,81,28.8,80.8,29z"/>
	<path class="st94" d="M91.7,62.1c0.7-0.6,1.3-1.3,2.3-1.3c0.1,0,0.1,0,0.2,0c-0.8,0.6-1.6,1-2.5,1.4C91.7,62.2,91.7,62.1,91.7,62.1
		z"/>
	<path class="st94" d="M87.4,64.6c0.4-1.1,0.6-1.2,1.5-1c-0.1,0.1-0.1,0.2-0.2,0.3C88.4,64.2,88,64.5,87.4,64.6z"/>
	<path class="st94" d="M96.6,59.2c0-0.1,0.3-0.2,0.2-0.3c-0.1-0.2-0.4-0.4-0.2-0.6c0.2-0.2,0.4,0.1,0.7,0.2c0.2,0.1,0.5,0.1,0.7,0.1
		c-0.4,0.4-0.9,0.6-1.3,0.8C96.6,59.3,96.6,59.2,96.6,59.2z"/>
	<path class="st94" d="M53.8,36.6c-0.5,0.9-1.4,1.1-2.3,1.3C52.2,37.4,53,37,53.8,36.6z"/>
	<path class="st94" d="M80.5,21.2c-0.7,0.7-1.3,1.4-2.4,1.4C78.9,22.1,79.7,21.6,80.5,21.2z"/>
	<path class="st94" d="M94.1,60.8c-0.1,0-0.1,0-0.2,0c0.4-0.7,1.4-0.7,1.9-1.4c0,0,0.3,0.1,0.4,0.1C95.6,60.1,94.9,60.4,94.1,60.8z"
		/>
	<path class="st94" d="M75.5,63.1c1,0.1,1.8,0.6,2.4,1.3C77.1,64.1,76.3,63.6,75.5,63.1z"/>
	<path class="st94" d="M53.3,44.8c0.5-0.9,1.3-1.1,2.2-1.3C54.8,44.1,54.1,44.5,53.3,44.8z"/>
	<path class="st94" d="M65.1,9.7c-1-0.1-1.6-0.7-2.3-1.3C63.7,8.7,64.4,9.1,65.1,9.7z"/>
	<path class="st94" d="M71.4,34.4c0.4-0.9,1.4-1,2.2-1.3C73,33.6,72.2,34,71.4,34.4z"/>
	<path class="st94" d="M89.4,63.5c0.2-0.5,1-0.5,1-1.2c0.3,0.1,0.7,0,1,0C90.8,62.8,90.2,63.2,89.4,63.5z"/>
	<path class="st94" d="M42.2,3.8c-0.6,0.7-1.3,1.1-2.2,1.3C40.7,4.5,41.4,4.1,42.2,3.8z"/>
	<path class="st94" d="M99.1,29.3c-0.8-0.3-1.7-0.4-2.2-1.3C97.7,28.3,98.4,28.7,99.1,29.3z"/>
	<path class="st94" d="M69.6,59.7c0.9,0.1,1.5,0.5,2.1,1.2C71,60.6,70.3,60.1,69.6,59.7z"/>
	<path class="st94" d="M30.6,37.1c0.7,0.3,1.7,0.1,2,1.1C31.9,38,31.2,37.6,30.6,37.1z"/>
	<path class="st94" d="M36,40.2c0.7-0.1,1.4,0,1.5,0.9C37,40.9,36.4,40.6,36,40.2z"/>
	<path class="st94" d="M64,38.6c0.6-0.6,1.2-1.1,2.1-1.2C65.4,37.9,64.7,38.4,64,38.6z"/>
	<path class="st94" d="M62.6,55.5c0.8,0.1,1.3,0.5,1.7,1.1C63.6,56.3,63,56.1,62.6,55.5z"/>
	<path class="st94" d="M71.7,60.8c0.8,0.1,1.4,0.6,2,1.1C73,61.7,72.3,61.4,71.7,60.8z"/>
	<path class="st94" d="M59,33.6c-0.5,0.6-1,1.1-1.8,1C57.8,34.2,58.3,33.8,59,33.6z"/>
	<path class="st94" d="M90.8,32.4c0.9-0.1,1.3,0.5,1.8,1C92,33.2,91.4,32.8,90.8,32.4z"/>
	<path class="st94" d="M79.9,57.7c-0.7-0.1-1.4-0.3-1.8-1C78.8,56.9,79.4,57.3,79.9,57.7z"/>
	<path class="st94" d="M67.9,58.5c0.6,0.2,1.2,0.4,1.6,1c-0.6-0.2-1.1-0.5-1.6-0.9C67.9,58.6,67.9,58.6,67.9,58.5z"/>
	<path class="st94" d="M64.2,56.6c0.7,0.1,1.4,0.3,1.8,1C65.4,57.3,64.8,57,64.2,56.6z"/>
	<path class="st94" d="M44,2.8c-0.4,0.6-1,0.9-1.8,1C42.8,3.4,43.3,3,44,2.8z"/>
	<path class="st94" d="M71.6,26.4c-0.3,0.6-0.8,0.9-1.5,0.9C70.5,26.8,71,26.6,71.6,26.4z"/>
	<path class="st94" d="M66,44.6c-0.3,0.8-1.2,0.7-1.8,1C64.8,45.2,65.4,44.8,66,44.6z"/>
	<path class="st94" d="M38,14.2c0.4-0.7,1.1-0.9,1.8-1.1C39.2,13.6,38.6,13.9,38,14.2z"/>
	<path class="st94" d="M39.7,5.2c-0.5,0.5-0.9,1-1.6,1C38.6,5.7,39.1,5.5,39.7,5.2z"/>
	<path class="st94" d="M35,17.2c-0.1-0.1-0.2-0.1-0.3-0.2c-0.3-0.5,0-0.8,0.3-1.1c0.1,0,0.1,0,0.2,0C35,16.3,35.1,16.8,35,17.2z"/>
	<path class="st94" d="M67.7,43.6c-0.3,0.7-0.8,0.9-1.5,0.9C66.6,44.1,67.1,43.8,67.7,43.6z"/>
	<path class="st94" d="M35.2,15.9c-0.1,0-0.1,0-0.2,0c0.2-0.5,0.6-0.9,1.2-0.8C36,15.5,35.5,15.6,35.2,15.9z"/>
	<path class="st94" d="M85.2,65.9c0.2-0.6,0.7-0.7,1.2-0.7C86.1,65.6,85.6,65.8,85.2,65.9z"/>
	<path class="st94" d="M71.8,53.1c-0.5-0.2-1.1-0.3-1.3-0.9c0.5,0.1,0.9,0.4,1.3,0.7C71.8,53,71.8,53.1,71.8,53.1z"/>
	<path class="st94" d="M44.2,37.1c-0.5-0.2-1.2-0.2-1.4-0.8C43.3,36.4,43.8,36.6,44.2,37.1z"/>
	<path class="st94" d="M62.8,8.3c-0.4-0.2-1.1,0.2-1.1-0.7C62.1,7.8,62.5,8,62.8,8.3z"/>
	<path class="st94" d="M73.7,62c0.5,0.1,1.1,0.2,1.3,0.8C74.5,62.6,74.1,62.4,73.7,62z"/>
	<path class="st94" d="M45,45.5c0.6,0,1.1,0.1,1.3,0.7C45.8,46,45.4,45.8,45,45.5z"/>
	<path class="st94" d="M77.1,56.2c-0.5-0.2-1-0.3-1.2-0.9C76.4,55.5,76.9,55.7,77.1,56.2z"/>
	<path class="st94" d="M96.5,50.8c0.3,0.9-0.3,1-0.9,1.1C96,51.7,96.3,51.3,96.5,50.8z"/>
	<path class="st94" d="M87.4,30.4c0.6-0.1,1,0.2,1.3,0.7C88.2,31,87.8,30.8,87.4,30.4z"/>
	<path class="st94" d="M94.6,52.6c-0.3,0.4-0.6,0.8-1.1,0.7C93.7,52.9,94.2,52.7,94.6,52.6z"/>
	<path class="st94" d="M66.2,10.3c-0.5-0.1-1-0.1-1.1-0.7C65.6,9.8,66,10,66.2,10.3z"/>
	<path class="st94" d="M91.4,54.6c-0.4,0.3-0.8,0.7-1.4,0.6c0.3-0.3,0.7-0.5,1.1-0.6C91.1,54.6,91.3,54.6,91.4,54.6z"/>
	<path class="st94" d="M81.6,20.6C81.6,20.6,81.6,20.6,81.6,20.6c-0.1,0.6-0.6,0.6-1,0.7C80.8,20.9,81.2,20.7,81.6,20.6z"/>
	<path class="st94" d="M32.6,38.3c0.6-0.1,1,0.2,1.3,0.7C33.4,38.9,33,38.6,32.6,38.3z"/>
	<path class="st94" d="M73.6,33.1c0.1-0.5,0.5-0.6,1-0.7C74.4,32.9,74,33,73.6,33.1z"/>
	<path class="st94" d="M91.4,54.6c-0.1,0-0.2,0-0.3,0c0.4-0.3,0.8-0.6,1.3-0.7C92,54.2,91.8,54.5,91.4,54.6z"/>
	<path class="st94" d="M81,58.3c-0.4-0.1-1,0-1.1-0.6C80.3,57.8,80.7,58,81,58.3z"/>
	<path class="st94" d="M89.4,31.6c0.5,0.1,1,0.2,1.3,0.7C90.2,32.1,89.8,31.9,89.4,31.6z"/>
	<path class="st94" d="M29.6,36.5c0.4,0.1,0.9,0,1,0.6C30.2,37,29.9,36.9,29.6,36.5z"/>
	<path class="st94" d="M52.2,45.5c0.2-0.6,0.7-0.6,1.1-0.7C53,45.1,52.6,45.3,52.2,45.5z"/>
	<path class="st94" d="M38.1,6.2c-0.3,0.5-0.7,0.6-1.3,0.7C37.2,6.6,37.6,6.3,38.1,6.2z"/>
	<path class="st94" d="M78.9,65c0.5-0.1,0.9-0.1,1,0.5C79.5,65.5,79.2,65.3,78.9,65z"/>
	<path class="st94" d="M46.2,38.2c-0.5-0.1-0.9-0.1-1.1-0.6C45.5,37.7,45.9,37.9,46.2,38.2z"/>
	<path class="st94" d="M93.5,53.2c-0.3,0.4-0.6,0.7-1.2,0.7C92.6,53.5,93,53.4,93.5,53.2z"/>
	<path class="st94" d="M95.6,52c-0.2,0.5-0.6,0.6-1,0.6C94.8,52.3,95.2,52.1,95.6,52z"/>
	<path class="st94" d="M71.8,53.1c0-0.1,0-0.1,0-0.2c0.4,0.1,0.7,0.3,1,0.6C72.2,53.9,72.1,53.2,71.8,53.1z"/>
	<path class="st94" d="M101,30.4c-0.5,0-0.8-0.3-1.1-0.7C100.3,29.8,100.7,30,101,30.4z"/>
	<path class="st94" d="M66,57.6c0.5,0.1,0.8,0.3,1.2,0.7C66.7,58.1,66.3,57.9,66,57.6z"/>
	<path class="st94" d="M77.9,64.4c0.5,0,0.8,0.2,1,0.6C78.6,64.9,78.2,64.8,77.9,64.4z"/>
	<path class="st94" d="M59,14c0.5-0.1,0.7,0.1,0.8,0.5C59.5,14.4,59.2,14.3,59,14z"/>
	<path class="st94" d="M96.2,27.7c-0.4,0-0.8,0.1-0.8-0.5C95.8,27.2,96,27.4,96.2,27.7C96.3,27.6,96.2,27.7,96.2,27.7z"/>
	<path class="st94" d="M45,37.5c-0.4,0-0.8,0.1-0.8-0.5C44.6,37.1,44.8,37.3,45,37.5z"/>
	<path class="st94" d="M59.8,33.2c0,0.6-0.5,0.5-0.8,0.5C59.2,33.4,59.5,33.2,59.8,33.2z"/>
	<path class="st94" d="M99.9,29.7c-0.4,0-0.8,0.1-0.8-0.5C99.4,29.3,99.7,29.4,99.9,29.7z"/>
	<path class="st94" d="M88.7,31.1c0.4-0.1,0.7-0.1,0.7,0.4C89.1,31.5,88.9,31.4,88.7,31.1z"/>
	<path class="st94" d="M33.8,39c0.4-0.1,0.7-0.1,0.7,0.4C34.3,39.3,34,39.2,33.8,39z"/>
	<path class="st94" d="M52.8,10.4c0.4-0.1,0.7,0,0.7,0.4C53.2,10.8,53,10.7,52.8,10.4z"/>
	<path class="st94" d="M58,13.5c0.4-0.1,0.7,0.2,1,0.5C58.6,13.9,58.3,13.7,58,13.5z"/>
	<path class="st94" d="M34.9,39.6c0.3,0.1,0.8,0,0.9,0.5C35.4,40,35.1,39.9,34.9,39.6z"/>
	<path class="st94" d="M53.5,3c-0.4,0-0.7-0.1-0.8-0.5C53,2.5,53.3,2.7,53.5,3z"/>
	<path class="st94" d="M97.9,58.6c0-0.5,0.2-0.6,0.7-0.5C98.4,58.2,98.3,58.6,97.9,58.6z"/>
	<path class="st94" d="M63.1,39.1c0.1-0.4,0.4-0.5,0.8-0.5C63.8,38.9,63.5,39.1,63.1,39.1z"/>
	<path class="st94" d="M96.6,36.5L96.6,36.5c-0.1,0-0.1,0-0.1,0c-0.1-0.3-0.2-0.6-0.3-0.9C96.8,35.7,96.5,36.1,96.6,36.5z"/>
	<path class="st94" d="M46.3,9.4c0-0.1,0-0.2,0-0.3c0.2-0.1,0.4-0.2,0.7-0.1C46.8,9.2,46.6,9.3,46.3,9.4z"/>
	<path class="st94" d="M62.5,39.6c0.1-0.4,0.3-0.5,0.7-0.4C63,39.4,62.7,39.5,62.5,39.6z"/>
	<path class="st94" d="M79,30c0.2-0.3,0.4-0.5,0.8-0.5C79.6,29.8,79.3,29.9,79,30z"/>
	<path class="st94" d="M84.5,66.3c0.1-0.4,0.3-0.5,0.7-0.4C85,66.2,84.8,66.3,84.5,66.3z"/>
	<path class="st94" d="M42.8,36.2c-0.4,0.1-0.6,0-0.7-0.4C42.3,35.9,42.6,36,42.8,36.2z"/>
	<path class="st94" d="M67.9,58.5c0,0.1,0,0.1,0,0.2c-0.3-0.1-0.5-0.2-0.7-0.4C67.4,58.2,67.7,58.3,67.9,58.5z"/>
	<path class="st94" d="M96.2,27.7C96.2,27.7,96.3,27.6,96.2,27.7c0.3,0,0.5,0.1,0.7,0.3C96.6,28,96.4,27.9,96.2,27.7z"/>
	<path class="st94" d="M89.9,55.3c0,0.3-0.3,0.3-0.5,0.3C89.5,55.4,89.7,55.3,89.9,55.3z"/>
	<path class="st94" d="M75,62.8c0.2,0,0.5,0,0.5,0.3C75.3,63,75.1,62.9,75,62.8z"/>
	<path class="st94" d="M90.4,24.2c-0.2,0-0.5,0-0.5-0.3C90.1,23.9,90.3,24,90.4,24.2z"/>
	<path class="st94" d="M51.5,37.9c0,0.4-0.3,0.3-0.6,0.3C51.1,38.1,51.3,37.9,51.5,37.9z"/>
	<path class="st94" d="M80.3,29.3c0-0.3,0.3-0.3,0.5-0.3C80.6,29.2,80.5,29.2,80.3,29.3z"/>
	<path class="st94" d="M44.3,2.5c0,0,0,0.1,0,0.1c-0.1,0.1-0.2,0.2-0.4,0.1C44.1,2.6,44.2,2.6,44.3,2.5z"/>
	<path class="st94" d="M62.3,54.9c0.1,0,0.1,0,0.2,0c0,0.2,0.1,0.4,0.1,0.5C62.4,55.3,62.3,55.2,62.3,54.9z"/>
	<path class="st94" d="M88.7,63.9c0.1-0.1,0.1-0.2,0.2-0.3c0.1,0,0.1,0.1,0.2,0.1C89,63.8,88.9,63.9,88.7,63.9z"/>
	<path class="st94" d="M101.5,30.6c-0.2,0-0.4,0-0.4-0.2C101.2,30.4,101.4,30.4,101.5,30.6z"/>
	<path class="st94" d="M46.6,38.4c-0.2,0-0.4,0.1-0.4-0.2C46.4,38.2,46.5,38.3,46.6,38.4z"/>
	<path class="st94" d="M96.6,59.2c0,0.1,0,0.1,0,0.2c-0.1,0.1-0.2,0.2-0.3,0.2C96.3,59.3,96.4,59.2,96.6,59.2z"/>
	<path class="st94" d="M63.3,24.1c0.1-0.1,0.2-0.2,0.3-0.2C63.5,24,63.4,24,63.3,24.1z"/>
	<path class="st94" d="M52,45.6c-0.1-0.1-0.1-0.1-0.2-0.2c0.1,0,0.2,0,0.3,0C52.1,45.5,52.1,45.6,52,45.6z"/>
	<path class="st94" d="M64.3,45.6c-0.1,0.2-0.2,0.2-0.3,0.2C64,45.7,64.1,45.6,64.3,45.6z"/>
	<path class="st94" d="M34.5,39.4c0.1,0,0.3,0,0.3,0.2C34.7,39.6,34.6,39.5,34.5,39.4z"/>
	<path class="st94" d="M70.5,52.3c-0.2,0-0.3,0-0.3-0.2C70.3,52.1,70.4,52.1,70.5,52.3z"/>
	<path class="st94" d="M68.2,43.3c-0.1,0.2-0.2,0.2-0.3,0.2C68,43.4,68.1,43.4,68.2,43.3z"/>
	<path class="st94" d="M29.3,36.3c0.2,0,0.3,0,0.4,0.2C29.5,36.5,29.3,36.5,29.3,36.3z"/>
	<path class="st94" d="M89.8,23.9c-0.2,0-0.3,0-0.4-0.2C89.6,23.7,89.7,23.8,89.8,23.9z"/>
	<path class="st94" d="M78.7,30.2c0-0.2,0.2-0.2,0.3-0.2C78.9,30.1,78.8,30.1,78.7,30.2z"/>
	<path class="st94" d="M89.1,63.6c0-0.2,0.1-0.2,0.3-0.2C89.4,63.6,89.3,63.6,89.1,63.6z"/>
	<path class="st94" d="M72.2,26c0,0.2-0.2,0.2-0.3,0.2C72,26.1,72.1,26,72.2,26z"/>
	<path class="st94" d="M91.7,62.1c0,0,0,0.1,0,0.1c-0.1,0-0.2,0.1-0.3,0.1C91.4,62.1,91.5,62.1,91.7,62.1z"/>
	<path class="st94" d="M61.7,7.7c-0.1,0-0.2,0-0.2-0.1C61.6,7.5,61.7,7.5,61.7,7.7z"/>
	<path class="st94" d="M70.1,27.3c0,0.2-0.2,0.2-0.3,0.2C69.8,27.3,70,27.3,70.1,27.3z"/>
	<path class="st94" d="M79.8,29.5c0.1-0.2,0.2-0.2,0.4-0.2C80.1,29.4,80,29.5,79.8,29.5z"/>
	<path class="st94" d="M40.1,5.1c0,0.2-0.2,0.2-0.3,0.2C39.8,5.1,39.9,5.1,40.1,5.1z"/>
	<path class="st94" d="M87.1,64.8c0-0.2,0.1-0.3,0.3-0.3C87.4,64.7,87.3,64.8,87.1,64.8z"/>
	<path class="st94" d="M84.1,28.5c0.2,0,0.3,0,0.4,0.2C84.3,28.7,84.2,28.6,84.1,28.5z"/>
	<path class="st94" d="M66.2,44.4c-0.1,0.1-0.1,0.1-0.2,0.2C66,44.5,66.1,44.5,66.2,44.4z"/>
	<path class="st94" d="M69.4,59.5c0.1,0,0.1,0.1,0.2,0.1C69.6,59.6,69.5,59.6,69.4,59.5z"/>
	<path class="st94" d="M89.4,23.7c-0.1,0-0.1-0.1-0.2-0.1C89.3,23.6,89.4,23.7,89.4,23.7z"/>
	<path class="st94" d="M53.7,3c0,0.1,0,0.1,0,0.2c0-0.1-0.1-0.1-0.1-0.2C53.6,2.9,53.6,2.9,53.7,3z"/>
	<path class="st94" d="M35.8,40.1c0.1,0,0.2,0,0.2,0.1C35.9,40.2,35.9,40.2,35.8,40.1z"/>
	<path class="st94" d="M66.1,37.5c0.1,0,0.1-0.1,0.2-0.1C66.2,37.4,66.1,37.4,66.1,37.5z"/>
	<path class="st94" d="M71.9,26.2c-0.1,0.1-0.2,0.1-0.2,0.2C71.8,26.3,71.9,26.2,71.9,26.2z"/>
	<path class="st94" d="M52.7,2.5c-0.1,0-0.1-0.1-0.2-0.1C52.6,2.4,52.6,2.4,52.7,2.5z"/>
	<path class="st94" d="M90.7,32.3c0.1,0,0.2,0,0.2,0.1C90.8,32.4,90.7,32.3,90.7,32.3z"/>
	<path class="st94" d="M89.4,55.5c-0.1,0-0.1,0.1-0.2,0.1C89.3,55.6,89.3,55.6,89.4,55.5z"/>
	<path class="st94" d="M74.7,32.3c0-0.1,0-0.2,0.1-0.1C74.8,32.3,74.8,32.3,74.7,32.3z"/>
	<path class="st94" d="M54,3.7C54,3.7,54,3.7,54,3.7C54,3.7,54,3.7,54,3.7C54,3.7,54,3.7,54,3.7z"/>
</g>
<g>
	<path class="st94" d="M85.5,87.7c-0.4,2.6-1.9,4.5-4.3,5.4c-3.5,1.4-6.9,1.2-10.1-1c-0.7-0.5-0.9-0.9-0.2-1.5
		c0.2-0.1,0.3-0.3,0.4-0.5c0.4-0.5,0.8-1.2,1.3-1.5c0.7-0.4,1,0.6,1.6,0.9c1.1,0.5,2.1,0.8,3.3,0.6c2.2-0.4,4-1,3.3-4.3
		c-2.4,2.1-5.1,2-7.9,1.1c-2.9-1-4.4-3.7-4.2-7c0.2-3.3,2.2-5.9,5.4-6.7c2.2-0.6,4.2-0.4,6.1,0.9c0.4,0.3,0.8,0.7,1-0.2
		c0.1-0.4,0.5-0.3,0.7-0.3c1.1,0,2.2,0,3.3,0c0,4.3,0,8.5,0,12.8C85.2,86.8,85,87.3,85.5,87.7z M80.9,80.1c0-2.7-1-3.7-3.6-3.7
		c-2.5,0-3.9,1.4-3.9,3.7c0,2.3,1.5,3.8,3.9,3.8C80,83.9,80.9,83,80.9,80.1z"/>
	<path class="st94" d="M14.1,92.4c0.2,0.7,0.1,1.1-0.8,1c-0.9-0.1-1.8-0.1-2.8,0c-0.7,0-0.8-0.2-0.8-0.9c0-6.2,0-12.4,0-18.6
		c0-0.7,0.2-1,0.9-0.9c0.4,0,0.8,0,1.3,0c1,0,2.4-0.4,1.8,1.7c3.4-2.7,7.8-2.6,10.5,0c2.5,2.4,2.7,6.8,0.6,9.7
		c-1.9,2.5-6.5,4.2-10.4,1.7c-0.4,0.2,0,0.7-0.3,1C13.6,88.9,13.6,90.7,14.1,92.4z M17.9,76.5c-2.5,0-3.6,1.1-3.6,3.5
		c0,0.5,0,1,0,1.5c-0.1,1.2,0.5,1.8,1.5,2.2c0.7,0.3,1.5,0.4,2.3,0.4c2.2-0.2,3.6-1.7,3.5-4C21.5,77.8,20.2,76.5,17.9,76.5z"/>
	<path class="st94" d="M35.6,72.8c7.3,0,9,6.4,7.1,10.7c-0.3,0.7-0.7,1.2-1.2,1.7c-2.6,2.7-8.2,3-11.2,0.5c-2.7-2.2-3.4-6.8-1.4-9.8
		C30.5,73.6,32.9,72.8,35.6,72.8z M39,80c0-2.1-1.5-3.8-3.4-3.7c-1.9,0-3.4,1.7-3.4,3.8c0,2.1,1.6,3.8,3.4,3.8
		C37.4,83.9,39,82.1,39,80z"/>
	<path class="st94" d="M95.8,72.8c5.8,0,8.9,3.8,7.8,9.2c-0.5,2.7-2.7,4.6-5.8,5.2c-1.6,0.3-3.2,0.2-4.7-0.2
		c-3.6-1.1-5.4-4.1-4.9-8.1c0.4-3.4,3.1-5.8,6.6-6C95.2,72.8,95.6,72.8,95.8,72.8z M99.3,80c0-2.1-1.5-3.8-3.4-3.8
		c-1.9,0-3.4,1.7-3.5,3.7c0,2.1,1.6,3.9,3.5,3.9C97.8,83.8,99.3,82.1,99.3,80z"/>
	<path class="st94" d="M110.3,87c-0.8,0.1-1.5,0.2-2.3,0c-0.1-0.2-0.2-0.2-0.3,0c-0.2,0.1-0.5,0.1-0.7,0c-0.1-0.2-0.2-0.2-0.3,0
		c-0.3,0-0.3-0.2-0.3-0.4c0-4.2,0-8.5,0.1-12.7c0.1-0.1,0.2-0.2,0.3-0.2c0.6,0,1.2,0,1.8-0.1c1.3-0.2,2.3,0,2,2.1
		c2-2.6,4.2-3.3,7-2.6c2,0.6,3.3,2.1,3.3,4.2c0.1,3,0,5.9,0,8.9c0,0.7-0.2,0.9-0.9,0.9c-1,0-1.9-0.1-2.9,0c-0.7,0-0.8-0.3-0.8-0.9
		c0-2.3,0-4.7,0-7c0-1,0-2.2-1.2-2.5c-1.2-0.4-2.3,0.2-3.1,1.1c-0.8,1-1.2,2.1-1.2,3.4c0,1.8,0,3.5,0,5.3
		C110.4,86.4,110.3,86.6,110.3,87z"/>
	<path class="st94" d="M61.2,81.4c1.1-2.4,2.2-4.7,3.2-7.1c0.3-0.6,0.6-0.9,1.3-0.9c1,0.1,1.9,0,3,0c-1,2.4-2,4.6-3,6.8
		c-1.8,4.1-3.7,8.2-5.4,12.3c-0.3,0.8-0.7,1.1-1.6,1c-1-0.1-2.1,0-3.3,0c0.8-1.8,1.5-3.5,2.4-5.1c0.9-1.5,0.9-2.8,0-4.4
		c-1.7-3.1-3.2-6.3-4.8-9.5c-0.2-0.3-0.4-0.6-0.3-1.1c1.4,0,2.8,0,4.2,0c0.7,0,0.8,0.4,1,0.9c0.9,2.1,1.8,4.1,2.8,6.2
		C60.7,80.9,60.7,81.2,61.2,81.4z"/>
	<path class="st94" d="M46.1,74.7c0-3.7,0-7.5,0-11.2c0-0.8,0.2-1.1,1.1-1c1.1,0.1,2.6-0.5,3.4,0.3c0.7,0.7,0.2,2.2,0.2,3.3
		c0,6.5,0,13.1,0,19.6c0,1-0.1,1.5-1.3,1.3c-1.1-0.1-2.5,0.4-3.1-0.2c-0.7-0.7-0.2-2.1-0.2-3.1C46.1,80.7,46.1,77.7,46.1,74.7
		C46.1,74.7,46.1,74.7,46.1,74.7z"/>
	<path class="st94" d="M85.5,87.7c-0.5-0.3-0.3-0.8-0.3-1.3c0-4.3,0-8.5,0-12.8c0.4,0,0.4,0.3,0.4,0.5
		C85.5,78.6,85.5,83.1,85.5,87.7z"/>
	<path class="st94" d="M14.1,92.4c-0.5-1.8-0.5-3.5,0-5.3C14.2,88.9,14.2,90.7,14.1,92.4z"/>
	<path class="st94" d="M110.3,87c0-0.3,0.1-0.6,0.4-0.6C110.8,86.7,110.9,87.1,110.3,87z"/>
	<path class="st94" d="M106.8,73.6c-0.1,0.1-0.2,0.2-0.3,0.2C106.5,73.6,106.6,73.6,106.8,73.6z"/>
	<path class="st94" d="M106.8,87c0.1-0.2,0.2-0.2,0.3,0C107,87,106.9,87,106.8,87z"/>
	<path class="st94" d="M107.8,87c0.1-0.2,0.2-0.2,0.3,0C108,87,107.9,87,107.8,87z"/>
</g>
</svg>
