<svg id="Layer_1" data-name="Layer 1" xmlns="http://www.w3.org/2000/svg" viewBox="0 0 131.82 119.84"><defs><style>.cls-1{fill:#fff;}</style></defs><title>Logo_arbitrum</title><g id="Logos_and_symbols" data-name="Logos and symbols"><g id="Symbol_-_Original" data-name="Symbol - Original"><polygon class="cls-1" points="67.97 63.63 77.72 78.93 86.73 73.71 73.92 53.53 67.97 63.63"/><path class="cls-1" d="M94.93,67.57V63.39l-14-21.79-5.19,8.81L89.25,72.25l4.88-2.83a2.16,2.16,0,0,0,.8-1.58Z"/><path class="cls-1" d="M36.3,71.51l6.9,4,23-36.8-3.9-.11c-3.32,0-6.89.82-8.53,3.5l-13,20.19L36.3,69v2.5Z"/><polygon class="cls-1" points="79.39 38.69 69.13 38.72 45.91 77.04 54.02 81.72 56.23 77.97 79.39 38.69"/><path class="cls-1" d="M99.25,38.63a6.52,6.52,0,0,0-3.07-5.25L70.67,18.7a6.7,6.7,0,0,0-5.86,0C64.6,18.81,40,33.08,40,33.08a6.54,6.54,0,0,0-3.7,5.54V69l4.39-6.74,0-23.44a2.3,2.3,0,0,1,0-.26,2.16,2.16,0,0,1,.87-1.37c.12-.09,25.14-14.57,25.22-14.61a2.19,2.19,0,0,1,1.92,0L93.88,37.07a2.17,2.17,0,0,1,1,1.73v29a2.11,2.11,0,0,1-.75,1.58l-4.88,2.83-2.52,1.46-9,5.22-9.13,5.29a2.21,2.21,0,0,1-1.56,0L56.23,78,54,81.72l9.71,5.59.84.47.7.39a6.53,6.53,0,0,0,5,.08L96.75,72.89A6.46,6.46,0,0,0,99.25,68Z"/></g><path class="cls-1" d="M17.15,100.51a1.41,1.41,0,0,1,.71.17,1.78,1.78,0,0,1,.56.67L22.09,108a.21.21,0,0,1,0,.18s-.07.08-.16.08H20.55a.25.25,0,0,1-.25-.15l-.79-1.43H14.3l-.76,1.43a.27.27,0,0,1-.26.15H11.84c-.09,0-.15,0-.17-.08a.21.21,0,0,1,0-.18l3.63-6.66a2,2,0,0,1,.55-.67,1.13,1.13,0,0,1,.62-.17ZM15,105.41h3.81l-1.76-3.25a.14.14,0,0,0-.12-.08h-.07a.14.14,0,0,0-.12.08Z"/><path class="cls-1" d="M33.72,100.51a2.44,2.44,0,0,1,1.83.58,2.35,2.35,0,0,1,.56,1.7v.64a2.57,2.57,0,0,1-.39,1.5,1.84,1.84,0,0,1-1.27.71l1.9,2.35a.16.16,0,0,1,0,.17c0,.07-.07.11-.17.11H34.78a.31.31,0,0,1-.2,0,.29.29,0,0,1-.11-.11l-1.75-2.3H29.14V108a.22.22,0,0,1-.25.25H27.7c-.17,0-.26-.08-.26-.25v-7.18a.29.29,0,0,1,.33-.33Zm-4.58,4h4.24a.87.87,0,0,0,1-1V103a.86.86,0,0,0-1-1h-4.1c-.09,0-.14,0-.14.13v2.31Z"/><path class="cls-1" d="M48.49,100.51a2.3,2.3,0,0,1,1.63.46,1.8,1.8,0,0,1,.48,1.37v.53a1.6,1.6,0,0,1-.71,1.41,1.52,1.52,0,0,1,.76,1.43v.64a3.26,3.26,0,0,1-.09.8,1.52,1.52,0,0,1-.33.6,1.3,1.3,0,0,1-.61.38,2.76,2.76,0,0,1-.93.14H42.11c-.22,0-.33-.11-.33-.34v-7.09a.29.29,0,0,1,.33-.33Zm-5,3.23H48a1.21,1.21,0,0,0,.75-.17.6.6,0,0,0,.2-.49v-.37a.63.63,0,0,0-.19-.51,1,1,0,0,0-.63-.16H43.62a.12.12,0,0,0-.14.14v1.56Zm0,1.2v1.65c0,.1,0,.15.14.15h4.54a1,1,0,0,0,.63-.16.64.64,0,0,0,.19-.52v-.42a.67.67,0,0,0-.2-.52,1.19,1.19,0,0,0-.76-.18Z"/><path class="cls-1" d="M57.69,100.51c.16,0,.24.08.24.25V108c0,.17-.08.25-.24.25h-1.2a.22.22,0,0,1-.25-.25v-7.26a.22.22,0,0,1,.25-.25Z"/><path class="cls-1" d="M72.19,100.51c.17,0,.26.08.26.25v1.08a.23.23,0,0,1-.26.26H68.72V108a.22.22,0,0,1-.25.25H67.26c-.16,0-.24-.08-.24-.25V102.1H63.54c-.17,0-.25-.09-.25-.26v-1.08a.22.22,0,0,1,.25-.25Z"/><path class="cls-1" d="M84.08,100.51a2.44,2.44,0,0,1,1.83.58,2.39,2.39,0,0,1,.55,1.7v.64a2.57,2.57,0,0,1-.39,1.5,1.84,1.84,0,0,1-1.26.71L86.7,108a.18.18,0,0,1,0,.17c0,.07-.08.11-.18.11H85.13a.33.33,0,0,1-.2,0,.38.38,0,0,1-.11-.11l-1.75-2.3H79.49V108c0,.17-.08.25-.24.25h-1.2a.22.22,0,0,1-.25-.25v-7.18a.29.29,0,0,1,.33-.33Zm-4.59,4h4.24a1,1,0,0,0,.8-.25,1,1,0,0,0,.23-.74V103a1,1,0,0,0-.23-.75,1.08,1.08,0,0,0-.8-.24h-4.1c-.09,0-.14,0-.14.13v2.31Z"/><path class="cls-1" d="M93.42,100.51a.22.22,0,0,1,.25.25v4.42a3,3,0,0,0,.07.73,1,1,0,0,0,.24.47,1,1,0,0,0,.45.24,2.78,2.78,0,0,0,.71.07h3.07a2.78,2.78,0,0,0,.71-.07,1,1,0,0,0,.45-.24,1,1,0,0,0,.24-.47,3.69,3.69,0,0,0,.06-.73v-4.42a.22.22,0,0,1,.25-.25h1.2a.22.22,0,0,1,.25.25v4.58a4.85,4.85,0,0,1-.17,1.36,2,2,0,0,1-.54.91,2.15,2.15,0,0,1-1,.5,5.45,5.45,0,0,1-1.44.16H95.07a5.29,5.29,0,0,1-1.42-.16,2.09,2.09,0,0,1-1-.5,2.14,2.14,0,0,1-.55-.91,4.85,4.85,0,0,1-.17-1.36v-4.58c0-.17.09-.25.26-.25Z"/><path class="cls-1" d="M109.26,100.51a2.58,2.58,0,0,1,.42,0,1,1,0,0,1,.31.13,1,1,0,0,1,.24.26,2.33,2.33,0,0,1,.21.42l2.31,5.32a.15.15,0,0,0,.15.1H113a.15.15,0,0,0,.15-.1l2.3-5.32a3.14,3.14,0,0,1,.22-.42.82.82,0,0,1,.54-.39,2.58,2.58,0,0,1,.42,0h1.18a1,1,0,0,1,.78.26,1.54,1.54,0,0,1,.2.89V108c0,.17-.09.25-.26.25h-1.12a.22.22,0,0,1-.25-.25v-5.78c0-.07,0-.11-.09-.11H117a.13.13,0,0,0-.14.09l-2.24,5a3.22,3.22,0,0,1-.27.5,1.43,1.43,0,0,1-.3.34,1,1,0,0,1-.36.19,1.77,1.77,0,0,1-.49.06h-.53a1.75,1.75,0,0,1-.48-.06,1,1,0,0,1-.37-.19,1.66,1.66,0,0,1-.29-.34,2.54,2.54,0,0,1-.28-.5l-2.23-5a.15.15,0,0,0-.15-.09h-.1c-.06,0-.09,0-.09.11V108c0,.17-.08.25-.24.25h-1.13a.22.22,0,0,1-.25-.25v-6.36a1.55,1.55,0,0,1,.19-.89,1,1,0,0,1,.79-.26Z"/></g></svg>