<svg id="Layer_1" data-name="Layer 1" xmlns="http://www.w3.org/2000/svg" viewBox="0 0 140.02 119.84"><defs><style>.cls-1{fill:#fff;}</style></defs><title>Logo_avalance</title><path class="cls-1" d="M34.87,58.66l-.07-1.27c0-2.25.06-4.49.24-6.73l0-.42,1.16-5.06.11-.41a19.05,19.05,0,0,0,1.08-2.93A40.24,40.24,0,0,1,42.05,34,34.42,34.42,0,0,1,66,20.56a33.56,33.56,0,0,1,25.07,6.92c9.87,7.66,14.47,17.9,13.78,30.36A34.75,34.75,0,0,1,76.69,89.75c-14.5,2.55-26.31-2.24-35.32-13.89-.11-.14-.23-.27-.34-.4a6.39,6.39,0,0,0-1.1-1.66h0a16.73,16.73,0,0,0-1.45-2.58.14.14,0,0,0-.06-.15l-1.07-2.69c.35-.45,1-.6,1.11-1.3a1.58,1.58,0,0,0,.83-1.63c0-1.5,0-3,0-4.5,0-.53.06-1.16-.67-1.18s-.81.6-.81,1.19c0,1.4,0,2.79,0,4.19,0,.78-.25,1.39-1.21,1.29a6.77,6.77,0,0,1-.52-1.82.92.92,0,0,1,.74-1,.75.75,0,0,0,.55-.91c-.1-.51-.51-.5-.91-.5h-.94C35.08,61.08,35.21,59.83,34.87,58.66Zm43.62,3.18c-.23,0-.27.21-.26.42h0c-.46.1-.56.57-.87.82-.08-.38-.13-.77-.63-.84-.6-.42-1.18.16-1.8,0-.41-.09-.72-.09-.74-.63s-.3-.89-.87-.8-.61.56-.6,1c0,1.08,0,2.16,0,3.24,0,1.39.25,2.57,1.74,3.1.09,0,.12.23.18.35-1.16,2.22-.51,3.34,2,3.34,4.47,0,9,0,13.42,0A2,2,0,0,0,92,71a1.86,1.86,0,0,0-.34-2.22,5.81,5.81,0,0,0-1-1.73,2.42,2.42,0,0,0-.56-1,49.58,49.58,0,0,0-2.94-5.1L87,60.76l-.16-.29-.68-1.18L86,59a.16.16,0,0,0-.07-.16l-.16-.22h0A3.81,3.81,0,0,0,85,57.18a1.26,1.26,0,0,0-.49-.83l-.14-.14a.18.18,0,0,0-.17-.1.73.73,0,0,0-.68-.35h-.42c-.82-.06-1.24.45-1.6,1.07l-1.09-.35a2.53,2.53,0,0,0-2.74.76,2.51,2.51,0,0,0-.45,2.83c.3.7,1,1.06,1.48,1.57a.67.67,0,0,0,0,.2ZM45.6,67.07h0a.58.58,0,0,0,.64.63h0c.13.68.69.32,1.06.44.17.55.62.59,1.05.49s.59,0,.66.37h0a.49.49,0,0,0-.59.3c-.19.64.15,1.26.11,1.89,0,0,.31,0,.48.06h0a1.48,1.48,0,0,0,2,1.05,8.2,8.2,0,0,1,2-.16c2.51,0,5,.07,7.54,0s4.73-.86,5.72-3.51a.65.65,0,0,1,.62-.47,11,11,0,0,0,1.15,0,1.86,1.86,0,0,0,1.77-1.63c.16-.92.17-1.86.25-2.79h.18c.46.44.94.13,1.29-.1s.31-.64,0-1h0c-.06-.52-.47-.39-.8-.42s-.77.14-1.09-.18l0-.23.23-.41a11.2,11.2,0,0,0,1.37-2.34q3-5.18,6-10.36a5.4,5.4,0,0,0,0-5.69q-2.46-4.34-5-8.64c-1-1.75-2.51-1.74-3.52,0q-3.5,6.17-7,12.33Q59.31,51,57,55.26a6.28,6.28,0,0,0-1.08,1.9h0l-.17.25-.22.42a1.55,1.55,0,0,0-.47.82.37.37,0,0,0-.21.35l-4.5,7.73-1.14-.08c-.23-.56-.86-.51-1.25-.83v-.42l.19-.18c1.22-.47,1.79-1.38,1.32-2.14a2.42,2.42,0,0,0-3.22-.41h0a.93.93,0,0,0-1.06,1.06h0a2.46,2.46,0,0,0,0,3h0A.38.38,0,0,0,45.6,67.07Zm45.86-.2a.4.4,0,0,0,.21.41c.37,1,1.31.89,2.07.93,1.37.08,1.55-.23,1.09-1.56l0-.09,0,.09h-.21l-.42-1,.62-.43A1.63,1.63,0,0,0,95.89,63c-.35-.88-1.06-1.14-2.11-.78-1.66,0-2.28.39-2.54,1.48A2.11,2.11,0,0,0,91.46,66.87ZM41.19,63.49c-.1,0-.26,0-.29.11a8.26,8.26,0,0,0-.25,4,.58.58,0,0,0,.68.51.7.7,0,0,0,.7-.5,5.37,5.37,0,0,0,.19-2.18c0-.81,0-1.54,1-1.77.38-.09.47-.48.47-.85a.57.57,0,0,0-.4-.55,1.6,1.6,0,0,0-2.11,1.23Zm57.44,3.82c-.11-.58-.37-1.33-1.07-1.38s-1,.68-1,1.29.19,1.31,1,1.3C98.25,68.51,98.56,68.07,98.63,67.31Z"/><path class="cls-1" d="M86.83,104.11c0-2.34,0-4.69,0-7,0-.82.08-1.25,1.11-1.24s1,.41,1,1.19c0,3.29,0,6.59,0,9.88,0,.4.3,1.09-.33,1.14s-1.58.45-2.17-.49c-1.66-2.64-3.36-5.25-5-7.87-.13-.2-.28-.39-.42-.59-.38.18-.23.5-.23.74,0,2.49,0,5,0,7.47,0,.6-.1,1-.8.83-.53-.1-1.3.32-1.29-.81,0-3.54,0-7.08,0-10.62,0-.66.24-.78.85-.85a2.69,2.69,0,0,1,3.07,1.62c1.23,2.31,2.71,4.48,4.09,6.7Z"/><path class="cls-1" d="M40.66,95.92c1-.28,1.4.19,1.77,1.07,1.39,3.36,2.89,6.69,4.31,10,.14.32.62.7.16,1.09a2.31,2.31,0,0,1-2.09-.38c-.37-.75-.75-1.5-1.07-2.28a.87.87,0,0,0-1-.6c-1.44,0-2.88,0-4.31,0a.94.94,0,0,0-1,.69c-.26.68-.58,1.35-.89,2-.12.24-.18.59-.52.58-.56,0-1.24.25-1.62-.12s.16-.82.32-1.23c1.34-3.24,2.71-6.46,4-9.71C39.12,96.15,39.58,95.58,40.66,95.92Zm-2.37,7.54h4.08c.34,0,.58-.09.42-.49-.72-1.79-1.45-3.58-2.26-5.56Z"/><path class="cls-1" d="M119.47,102.1c0,1.75,0,3.5,0,5.25,0,.81-.41.82-1,.79s-1.14.15-1.1-.79c.06-1.36,0-2.73,0-4.09,0-.64-.18-.87-.83-.85-1.22,0-2.45,0-3.67,0-.63,0-.86.16-.84.82,0,1.37,0,2.74,0,4.1,0,.9-.49.83-1.06.81s-1.11.16-1.1-.78c.05-3.57,0-7.14,0-10.71,0-.89.55-.73,1.05-.71s1.11-.24,1.07.68c0,1.12,0,2.24,0,3.36,0,.75.24,1,1,.94,1.19-.06,2.38,0,3.57,0,.65,0,.87-.21.85-.84,0-1.12,0-2.25,0-3.36,0-.92.56-.77,1.12-.79s1,.06,1,.82C119.44,98.53,119.47,100.31,119.47,102.1Z"/><path class="cls-1" d="M126,102.1c0-1.75,0-3.51,0-5.26,0-.64.11-1,.85-.93,2,0,3.93,0,5.89,0,.77,0,.85.34.83,1s0,1-.82,1c-1.29-.06-2.59,0-3.88,0-.59,0-.78.18-.8.78-.1,2.54-.12,2.54,2.37,2.54.77,0,1.54.05,2.31,0s.81.26.82.86-.27.76-.81.75c-1.3,0-2.6,0-3.89,0-.6,0-.78.21-.8.79-.13,2.75-.15,2.75,2.59,2.75.63,0,1.27,0,1.9,0s1,.18,1,1-.35,1-1.07,1q-2.83,0-5.67,0c-.63,0-.87-.17-.85-.83C126,105.6,126,103.85,126,102.1Z"/><path class="cls-1" d="M65,105.15c-.37.86-.73,1.73-1.11,2.59a2.43,2.43,0,0,1-2.07.33c-.16-.2,0-.41.07-.58,1.53-3.72,3.08-7.43,4.61-11.14a.61.61,0,0,1,.81-.44c.66.6,1.56.53,2.33.82,1.58,3.57,3.14,7.14,4.73,10.71.23.52.17.71-.47.75-1,.06-1.76-.08-2-1.22a11.21,11.21,0,0,0-.78-1.82l.09-.13L71,105a.12.12,0,0,1-.11-.08c-.17-.11-.34-.28-.52-.3a43.2,43.2,0,0,0-5,0C65.21,104.59,64.6,104.61,65,105.15Zm3-7.76c-.73,1.93-1.42,3.75-2.1,5.57-.14.37,0,.51.41.5,1.15,0,2.31,0,3.46,0,.53,0,.58-.21.4-.64Z"/><path class="cls-1" d="M100.41,95.59A5.28,5.28,0,0,1,104.35,97c.39.39.65.76,0,1.17-.42.28-.63,1-1.4.27a3.61,3.61,0,0,0-6.14,1.69,5.36,5.36,0,0,0,.24,3.8,3.7,3.7,0,0,0,6,1.09c.45-.45.71-.55,1.15,0s1,.69.29,1.42c-1.68,1.85-3.79,2-6,1.54a4.57,4.57,0,0,1-3.73-3.69,9.1,9.1,0,0,1-.2-3.85A5.41,5.41,0,0,1,100.41,95.59Z"/><path class="cls-1" d="M26.72,105.49c.49-1.28,1-2.5,1.41-3.73.65-1.73,1.29-3.47,1.95-5.2A1.79,1.79,0,0,1,32.21,96c.34.27,0,.58-.05.84q-1.8,4.86-3.63,9.73c-.63,1.65-1.12,1.89-2.88,1.6-.4-.06-.51-.31-.61-.61-1.3-3.66-2.59-7.32-3.9-11-.2-.54,0-.62.48-.67a1.52,1.52,0,0,1,1.9,1.22c.78,2.46,1.72,4.88,2.61,7.31A2,2,0,0,0,26.72,105.49Z"/><path class="cls-1" d="M9.62,105.09l-.27.48a2.39,2.39,0,0,0-.87,1.49c-.19.65-.78.63-1.26.75s-.49-.27-.55-.59a.18.18,0,0,1,0-.17.81.81,0,0,0,.49-1.13h0c.22,0,.26-.18.33-.34.78-1.81,1.64-3.59,2.33-5.44a11.45,11.45,0,0,0,1.21-3.62h0l.5-.14c1.69-.55,2.17-.25,2.87,1.32a8.39,8.39,0,0,0,1.52,3h0c.43,2.19,1.58,4.1,2.42,6.13.13.32.44.62.14.93s-.65.14-1,0a1.17,1.17,0,0,1-.61-.55,10.79,10.79,0,0,1-.95-1.85c-.2-.73-.64-.82-1.23-.82-1.53,0-3,0-4.58,0C9.79,104.52,9.61,104.7,9.62,105.09Zm.7-1.63h4c.34,0,.67,0,.47-.51-.72-1.82-1.45-3.64-2.22-5.58Z"/><path class="cls-1" d="M51,101.9c0-1.75,0-3.5,0-5.25,0-.85.47-.78,1-.76s1.13-.19,1.12.76c0,2.69,0,5.39,0,8.08,0,1,.17,1.39,1.24,1.29s2.24,0,3.36,0,.72.68.78,1.21,0,1-.81.94c-1.92-.07-3.85,0-5.78,0-.66,0-.92-.16-.9-.87,0-1.79,0-3.58,0-5.36Z"/><path class="cls-1" d="M9.62,105.09c0-.39.17-.57.57-.56,1.53,0,3.05,0,4.58,0,.59,0,1,.09,1.23.82A10.79,10.79,0,0,0,17,107.2a1.17,1.17,0,0,0,.61.55c.33.15.7.28,1,0s0-.61-.14-.93c-.84-2-2-3.94-2.42-6.13,1.2,2.25,2.06,4.66,3.13,7,.07.15.18.3,0,.46-.38.33-2.19,0-2.32-.49-.61-2.47-2.25-3.14-4.58-2.75C11.35,105,10.46,104.72,9.62,105.09Z"/><path class="cls-1" d="M11.09,96.51a11.45,11.45,0,0,1-1.21,3.62c-.69,1.85-1.55,3.63-2.33,5.44-.07.16-.11.33-.33.34C8.41,102.74,9.64,99.58,11.09,96.51Z"/><path class="cls-1" d="M16,100.71a8.39,8.39,0,0,1-1.52-3c-.7-1.57-1.18-1.87-2.87-1.32l-.5.14c0-.46.19-.69.7-.67,2.48.1,2-.61,3,1.88A19.78,19.78,0,0,1,16,100.71Z"/><path class="cls-1" d="M65,105.15c-.36-.54.25-.56.4-.56a43.2,43.2,0,0,1,5,0c.18,0,.35.19.52.3H66A1.36,1.36,0,0,0,65,105.15Z"/><path class="cls-1" d="M6.67,107.22c.06.32.13.69.55.59s1.07-.1,1.26-.75a2.39,2.39,0,0,1,.87-1.49,7.17,7.17,0,0,1-.9,2.31,2.47,2.47,0,0,1-2,.25C6.16,107.77,6.5,107.5,6.67,107.22Z"/><path class="cls-1" d="M69.6,96.73c-.77-.29-1.67-.22-2.33-.82.71.06,1.47-.32,2.1.27l0,0Z"/><path class="cls-1" d="M7.21,105.92a.81.81,0,0,1-.49,1.13A2.6,2.6,0,0,1,7.21,105.92Z"/><polygon class="cls-1" points="69.39 96.23 69.37 96.18 69.42 96.2 69.39 96.23"/><path class="cls-1" d="M71,105l.17,0-.09.13A.19.19,0,0,1,71,105Z"/><path class="cls-1" d="M49,71.24c.4.22.72.61,1.24.59l.62,0c3.29,0,6.58,0,9.87,0a4.14,4.14,0,0,0,2.58-.74l.26-.19a2.43,2.43,0,0,0,1.22-1c.82-.62,1-1.67,1.68-2.41.32,0,.39-.22.33-.5a.12.12,0,0,1,.06-.13c.24,0,.48,0,.72,0,.49,0,1-.1,1.07-.6s.5-1.41-.32-1.92l0,0,1.07-1.88c0,.34.18.44.48.28a2.64,2.64,0,0,1,1.62-.07h0c0,.84-.85.71-1.28,1.06H70c-.6.27-.43.81-.43,1.27,0,2.23-.53,2.75-2.74,2.73-.15.07-.14.14,0,.22v.2a.65.65,0,0,0-.62.47c-1,2.65-3.2,3.41-5.72,3.51s-5,0-7.54,0a8.2,8.2,0,0,0-2,.16A1.48,1.48,0,0,1,49,71.24Z"/><path class="cls-1" d="M48.13,65.21l-.19.18c-.25.08-.52.32-.73,0s.16-.54.33-.77.75-.66.37-1a1.14,1.14,0,0,0-1.35.11.78.78,0,0,0-.33.62c-.71.44-.4,1-.2,1.58a1.68,1.68,0,0,0,1.58,1.15c.66,0,1.33,0,2,0,0,.35-.29.53-.42.81a13.28,13.28,0,0,1-3-.2h0a.61.61,0,0,0-.64-.63h0a.38.38,0,0,0-.42-.42h0v-3h0a1.25,1.25,0,0,0,1.06-1.06h0a17.62,17.62,0,0,1,1.78,0,1.24,1.24,0,0,1,1.08.72c.21.47-.17.75-.45,1.06S48.11,64.84,48.13,65.21Z"/><path class="cls-1" d="M36.78,66.86l-.18-.42c1,.1,1.2-.51,1.21-1.29,0-1.4,0-2.79,0-4.19,0-.59,0-1.21.81-1.19s.67.65.67,1.18c0,1.5,0,3,0,4.5a1.58,1.58,0,0,1-.83,1.63h0a7,7,0,0,0,.45-1.71c0-1.43,0-2.86,0-4.29,0-.29.17-.77-.23-.8s-.39.47-.4.79c0,1.33,0,2.66,0,4C38.21,66,37.87,66.74,36.78,66.86Z"/><path class="cls-1" d="M78.65,61.63c-.51-.51-1.18-.87-1.48-1.57a2.51,2.51,0,0,1,.45-2.83,2.53,2.53,0,0,1,2.74-.76l1.09.35c-.13.2-.27.4-.41.59a4.21,4.21,0,0,0-1.22-.25c-1.4-.16-2.25.76-2,2.29.11.75.75,1.06,1.22,1.51l-.18.64A.57.57,0,0,0,78.65,61.63Z"/><path class="cls-1" d="M41.18,63.5a1.6,1.6,0,0,1,2.11-1.23.57.57,0,0,1,.4.55c0,.37-.09.76-.47.85-1,.23-1,1-1,1.77A5.37,5.37,0,0,1,42,67.62a.7.7,0,0,1-.7.5.58.58,0,0,1-.68-.51,8.26,8.26,0,0,1,.25-4c0-.06.19-.07.29-.11A6.61,6.61,0,0,0,41,66c.07.55-.42,1.55.44,1.55.68,0,.32-1,.36-1.53.06-1.08-.3-2.31,1.23-2.72a.3.3,0,0,0,.19-.43c-.07-.2-.27-.17-.43-.21C42,62.49,41.72,63.21,41.18,63.5Z"/><path class="cls-1" d="M75,68.22l-.34.34c-.06-.12-.09-.32-.18-.35-1.49-.53-1.77-1.71-1.74-3.1,0-1.08,0-2.16,0-3.24,0-.49,0-1,.6-1s.85.3.87.8.33.54.74.63c.62.14,1.2-.44,1.8,0v.41c-.63,0-1.26,0-1.88,0s-1.12-.08-1.07-.88c0-.24,0-.55-.34-.52s-.29.34-.29.57q0,1.93,0,3.87c0,1.37.5,1.88,1.93,2Z"/><path class="cls-1" d="M94.62,66.64h.21c.46,1.33.28,1.64-1.09,1.56-.76,0-1.7.08-2.07-.93h0a9.93,9.93,0,0,0,2.19.62c.33,0,.67-.05.7-.46s-.34-.38-.6-.37a2.54,2.54,0,0,1-1.22-.24c-1-.45-.94-1.32-.84-2.16a1.24,1.24,0,0,1,1.28-1.16c.31,0,.81-.22.89.23s-.33.58-.72.6c-.06-.36-.23-.56-.55-.28a1.65,1.65,0,0,0-.51,1.52c.07.53.41.74.88.91A3.91,3.91,0,0,0,94.62,66.64Z"/><path class="cls-1" d="M98.63,67.31c-.07.76-.38,1.2-1,1.21-.84,0-1-.66-1-1.3s.42-1.32,1-1.29S98.52,66.73,98.63,67.31Z"/><path class="cls-1" d="M49.6,67.09c-.66,0-1.33,0-2,0A1.68,1.68,0,0,1,46,65.91c-.2-.55-.51-1.14.2-1.58h0c0,.87-.17,1.83,1,2.08a4.93,4.93,0,0,0,2,.22l1.14.08c-.07.12-.15.24-.23.36Z"/><path class="cls-1" d="M91.24,63.7c.26-1.09.88-1.45,2.54-1.48a1.94,1.94,0,0,1,1.8,1.19c.2.57-.32,1-.74,1.35h0c.49-1.43.21-1.92-1.1-2.11a2.91,2.91,0,0,0-2.46,1.07Z"/><path class="cls-1" d="M48.13,65.21c0-.37.3-.53.51-.75s.66-.59.45-1.06A1.24,1.24,0,0,0,48,62.68a17.62,17.62,0,0,0-1.78,0,2.42,2.42,0,0,1,3.22.41C49.92,63.83,49.35,64.74,48.13,65.21Z"/><path class="cls-1" d="M76.74,62.64v-.41c.5.07.55.46.63.84l-.42.64h-.84c-1.91,0-1.91,0-1.9,1.89v.63c-.09,0-.25,0-.27-.11a3.58,3.58,0,0,1,0-2.35c.2-.58,1-.2,1.51-.27.31,0,.63,0,.94,0C76.84,63.39,77.15,63.17,76.74,62.64Z"/><path class="cls-1" d="M94.62,66.64a3.91,3.91,0,0,1-1.44-.15c-.47-.17-.81-.38-.88-.91a1.65,1.65,0,0,1,.51-1.52c.32-.28.49-.08.55.28h0a.38.38,0,0,0-.21.42h0c-.68.19-.51.69-.25,1s.7.46.88-.18h.42Z"/><path class="cls-1" d="M46.23,64.33a.78.78,0,0,1,.33-.62,1.14,1.14,0,0,1,1.35-.11c.38.34-.14.69-.37,1s-.56.39-.33.77.48.1.73,0c0,.14,0,.28,0,.42-.35.34-.66.23-1,0-.56-.45,0-1-.06-1.42.15,0,.33,0,.31-.28,0,0,0-.06-.07-.06-.23,0-.24.15-.27.31l-.61,0Z"/><path class="cls-1" d="M66.85,68.12V67.7c2.21,0,2.72-.5,2.74-2.73,0-.46-.17-1,.43-1.27-.08.93-.09,1.87-.25,2.79A1.86,1.86,0,0,1,68,68.12,11,11,0,0,1,66.85,68.12Z"/><path class="cls-1" d="M46.24,64.34l.61,0,0,0c.07.47-.5,1,.06,1.42.33.27.64.38,1,0,.39.32,1,.27,1.25.83a4.93,4.93,0,0,1-2-.22C46.07,66.17,46.22,65.21,46.24,64.34Z"/><path class="cls-1" d="M94.84,64.76c.42-.35.94-.78.74-1.35a1.94,1.94,0,0,0-1.8-1.19c1-.36,1.76-.1,2.11.78a1.63,1.63,0,0,1-1.06,2.18Z"/><path class="cls-1" d="M36.08,64.62c-.28-.32-.2-.75-.32-1.13.47,0,1.09,0,1.07-.53s-.66-.19-1-.3a.5.5,0,0,0-.21,0l-.09-.44h.94c.4,0,.81,0,.91.5a.75.75,0,0,1-.55.91A.92.92,0,0,0,36.08,64.62Z"/><path class="cls-1" d="M49.6,67.09h.49A8.89,8.89,0,0,1,49,69c-.07-.39-.27-.47-.66-.37s-.88.06-1.05-.49c.6-.3,1.37.67,1.89-.24C49.31,67.62,49.63,67.44,49.6,67.09Z"/><path class="cls-1" d="M91.45,66.87a2.12,2.12,0,0,1-.21-3.17h0a4.37,4.37,0,0,0,.21,3.14Z"/><path class="cls-1" d="M49,69a2.68,2.68,0,0,0,0,2.25c-.17,0-.48,0-.48-.06,0-.63-.3-1.25-.11-1.89A.49.49,0,0,1,49,69Z"/><path class="cls-1" d="M45.18,63.7v3A2.46,2.46,0,0,1,45.18,63.7Z"/><path class="cls-1" d="M77,63.71l.42-.64c.31-.25.41-.72.87-.82l-.3.8-.36.65-.14.21a.23.23,0,0,0-.09.18c-.19.23-.39.46-.58.7Z"/><path class="cls-1" d="M49.18,67.9c-.52.91-1.29-.06-1.89.24-.37-.12-.93.24-1.06-.44A13.28,13.28,0,0,0,49.18,67.9Z"/><path class="cls-1" d="M69.38,62.44a.37.37,0,0,1,.21-.39c.32.32.73.14,1.09.18s.74-.1.8.42a2.64,2.64,0,0,0-1.62.07C69.56,62.88,69.39,62.78,69.38,62.44Z"/><path class="cls-1" d="M70.2,63.71c.43-.35,1.25-.22,1.28-1.06.32.32.35.75,0,1S70.66,64.15,70.2,63.71Z"/><path class="cls-1" d="M37.35,68.38c-.08-.2-.15-.4-.22-.61.46-.19.8-.61,1.31-.7h0C38.4,67.78,37.7,67.93,37.35,68.38Z"/><path class="cls-1" d="M46.24,62.65a1.25,1.25,0,0,1-1.06,1.06A.93.93,0,0,1,46.24,62.65Z"/><path class="cls-1" d="M94.84,64.76v.42l-.63.43h-.42c.25-.4.51-.79,1-.85Z"/><path class="cls-1" d="M45.6,67.07a.61.61,0,0,1,.64.63A.58.58,0,0,1,45.6,67.07Z"/><path class="cls-1" d="M45.18,66.65a.38.38,0,0,1,.42.42A.38.38,0,0,1,45.18,66.65Z"/><path class="cls-1" d="M78.49,62l-.26.25c0-.21,0-.37.26-.42Z"/><path class="cls-1" d="M91.67,67.28a.4.4,0,0,1-.21-.41v0a.47.47,0,0,1,.21.43Z"/><path class="cls-1" d="M86.18,59.29,86,59Z"/><path class="cls-1" d="M55.89,57.15l-.17.25Z"/><path class="cls-1" d="M94.83,66.65l0-.09,0,.09Z"/><path class="cls-1" d="M86,58.86l-.16-.22Z"/><path class="cls-1" d="M87,60.76l-.16-.29Z"/><path class="cls-1" d="M78.49,62v-.17h.15Z"/><path class="cls-1" d="M38.44,67.07c-.51.09-.85.51-1.31.7a1.4,1.4,0,0,1-.35-.91c1.09-.12,1.43-.86,1.45-1.82,0-1.32,0-2.65,0-4,0-.32-.09-.83.4-.79s.23.51.23.8c0,1.43,0,2.86,0,4.29A7,7,0,0,1,38.44,67.07Z"/><path class="cls-1" d="M35.61,62.67a.5.5,0,0,1,.21,0c.35.11,1-.29,1,.3s-.6.55-1.07.53Z"/><path class="cls-1" d="M67.06,66.23c.41-.64.83-1.27,1.25-1.91l0,0c0,1.89,0,1.89-1.38,2.3Z"/><path class="cls-1" d="M67,66.65c1.37-.41,1.37-.41,1.38-2.3.82.51.38,1.29.32,1.92s-.58.62-1.07.6c-.24,0-.48,0-.72,0Z"/><path class="cls-1" d="M66.47,67.49v-.33L66.8,67C66.86,67.27,66.79,67.46,66.47,67.49Z"/><path class="cls-1" d="M80.69,58l0,.22a.45.45,0,0,0-.2.43.19.19,0,0,0-.08.15h-.13c-.16-.57-.66-.45-.94-.31-.72.34-.08,1-.25,1.56a1.37,1.37,0,0,1-.6-1.75A1.47,1.47,0,0,1,80.69,58Z"/><path class="cls-1" d="M79.47,61.6l0-.09,0,.09Z"/><path class="cls-1" d="M66.85,67.7v.22C66.71,67.84,66.7,67.77,66.85,67.7Z"/><path class="cls-1" d="M80.31,58.81,79,61c-.47-.45-1.11-.76-1.22-1.51-.22-1.53.63-2.45,2-2.29a4.21,4.21,0,0,1,1.22.25.89.89,0,0,1-.35.6,1.47,1.47,0,0,0-2.17.3,1.37,1.37,0,0,0,.6,1.75c.17-.53-.47-1.22.25-1.56C79.65,58.36,80.15,58.24,80.31,58.81Z"/><path class="cls-1" d="M41.18,63.5c.54-.29.84-1,1.61-.85.16,0,.36,0,.43.21a.3.3,0,0,1-.19.43c-1.53.41-1.17,1.64-1.23,2.72,0,.54.32,1.53-.36,1.53-.86,0-.37-1-.44-1.55a6.61,6.61,0,0,1,.19-2.5Z"/><path class="cls-1" d="M75.5,67.07l-.41.67c-1.43-.17-1.92-.68-1.93-2s0-2.58,0-3.87c0-.23,0-.55.29-.57s.35.28.34.52c-.05.8.43.91,1.07.88s1.25,0,1.88,0c.41.53.1.75-.39.84-.31.05-.63,0-.94,0-.52.07-1.31-.31-1.51.27a3.58,3.58,0,0,0,0,2.35c0,.06.18.07.27.11h0C74.13,67.28,75.2,66.58,75.5,67.07Z"/><path class="cls-1" d="M91.68,67.28a.47.47,0,0,0-.21-.43,4.37,4.37,0,0,1-.21-3.14,2.91,2.91,0,0,1,2.46-1.07c1.31.19,1.59.68,1.1,2.11-.53.06-.79.45-1,.85h0c-.68.07-.65-.39-.63-.84h0a.41.41,0,0,0,.21-.42h0c.39,0,.78-.26.72-.6s-.58-.24-.89-.23a1.24,1.24,0,0,0-1.28,1.16c-.1.84-.11,1.71.84,2.16a2.54,2.54,0,0,0,1.22.24c.26,0,.63,0,.6.37s-.37.48-.7.46A9.93,9.93,0,0,1,91.68,67.28Z"/><path class="cls-1" d="M77,63.71l-.18,1.08h0l-.24,0c-.4,0-.54.27-.65.65-.37,1.33-.39,1.32-1.67.82h0V65.6c0-1.88,0-1.88,1.9-1.89Z"/><path class="cls-1" d="M93.15,64.76c0,.45-.05.91.63.84-.18.64-.61.52-.88.18S92.47,65,93.15,64.76Z"/><path class="cls-1" d="M93.36,64.34a.41.41,0,0,1-.21.42A.38.38,0,0,1,93.36,64.34Z"/><path class="cls-1" d="M46.85,64.32c0-.16,0-.33.27-.31,0,0,.06,0,.07.06,0,.23-.16.24-.31.28Z"/><path class="cls-1" d="M74.21,66.23c1.28.5,1.3.51,1.67-.82.11-.38.25-.63.65-.65,0,.19,0,.38,0,.57a6.91,6.91,0,0,1-1,1.74C75.2,66.58,74.13,67.28,74.21,66.23Z"/><path class="cls-1" d="M76.52,65.33c0-.19,0-.38,0-.57l.24,0A.77.77,0,0,1,76.52,65.33Z"/></svg>