<svg width="17" height="17" viewBox="0 0 17 17" fill="none" xmlns="http://www.w3.org/2000/svg">
<path d="M7.47575 4.42006L5.07946 1.65402C4.80321 1.33527 4.29675 1.33669 3.97588 1.65827L2.00529 3.6324C1.41879 4.2196 1.25092 5.09156 1.59021 5.79069C3.61719 9.98754 7.00191 13.377 11.1959 15.4099C11.8943 15.7491 12.7656 15.5813 13.3521 14.9941L15.3411 13.0015C15.6634 12.6792 15.6641 12.1699 15.3425 11.8937L12.5658 9.51015C12.2754 9.26081 11.8242 9.2934 11.5331 9.58523L10.5669 10.5528C10.5175 10.6047 10.4523 10.6388 10.3816 10.6501C10.3108 10.6613 10.2383 10.6491 10.1752 10.6151C8.59594 9.70571 7.28591 8.39397 6.37854 6.81352C6.34456 6.7503 6.33226 6.67768 6.34352 6.6068C6.35478 6.53591 6.38898 6.47068 6.44088 6.4211L7.40421 5.45706C7.69604 5.16381 7.72792 4.71048 7.47575 4.41935V4.42006Z" stroke="#B66DF3" stroke-width="1.5" stroke-linecap="round" stroke-linejoin="round"/>
</svg>
